<mxfile host="Electron" modified="2023-04-04T04:33:08.371Z" agent="Mozilla/5.0 (Macintosh; Intel Mac OS X 10_15_7) AppleWebKit/537.36 (KHTML, like Gecko) draw.io/21.1.2 Chrome/106.0.5249.199 Electron/21.4.3 Safari/537.36" etag="k2SW2z5GRbJZ5GiZQRvG" version="21.1.2" type="device" pages="3">
  <diagram id="tWdo1uTZ0DQyp1wlIpzo" name="ci-cd-ecs">
    <mxGraphModel dx="1272" dy="833" grid="1" gridSize="10" guides="1" tooltips="1" connect="1" arrows="1" fold="1" page="1" pageScale="1" pageWidth="1169" pageHeight="827" math="0" shadow="0">
      <root>
        <mxCell id="0" />
        <mxCell id="1" parent="0" />
        <mxCell id="vjJKEsOUoOcRm-KhcCRo-1" value="AWS Cloud" style="points=[[0,0],[0.25,0],[0.5,0],[0.75,0],[1,0],[1,0.25],[1,0.5],[1,0.75],[1,1],[0.75,1],[0.5,1],[0.25,1],[0,1],[0,0.75],[0,0.5],[0,0.25]];outlineConnect=0;gradientColor=none;html=1;whiteSpace=wrap;fontSize=12;fontStyle=0;container=1;pointerEvents=0;collapsible=0;recursiveResize=0;shape=mxgraph.aws4.group;grIcon=mxgraph.aws4.group_aws_cloud_alt;strokeColor=#232F3E;fillColor=none;verticalAlign=top;align=left;spacingLeft=30;fontColor=#232F3E;dashed=0;" parent="1" vertex="1">
          <mxGeometry x="160" y="40" width="960" height="760" as="geometry" />
        </mxCell>
        <mxCell id="yoT6yrk6nFA1uaMbu3N2-3" value="    unicorn-store-spring-build-ecr" style="fillColor=none;strokeColor=#007fff;dashed=1;verticalAlign=top;fontStyle=0;fontColor=#007fff;align=left;fontSize=14;" parent="vjJKEsOUoOcRm-KhcCRo-1" vertex="1">
          <mxGeometry x="140" y="10" width="521" height="120" as="geometry" />
        </mxCell>
        <mxCell id="IMRbtgO41QrXhzBIwlTx-31" style="edgeStyle=orthogonalEdgeStyle;rounded=0;orthogonalLoop=1;jettySize=auto;html=1;strokeWidth=3;fillColor=#d5e8d4;strokeColor=#82b366;" parent="vjJKEsOUoOcRm-KhcCRo-1" source="yoT6yrk6nFA1uaMbu3N2-4" target="yoT6yrk6nFA1uaMbu3N2-8" edge="1">
          <mxGeometry relative="1" as="geometry" />
        </mxCell>
        <mxCell id="yoT6yrk6nFA1uaMbu3N2-4" value="AWS CodeBuild" style="outlineConnect=0;fontColor=#232F3E;gradientColor=#4D72F3;gradientDirection=north;fillColor=#3334B9;strokeColor=#ffffff;dashed=0;verticalLabelPosition=bottom;verticalAlign=top;align=center;html=1;fontSize=12;fontStyle=0;aspect=fixed;shape=mxgraph.aws4.resourceIcon;resIcon=mxgraph.aws4.codebuild;" parent="vjJKEsOUoOcRm-KhcCRo-1" vertex="1">
          <mxGeometry x="540" y="40" width="60" height="60" as="geometry" />
        </mxCell>
        <mxCell id="IMRbtgO41QrXhzBIwlTx-29" value="" style="edgeStyle=orthogonalEdgeStyle;rounded=0;orthogonalLoop=1;jettySize=auto;html=1;strokeWidth=3;fillColor=#d5e8d4;strokeColor=#82b366;" parent="vjJKEsOUoOcRm-KhcCRo-1" source="yoT6yrk6nFA1uaMbu3N2-5" target="yoT6yrk6nFA1uaMbu3N2-6" edge="1">
          <mxGeometry relative="1" as="geometry" />
        </mxCell>
        <mxCell id="yoT6yrk6nFA1uaMbu3N2-5" value="AWS CodeCommit" style="outlineConnect=0;fontColor=#232F3E;gradientColor=#4D72F3;gradientDirection=north;fillColor=#3334B9;strokeColor=#ffffff;dashed=0;verticalLabelPosition=bottom;verticalAlign=top;align=center;html=1;fontSize=12;fontStyle=0;aspect=fixed;shape=mxgraph.aws4.resourceIcon;resIcon=mxgraph.aws4.codecommit;" parent="vjJKEsOUoOcRm-KhcCRo-1" vertex="1">
          <mxGeometry x="207.5" y="40" width="60" height="60" as="geometry" />
        </mxCell>
        <mxCell id="IMRbtgO41QrXhzBIwlTx-30" value="" style="edgeStyle=orthogonalEdgeStyle;rounded=0;orthogonalLoop=1;jettySize=auto;html=1;strokeWidth=3;fillColor=#d5e8d4;strokeColor=#82b366;" parent="vjJKEsOUoOcRm-KhcCRo-1" source="yoT6yrk6nFA1uaMbu3N2-6" target="yoT6yrk6nFA1uaMbu3N2-4" edge="1">
          <mxGeometry relative="1" as="geometry" />
        </mxCell>
        <mxCell id="yoT6yrk6nFA1uaMbu3N2-6" value="AWS CodePipeline" style="outlineConnect=0;fontColor=#232F3E;gradientColor=#4D72F3;gradientDirection=north;fillColor=#3334B9;strokeColor=#ffffff;dashed=0;verticalLabelPosition=bottom;verticalAlign=top;align=center;html=1;fontSize=12;fontStyle=0;aspect=fixed;shape=mxgraph.aws4.resourceIcon;resIcon=mxgraph.aws4.codepipeline;" parent="vjJKEsOUoOcRm-KhcCRo-1" vertex="1">
          <mxGeometry x="365" y="40" width="60" height="60" as="geometry" />
        </mxCell>
        <mxCell id="IMRbtgO41QrXhzBIwlTx-32" style="edgeStyle=orthogonalEdgeStyle;rounded=0;orthogonalLoop=1;jettySize=auto;html=1;strokeWidth=3;fillColor=#d5e8d4;strokeColor=#82b366;" parent="vjJKEsOUoOcRm-KhcCRo-1" source="yoT6yrk6nFA1uaMbu3N2-8" target="yoT6yrk6nFA1uaMbu3N2-10" edge="1">
          <mxGeometry relative="1" as="geometry" />
        </mxCell>
        <mxCell id="yoT6yrk6nFA1uaMbu3N2-8" value="Amazon ECR" style="outlineConnect=0;fontColor=#232F3E;gradientColor=#F78E04;gradientDirection=north;fillColor=#D05C17;strokeColor=#ffffff;dashed=0;verticalLabelPosition=bottom;verticalAlign=top;align=center;html=1;fontSize=12;fontStyle=0;aspect=fixed;shape=mxgraph.aws4.resourceIcon;resIcon=mxgraph.aws4.ecr;" parent="vjJKEsOUoOcRm-KhcCRo-1" vertex="1">
          <mxGeometry x="705" y="40" width="60" height="60" as="geometry" />
        </mxCell>
        <mxCell id="yoT6yrk6nFA1uaMbu3N2-2" value="    unicorn-store-spring-deploy-ecs" style="fillColor=none;strokeColor=#007fff;dashed=1;verticalAlign=top;fontStyle=0;fontColor=#007fff;align=left;fontSize=14;" parent="vjJKEsOUoOcRm-KhcCRo-1" vertex="1">
          <mxGeometry x="320" y="140" width="520" height="120" as="geometry" />
        </mxCell>
        <mxCell id="IMRbtgO41QrXhzBIwlTx-53" value="" style="edgeStyle=orthogonalEdgeStyle;rounded=0;orthogonalLoop=1;jettySize=auto;html=1;strokeWidth=3;fillColor=#d5e8d4;strokeColor=#82b366;" parent="vjJKEsOUoOcRm-KhcCRo-1" source="yoT6yrk6nFA1uaMbu3N2-7" target="IMRbtgO41QrXhzBIwlTx-56" edge="1">
          <mxGeometry relative="1" as="geometry">
            <mxPoint x="395" y="450" as="targetPoint" />
          </mxGeometry>
        </mxCell>
        <mxCell id="yoT6yrk6nFA1uaMbu3N2-7" value="AWS CodeDeploy" style="outlineConnect=0;fontColor=#232F3E;gradientColor=#4D72F3;gradientDirection=north;fillColor=#3334B9;strokeColor=#ffffff;dashed=0;verticalLabelPosition=bottom;verticalAlign=top;align=center;html=1;fontSize=12;fontStyle=0;aspect=fixed;shape=mxgraph.aws4.resourceIcon;resIcon=mxgraph.aws4.codedeploy;" parent="vjJKEsOUoOcRm-KhcCRo-1" vertex="1">
          <mxGeometry x="365" y="170" width="60" height="60" as="geometry" />
        </mxCell>
        <mxCell id="IMRbtgO41QrXhzBIwlTx-34" value="" style="edgeStyle=orthogonalEdgeStyle;rounded=0;orthogonalLoop=1;jettySize=auto;html=1;strokeWidth=3;fillColor=#d5e8d4;strokeColor=#82b366;" parent="vjJKEsOUoOcRm-KhcCRo-1" source="yoT6yrk6nFA1uaMbu3N2-9" target="yoT6yrk6nFA1uaMbu3N2-7" edge="1">
          <mxGeometry relative="1" as="geometry" />
        </mxCell>
        <mxCell id="yoT6yrk6nFA1uaMbu3N2-9" value="AWS CodeBuild" style="outlineConnect=0;fontColor=#232F3E;gradientColor=#4D72F3;gradientDirection=north;fillColor=#3334B9;strokeColor=#ffffff;dashed=0;verticalLabelPosition=bottom;verticalAlign=top;align=center;html=1;fontSize=12;fontStyle=0;aspect=fixed;shape=mxgraph.aws4.resourceIcon;resIcon=mxgraph.aws4.codebuild;" parent="vjJKEsOUoOcRm-KhcCRo-1" vertex="1">
          <mxGeometry x="540" y="170" width="60" height="60" as="geometry" />
        </mxCell>
        <mxCell id="IMRbtgO41QrXhzBIwlTx-33" value="" style="edgeStyle=orthogonalEdgeStyle;rounded=0;orthogonalLoop=1;jettySize=auto;html=1;strokeWidth=3;fillColor=#d5e8d4;strokeColor=#82b366;" parent="vjJKEsOUoOcRm-KhcCRo-1" source="yoT6yrk6nFA1uaMbu3N2-10" target="yoT6yrk6nFA1uaMbu3N2-9" edge="1">
          <mxGeometry relative="1" as="geometry" />
        </mxCell>
        <mxCell id="yoT6yrk6nFA1uaMbu3N2-10" value="AWS CodePipeline" style="outlineConnect=0;fontColor=#232F3E;gradientColor=#4D72F3;gradientDirection=north;fillColor=#3334B9;strokeColor=#ffffff;dashed=0;verticalLabelPosition=bottom;verticalAlign=top;align=center;html=1;fontSize=12;fontStyle=0;aspect=fixed;shape=mxgraph.aws4.resourceIcon;resIcon=mxgraph.aws4.codepipeline;" parent="vjJKEsOUoOcRm-KhcCRo-1" vertex="1">
          <mxGeometry x="705" y="170" width="60" height="60" as="geometry" />
        </mxCell>
        <mxCell id="yoT6yrk6nFA1uaMbu3N2-1" value="App VPC" style="points=[[0,0],[0.25,0],[0.5,0],[0.75,0],[1,0],[1,0.25],[1,0.5],[1,0.75],[1,1],[0.75,1],[0.5,1],[0.25,1],[0,1],[0,0.75],[0,0.5],[0,0.25]];outlineConnect=0;gradientColor=none;html=1;whiteSpace=wrap;fontSize=12;fontStyle=0;shape=mxgraph.aws4.group;grIcon=mxgraph.aws4.group_vpc;strokeColor=#248814;fillColor=none;verticalAlign=top;align=left;spacingLeft=30;fontColor=#009900;dashed=0;horizontal=1;flipV=0;" parent="vjJKEsOUoOcRm-KhcCRo-1" vertex="1">
          <mxGeometry x="39" y="357.5" width="801" height="362.5" as="geometry" />
        </mxCell>
        <mxCell id="yoT6yrk6nFA1uaMbu3N2-14" value="  Availability Zone 1&#xa;" style="fillColor=none;strokeColor=#147EBA;dashed=1;verticalAlign=top;fontStyle=0;fontColor=#147EBA;align=left;horizontal=1;" parent="vjJKEsOUoOcRm-KhcCRo-1" vertex="1">
          <mxGeometry x="150" y="391.5" width="660" height="270" as="geometry" />
        </mxCell>
        <mxCell id="qdxB7RJBbLvXLIizvRoq-1" style="edgeStyle=orthogonalEdgeStyle;rounded=0;orthogonalLoop=1;jettySize=auto;html=1;strokeWidth=3;fontColor=#97D077;fillColor=#d5e8d4;strokeColor=#82b366;dashed=1;" parent="vjJKEsOUoOcRm-KhcCRo-1" source="IMRbtgO41QrXhzBIwlTx-5" target="IMRbtgO41QrXhzBIwlTx-11" edge="1">
          <mxGeometry relative="1" as="geometry">
            <Array as="points">
              <mxPoint x="100" y="695" />
            </Array>
          </mxGeometry>
        </mxCell>
        <mxCell id="IMRbtgO41QrXhzBIwlTx-5" value="Load Balancing" style="outlineConnect=0;fontColor=#232F3E;gradientColor=#945DF2;gradientDirection=north;fillColor=#5A30B5;strokeColor=#ffffff;dashed=0;verticalLabelPosition=bottom;verticalAlign=top;align=center;html=1;fontSize=12;fontStyle=0;aspect=fixed;shape=mxgraph.aws4.resourceIcon;resIcon=mxgraph.aws4.elastic_load_balancing;flipH=0;flipV=0;" parent="vjJKEsOUoOcRm-KhcCRo-1" vertex="1">
          <mxGeometry x="70" y="549.5" width="60" height="60" as="geometry" />
        </mxCell>
        <mxCell id="IMRbtgO41QrXhzBIwlTx-11" value="   Availability Zone 2" style="fillColor=none;strokeColor=#147EBA;dashed=1;verticalAlign=top;fontStyle=0;fontColor=#147EBA;align=left;horizontal=1;" parent="vjJKEsOUoOcRm-KhcCRo-1" vertex="1">
          <mxGeometry x="150" y="680" width="660" height="30" as="geometry" />
        </mxCell>
        <mxCell id="IMRbtgO41QrXhzBIwlTx-23" value="X-Ray" style="sketch=0;points=[[0,0,0],[0.25,0,0],[0.5,0,0],[0.75,0,0],[1,0,0],[0,1,0],[0.25,1,0],[0.5,1,0],[0.75,1,0],[1,1,0],[0,0.25,0],[0,0.5,0],[0,0.75,0],[1,0.25,0],[1,0.5,0],[1,0.75,0]];outlineConnect=0;fontColor=#232F3E;gradientColor=#4D72F3;gradientDirection=north;fillColor=#3334B9;strokeColor=#ffffff;dashed=0;verticalLabelPosition=bottom;verticalAlign=top;align=center;html=1;fontSize=12;fontStyle=0;aspect=fixed;shape=mxgraph.aws4.resourceIcon;resIcon=mxgraph.aws4.xray;" parent="vjJKEsOUoOcRm-KhcCRo-1" vertex="1">
          <mxGeometry x="870" y="599.75" width="60" height="60" as="geometry" />
        </mxCell>
        <mxCell id="IMRbtgO41QrXhzBIwlTx-18" value="CloudWatch" style="sketch=0;points=[[0,0,0],[0.25,0,0],[0.5,0,0],[0.75,0,0],[1,0,0],[0,1,0],[0.25,1,0],[0.5,1,0],[0.75,1,0],[1,1,0],[0,0.25,0],[0,0.5,0],[0,0.75,0],[1,0.25,0],[1,0.5,0],[1,0.75,0]];points=[[0,0,0],[0.25,0,0],[0.5,0,0],[0.75,0,0],[1,0,0],[0,1,0],[0.25,1,0],[0.5,1,0],[0.75,1,0],[1,1,0],[0,0.25,0],[0,0.5,0],[0,0.75,0],[1,0.25,0],[1,0.5,0],[1,0.75,0]];outlineConnect=0;fontColor=#232F3E;gradientColor=#F34482;gradientDirection=north;fillColor=#BC1356;strokeColor=#ffffff;dashed=0;verticalLabelPosition=bottom;verticalAlign=top;align=center;html=1;fontSize=12;fontStyle=0;aspect=fixed;shape=mxgraph.aws4.resourceIcon;resIcon=mxgraph.aws4.cloudwatch_2;" parent="vjJKEsOUoOcRm-KhcCRo-1" vertex="1">
          <mxGeometry x="870" y="508.75" width="60" height="60" as="geometry" />
        </mxCell>
        <mxCell id="IMRbtgO41QrXhzBIwlTx-55" value="  Public Subnet" style="fillColor=none;strokeColor=#97D077;dashed=1;verticalAlign=top;fontStyle=0;fontColor=#97D077;align=left;fontSize=14;strokeWidth=2;" parent="vjJKEsOUoOcRm-KhcCRo-1" vertex="1">
          <mxGeometry x="170" y="430" width="135" height="210" as="geometry" />
        </mxCell>
        <mxCell id="IMRbtgO41QrXhzBIwlTx-54" value="  Private Subnet" style="fillColor=none;strokeColor=#007fff;dashed=1;verticalAlign=top;fontStyle=0;fontColor=#007fff;align=left;fontSize=14;strokeWidth=2;" parent="vjJKEsOUoOcRm-KhcCRo-1" vertex="1">
          <mxGeometry x="320" y="430" width="460" height="210" as="geometry" />
        </mxCell>
        <mxCell id="IMRbtgO41QrXhzBIwlTx-58" value="Database" style="sketch=0;points=[[0,0,0],[0.25,0,0],[0.5,0,0],[0.75,0,0],[1,0,0],[0,1,0],[0.25,1,0],[0.5,1,0],[0.75,1,0],[1,1,0],[0,0.25,0],[0,0.5,0],[0,0.75,0],[1,0.25,0],[1,0.5,0],[1,0.75,0]];outlineConnect=0;fontColor=#232F3E;gradientColor=#4D72F3;gradientDirection=north;fillColor=#3334B9;strokeColor=#ffffff;dashed=0;verticalLabelPosition=bottom;verticalAlign=top;align=center;html=1;fontSize=12;fontStyle=0;aspect=fixed;shape=mxgraph.aws4.resourceIcon;resIcon=mxgraph.aws4.rds;" parent="vjJKEsOUoOcRm-KhcCRo-1" vertex="1">
          <mxGeometry x="705" y="450.5" width="60" height="60" as="geometry" />
        </mxCell>
        <mxCell id="6-jN_LcU0kdcnyq7TAg5-2" style="edgeStyle=orthogonalEdgeStyle;rounded=0;orthogonalLoop=1;jettySize=auto;html=1;strokeWidth=3;fontColor=#000000;fillColor=#d5e8d4;strokeColor=#82b366;" parent="vjJKEsOUoOcRm-KhcCRo-1" source="IMRbtgO41QrXhzBIwlTx-57" target="IMRbtgO41QrXhzBIwlTx-59" edge="1">
          <mxGeometry relative="1" as="geometry">
            <Array as="points">
              <mxPoint x="500" y="481" />
            </Array>
          </mxGeometry>
        </mxCell>
        <mxCell id="6-jN_LcU0kdcnyq7TAg5-5" style="edgeStyle=orthogonalEdgeStyle;rounded=0;orthogonalLoop=1;jettySize=auto;html=1;strokeWidth=3;fontColor=#000000;fillColor=#d5e8d4;strokeColor=#82b366;" parent="vjJKEsOUoOcRm-KhcCRo-1" source="IMRbtgO41QrXhzBIwlTx-57" target="IMRbtgO41QrXhzBIwlTx-60" edge="1">
          <mxGeometry relative="1" as="geometry">
            <Array as="points">
              <mxPoint x="500" y="590" />
            </Array>
          </mxGeometry>
        </mxCell>
        <mxCell id="VfpRREYMopiYcUxcJr8Q-10" style="edgeStyle=orthogonalEdgeStyle;rounded=0;orthogonalLoop=1;jettySize=auto;html=1;entryX=0;entryY=0.5;entryDx=0;entryDy=0;entryPerimeter=0;strokeWidth=3;fontColor=#000000;fillColor=#d5e8d4;strokeColor=#82b366;" parent="vjJKEsOUoOcRm-KhcCRo-1" source="IMRbtgO41QrXhzBIwlTx-57" target="IMRbtgO41QrXhzBIwlTx-18" edge="1">
          <mxGeometry relative="1" as="geometry" />
        </mxCell>
        <mxCell id="IMRbtgO41QrXhzBIwlTx-57" value="AWS Fargate" style="outlineConnect=0;fontColor=#232F3E;gradientColor=#F78E04;gradientDirection=north;fillColor=#D05C17;strokeColor=#ffffff;dashed=0;verticalLabelPosition=bottom;verticalAlign=top;align=center;html=1;fontSize=12;fontStyle=0;aspect=fixed;shape=mxgraph.aws4.resourceIcon;resIcon=mxgraph.aws4.fargate;" parent="vjJKEsOUoOcRm-KhcCRo-1" vertex="1">
          <mxGeometry x="470" y="508.75" width="60" height="60" as="geometry" />
        </mxCell>
        <mxCell id="6-jN_LcU0kdcnyq7TAg5-6" value="" style="edgeStyle=orthogonalEdgeStyle;rounded=0;orthogonalLoop=1;jettySize=auto;html=1;strokeWidth=3;fontColor=#000000;fillColor=#d5e8d4;strokeColor=#82b366;" parent="vjJKEsOUoOcRm-KhcCRo-1" source="IMRbtgO41QrXhzBIwlTx-60" target="IMRbtgO41QrXhzBIwlTx-67" edge="1">
          <mxGeometry relative="1" as="geometry">
            <Array as="points">
              <mxPoint x="660" y="590" />
              <mxPoint x="660" y="590" />
            </Array>
          </mxGeometry>
        </mxCell>
        <mxCell id="IMRbtgO41QrXhzBIwlTx-60" value="Otel&amp;nbsp;&lt;br&gt;Sidecar" style="sketch=0;outlineConnect=0;fontColor=#232F3E;gradientColor=none;fillColor=#D45B07;strokeColor=none;dashed=0;verticalLabelPosition=bottom;verticalAlign=top;align=center;html=1;fontSize=12;fontStyle=0;aspect=fixed;pointerEvents=1;shape=mxgraph.aws4.container_1;" parent="vjJKEsOUoOcRm-KhcCRo-1" vertex="1">
          <mxGeometry x="570" y="569.5" width="48" height="31" as="geometry" />
        </mxCell>
        <mxCell id="IMRbtgO41QrXhzBIwlTx-73" value="NAT Gateway" style="outlineConnect=0;fontColor=#232F3E;gradientColor=none;fillColor=#5A30B5;strokeColor=none;dashed=0;verticalLabelPosition=bottom;verticalAlign=top;align=center;html=1;fontSize=12;fontStyle=0;aspect=fixed;pointerEvents=1;shape=mxgraph.aws4.nat_gateway;labelBackgroundColor=#ffffff;flipH=1;" parent="vjJKEsOUoOcRm-KhcCRo-1" vertex="1">
          <mxGeometry x="200" y="455.5" width="50" height="50" as="geometry" />
        </mxCell>
        <mxCell id="IMRbtgO41QrXhzBIwlTx-83" style="edgeStyle=orthogonalEdgeStyle;rounded=0;orthogonalLoop=1;jettySize=auto;html=1;strokeWidth=3;fontColor=#97D077;fillColor=#d5e8d4;strokeColor=#82b366;" parent="vjJKEsOUoOcRm-KhcCRo-1" source="IMRbtgO41QrXhzBIwlTx-56" target="IMRbtgO41QrXhzBIwlTx-73" edge="1">
          <mxGeometry relative="1" as="geometry">
            <Array as="points">
              <mxPoint x="380" y="480" />
            </Array>
          </mxGeometry>
        </mxCell>
        <mxCell id="IMRbtgO41QrXhzBIwlTx-56" value="Amazon ECS&lt;br&gt;Cluster" style="outlineConnect=0;fontColor=#232F3E;gradientColor=#F78E04;gradientDirection=north;fillColor=#D05C17;strokeColor=#ffffff;dashed=0;verticalLabelPosition=bottom;verticalAlign=top;align=center;html=1;fontSize=12;fontStyle=0;aspect=fixed;shape=mxgraph.aws4.resourceIcon;resIcon=mxgraph.aws4.ecs;" parent="vjJKEsOUoOcRm-KhcCRo-1" vertex="1">
          <mxGeometry x="365" y="508.75" width="60" height="60" as="geometry" />
        </mxCell>
        <mxCell id="IMRbtgO41QrXhzBIwlTx-61" value="" style="edgeStyle=orthogonalEdgeStyle;rounded=0;orthogonalLoop=1;jettySize=auto;html=1;strokeWidth=3;fontColor=#97D077;fillColor=#d5e8d4;strokeColor=#82b366;" parent="vjJKEsOUoOcRm-KhcCRo-1" source="IMRbtgO41QrXhzBIwlTx-56" target="IMRbtgO41QrXhzBIwlTx-57" edge="1">
          <mxGeometry relative="1" as="geometry" />
        </mxCell>
        <mxCell id="IMRbtgO41QrXhzBIwlTx-82" style="edgeStyle=orthogonalEdgeStyle;rounded=0;orthogonalLoop=1;jettySize=auto;html=1;strokeWidth=3;fontColor=#97D077;fillColor=#d5e8d4;strokeColor=#82b366;" parent="vjJKEsOUoOcRm-KhcCRo-1" source="IMRbtgO41QrXhzBIwlTx-5" target="IMRbtgO41QrXhzBIwlTx-56" edge="1">
          <mxGeometry relative="1" as="geometry">
            <Array as="points">
              <mxPoint x="395" y="580" />
            </Array>
          </mxGeometry>
        </mxCell>
        <mxCell id="IMRbtgO41QrXhzBIwlTx-21" value="Cloud9&lt;br style=&quot;border-color: var(--border-color);&quot;&gt;Dev IDE" style="sketch=0;points=[[0,0,0],[0.25,0,0],[0.5,0,0],[0.75,0,0],[1,0,0],[0,1,0],[0.25,1,0],[0.5,1,0],[0.75,1,0],[1,1,0],[0,0.25,0],[0,0.5,0],[0,0.75,0],[1,0.25,0],[1,0.5,0],[1,0.75,0]];outlineConnect=0;fontColor=#232F3E;gradientColor=#4D72F3;gradientDirection=north;fillColor=#3334B9;strokeColor=#ffffff;dashed=0;verticalLabelPosition=bottom;verticalAlign=top;align=center;html=1;fontSize=12;fontStyle=0;aspect=fixed;shape=mxgraph.aws4.resourceIcon;resIcon=mxgraph.aws4.cloud9;" parent="vjJKEsOUoOcRm-KhcCRo-1" vertex="1">
          <mxGeometry x="39" y="40" width="60" height="60" as="geometry" />
        </mxCell>
        <mxCell id="IMRbtgO41QrXhzBIwlTx-26" value="" style="edgeStyle=orthogonalEdgeStyle;rounded=0;orthogonalLoop=1;jettySize=auto;html=1;fillColor=#d5e8d4;strokeColor=#82b366;strokeWidth=3;" parent="vjJKEsOUoOcRm-KhcCRo-1" source="IMRbtgO41QrXhzBIwlTx-21" target="yoT6yrk6nFA1uaMbu3N2-5" edge="1">
          <mxGeometry relative="1" as="geometry" />
        </mxCell>
        <mxCell id="VfpRREYMopiYcUxcJr8Q-7" style="edgeStyle=orthogonalEdgeStyle;rounded=0;orthogonalLoop=1;jettySize=auto;html=1;entryX=1;entryY=0.5;entryDx=0;entryDy=0;entryPerimeter=0;strokeWidth=3;fontColor=#000000;fillColor=#d5e8d4;strokeColor=#82b366;" parent="vjJKEsOUoOcRm-KhcCRo-1" source="IMRbtgO41QrXhzBIwlTx-20" target="IMRbtgO41QrXhzBIwlTx-58" edge="1">
          <mxGeometry relative="1" as="geometry">
            <Array as="points">
              <mxPoint x="830" y="480" />
              <mxPoint x="830" y="480" />
            </Array>
          </mxGeometry>
        </mxCell>
        <mxCell id="IMRbtgO41QrXhzBIwlTx-20" value="SecretManager" style="sketch=0;points=[[0,0,0],[0.25,0,0],[0.5,0,0],[0.75,0,0],[1,0,0],[0,1,0],[0.25,1,0],[0.5,1,0],[0.75,1,0],[1,1,0],[0,0.25,0],[0,0.5,0],[0,0.75,0],[1,0.25,0],[1,0.5,0],[1,0.75,0]];outlineConnect=0;fontColor=#232F3E;gradientColor=#F54749;gradientDirection=north;fillColor=#C7131F;strokeColor=#ffffff;dashed=0;verticalLabelPosition=bottom;verticalAlign=top;align=center;html=1;fontSize=12;fontStyle=0;aspect=fixed;shape=mxgraph.aws4.resourceIcon;resIcon=mxgraph.aws4.secrets_manager;" parent="vjJKEsOUoOcRm-KhcCRo-1" vertex="1">
          <mxGeometry x="870" y="430" width="60" height="60" as="geometry" />
        </mxCell>
        <mxCell id="VfpRREYMopiYcUxcJr8Q-12" style="edgeStyle=orthogonalEdgeStyle;rounded=0;orthogonalLoop=1;jettySize=auto;html=1;strokeWidth=3;fontColor=#000000;fillColor=#d5e8d4;strokeColor=#82b366;" parent="vjJKEsOUoOcRm-KhcCRo-1" source="IMRbtgO41QrXhzBIwlTx-67" target="IMRbtgO41QrXhzBIwlTx-23" edge="1">
          <mxGeometry relative="1" as="geometry">
            <Array as="points">
              <mxPoint x="790" y="610" />
              <mxPoint x="790" y="610" />
            </Array>
          </mxGeometry>
        </mxCell>
        <mxCell id="IMRbtgO41QrXhzBIwlTx-67" value="OTel" style="sketch=0;points=[[0,0,0],[0.25,0,0],[0.5,0,0],[0.75,0,0],[1,0,0],[0,1,0],[0.25,1,0],[0.5,1,0],[0.75,1,0],[1,1,0],[0,0.25,0],[0,0.5,0],[0,0.75,0],[1,0.25,0],[1,0.5,0],[1,0.75,0]];points=[[0,0,0],[0.25,0,0],[0.5,0,0],[0.75,0,0],[1,0,0],[0,1,0],[0.25,1,0],[0.5,1,0],[0.75,1,0],[1,1,0],[0,0.25,0],[0,0.5,0],[0,0.75,0],[1,0.25,0],[1,0.5,0],[1,0.75,0]];outlineConnect=0;fontColor=#232F3E;gradientColor=#F34482;gradientDirection=north;fillColor=#BC1356;strokeColor=#ffffff;dashed=0;verticalLabelPosition=bottom;verticalAlign=top;align=center;html=1;fontSize=12;fontStyle=0;aspect=fixed;shape=mxgraph.aws4.resourceIcon;resIcon=mxgraph.aws4.distro_for_opentelemetry;" parent="vjJKEsOUoOcRm-KhcCRo-1" vertex="1">
          <mxGeometry x="705" y="555" width="60" height="60" as="geometry" />
        </mxCell>
        <mxCell id="6-jN_LcU0kdcnyq7TAg5-4" value="" style="edgeStyle=orthogonalEdgeStyle;rounded=0;orthogonalLoop=1;jettySize=auto;html=1;strokeWidth=3;fontColor=#000000;fillColor=#d5e8d4;strokeColor=#82b366;" parent="vjJKEsOUoOcRm-KhcCRo-1" source="IMRbtgO41QrXhzBIwlTx-59" target="IMRbtgO41QrXhzBIwlTx-58" edge="1">
          <mxGeometry relative="1" as="geometry" />
        </mxCell>
        <mxCell id="VfpRREYMopiYcUxcJr8Q-6" style="edgeStyle=orthogonalEdgeStyle;rounded=0;orthogonalLoop=1;jettySize=auto;html=1;strokeWidth=3;fontColor=#000000;fillColor=#d5e8d4;strokeColor=#82b366;" parent="vjJKEsOUoOcRm-KhcCRo-1" source="IMRbtgO41QrXhzBIwlTx-59" target="IMRbtgO41QrXhzBIwlTx-17" edge="1">
          <mxGeometry relative="1" as="geometry">
            <Array as="points">
              <mxPoint x="580" y="350" />
            </Array>
          </mxGeometry>
        </mxCell>
        <mxCell id="VfpRREYMopiYcUxcJr8Q-8" style="edgeStyle=orthogonalEdgeStyle;rounded=0;orthogonalLoop=1;jettySize=auto;html=1;entryX=0;entryY=0.25;entryDx=0;entryDy=0;entryPerimeter=0;strokeWidth=3;fontColor=#000000;fillColor=#d5e8d4;strokeColor=#82b366;" parent="vjJKEsOUoOcRm-KhcCRo-1" source="IMRbtgO41QrXhzBIwlTx-59" target="IMRbtgO41QrXhzBIwlTx-20" edge="1">
          <mxGeometry relative="1" as="geometry">
            <Array as="points">
              <mxPoint x="600" y="445" />
            </Array>
          </mxGeometry>
        </mxCell>
        <mxCell id="IMRbtgO41QrXhzBIwlTx-59" value="App &lt;br&gt;Container" style="sketch=0;outlineConnect=0;fontColor=#232F3E;gradientColor=none;fillColor=#D45B07;strokeColor=none;dashed=0;verticalLabelPosition=bottom;verticalAlign=top;align=center;html=1;fontSize=12;fontStyle=0;aspect=fixed;pointerEvents=1;shape=mxgraph.aws4.container_1;" parent="vjJKEsOUoOcRm-KhcCRo-1" vertex="1">
          <mxGeometry x="570" y="465" width="48" height="31" as="geometry" />
        </mxCell>
        <mxCell id="k20n-l8TctlVkcxFnc35-1" value="IAM" style="sketch=0;points=[[0,0,0],[0.25,0,0],[0.5,0,0],[0.75,0,0],[1,0,0],[0,1,0],[0.25,1,0],[0.5,1,0],[0.75,1,0],[1,1,0],[0,0.25,0],[0,0.5,0],[0,0.75,0],[1,0.25,0],[1,0.5,0],[1,0.75,0]];outlineConnect=0;fontColor=#232F3E;gradientColor=#F54749;gradientDirection=north;fillColor=#C7131F;strokeColor=#ffffff;dashed=0;verticalLabelPosition=bottom;verticalAlign=top;align=center;html=1;fontSize=12;fontStyle=0;aspect=fixed;shape=mxgraph.aws4.resourceIcon;resIcon=mxgraph.aws4.identity_and_access_management;shadow=0;fillStyle=auto;strokeWidth=2;" parent="vjJKEsOUoOcRm-KhcCRo-1" vertex="1">
          <mxGeometry x="870" y="260" width="60" height="60" as="geometry" />
        </mxCell>
        <mxCell id="k20n-l8TctlVkcxFnc35-2" style="edgeStyle=orthogonalEdgeStyle;rounded=0;orthogonalLoop=1;jettySize=auto;html=1;strokeWidth=3;fontColor=#000000;fillColor=#d5e8d4;strokeColor=#82b366;" parent="vjJKEsOUoOcRm-KhcCRo-1" source="IMRbtgO41QrXhzBIwlTx-57" target="k20n-l8TctlVkcxFnc35-1" edge="1">
          <mxGeometry relative="1" as="geometry">
            <Array as="points">
              <mxPoint x="490" y="290" />
            </Array>
          </mxGeometry>
        </mxCell>
        <mxCell id="IMRbtgO41QrXhzBIwlTx-17" value="EventBrifge" style="sketch=0;points=[[0,0,0],[0.25,0,0],[0.5,0,0],[0.75,0,0],[1,0,0],[0,1,0],[0.25,1,0],[0.5,1,0],[0.75,1,0],[1,1,0],[0,0.25,0],[0,0.5,0],[0,0.75,0],[1,0.25,0],[1,0.5,0],[1,0.75,0]];outlineConnect=0;fontColor=#232F3E;gradientColor=#FF4F8B;gradientDirection=north;fillColor=#BC1356;strokeColor=#ffffff;dashed=0;verticalLabelPosition=bottom;verticalAlign=top;align=center;html=1;fontSize=12;fontStyle=0;aspect=fixed;shape=mxgraph.aws4.resourceIcon;resIcon=mxgraph.aws4.eventbridge;" parent="vjJKEsOUoOcRm-KhcCRo-1" vertex="1">
          <mxGeometry x="870" y="345" width="60" height="60" as="geometry" />
        </mxCell>
        <mxCell id="IMRbtgO41QrXhzBIwlTx-78" style="edgeStyle=orthogonalEdgeStyle;rounded=0;orthogonalLoop=1;jettySize=auto;html=1;strokeWidth=3;fontColor=#97D077;fillColor=#d5e8d4;strokeColor=#82b366;" parent="1" source="yoT6yrk6nFA1uaMbu3N2-11" target="IMRbtgO41QrXhzBIwlTx-21" edge="1">
          <mxGeometry relative="1" as="geometry" />
        </mxCell>
        <mxCell id="eAgDIiURiPLMdzwv2kGv-1" value="&lt;font color=&quot;#97d077&quot;&gt;&lt;font style=&quot;font-size: 15px;&quot;&gt;Source&lt;/font&gt;&lt;br style=&quot;border-color: var(--border-color); font-size: 15px;&quot;&gt;&lt;span style=&quot;font-size: 15px;&quot;&gt;Update&lt;/span&gt;&lt;/font&gt;" style="edgeLabel;html=1;align=center;verticalAlign=middle;resizable=0;points=[];" vertex="1" connectable="0" parent="IMRbtgO41QrXhzBIwlTx-78">
          <mxGeometry x="-0.2085" y="4" relative="1" as="geometry">
            <mxPoint as="offset" />
          </mxGeometry>
        </mxCell>
        <mxCell id="IMRbtgO41QrXhzBIwlTx-80" style="edgeStyle=orthogonalEdgeStyle;rounded=0;orthogonalLoop=1;jettySize=auto;html=1;strokeWidth=3;fontColor=#97D077;fillColor=#d5e8d4;strokeColor=#82b366;" parent="1" source="yoT6yrk6nFA1uaMbu3N2-11" target="IMRbtgO41QrXhzBIwlTx-22" edge="1">
          <mxGeometry relative="1" as="geometry" />
        </mxCell>
        <mxCell id="sswIgiH05sG8eW1femK6-1" value="&lt;font color=&quot;#97d077&quot; style=&quot;font-size: 15px;&quot;&gt;Infrastructure Update&lt;/font&gt;" style="edgeLabel;html=1;align=center;verticalAlign=middle;resizable=0;points=[];" vertex="1" connectable="0" parent="IMRbtgO41QrXhzBIwlTx-80">
          <mxGeometry x="0.1421" y="-2" relative="1" as="geometry">
            <mxPoint y="1" as="offset" />
          </mxGeometry>
        </mxCell>
        <mxCell id="yoT6yrk6nFA1uaMbu3N2-11" value="Dev" style="outlineConnect=0;fillColor=#009900;strokeColor=#009900;dashed=0;verticalLabelPosition=bottom;verticalAlign=top;align=center;html=1;fontSize=12;fontStyle=0;aspect=fixed;pointerEvents=1;shape=mxgraph.aws4.user;fontColor=#009900;" parent="1" vertex="1">
          <mxGeometry x="64.99999999999999" y="95" width="30" height="30" as="geometry" />
        </mxCell>
        <mxCell id="IMRbtgO41QrXhzBIwlTx-77" value="" style="edgeStyle=orthogonalEdgeStyle;rounded=0;orthogonalLoop=1;jettySize=auto;html=1;strokeWidth=3;fontColor=#97D077;fillColor=#d5e8d4;strokeColor=#82b366;" parent="1" source="yoT6yrk6nFA1uaMbu3N2-12" target="IMRbtgO41QrXhzBIwlTx-5" edge="1">
          <mxGeometry relative="1" as="geometry" />
        </mxCell>
        <mxCell id="yoT6yrk6nFA1uaMbu3N2-12" value="Test" style="outlineConnect=0;fillColor=#82B366;strokeColor=#82B366;dashed=0;verticalLabelPosition=bottom;verticalAlign=top;align=center;html=1;fontSize=12;fontStyle=0;aspect=fixed;pointerEvents=1;shape=mxgraph.aws4.user;fontColor=#009900;" parent="1" vertex="1">
          <mxGeometry x="65.0000000000001" y="604.5" width="30" height="30" as="geometry" />
        </mxCell>
        <mxCell id="IMRbtgO41QrXhzBIwlTx-79" value="" style="edgeStyle=orthogonalEdgeStyle;rounded=0;orthogonalLoop=1;jettySize=auto;html=1;strokeWidth=3;fontColor=#97D077;fillColor=#d5e8d4;strokeColor=#82b366;" parent="1" source="IMRbtgO41QrXhzBIwlTx-22" target="vjJKEsOUoOcRm-KhcCRo-1" edge="1">
          <mxGeometry relative="1" as="geometry" />
        </mxCell>
        <mxCell id="IMRbtgO41QrXhzBIwlTx-22" value="CDK" style="sketch=0;points=[[0,0,0],[0.25,0,0],[0.5,0,0],[0.75,0,0],[1,0,0],[0,1,0],[0.25,1,0],[0.5,1,0],[0.75,1,0],[1,1,0],[0,0.25,0],[0,0.5,0],[0,0.75,0],[1,0.25,0],[1,0.5,0],[1,0.75,0]];outlineConnect=0;fontColor=#232F3E;gradientColor=#4D72F3;gradientDirection=north;fillColor=#3334B9;strokeColor=#ffffff;dashed=0;verticalLabelPosition=bottom;verticalAlign=top;align=center;html=1;fontSize=12;fontStyle=0;aspect=fixed;shape=mxgraph.aws4.resourceIcon;resIcon=mxgraph.aws4.cloud_development_kit;" parent="1" vertex="1">
          <mxGeometry x="50" y="390" width="60" height="60" as="geometry" />
        </mxCell>
        <mxCell id="IMRbtgO41QrXhzBIwlTx-6" value="Internet&lt;br&gt;Gateway" style="outlineConnect=0;fontColor=#232F3E;gradientColor=none;fillColor=#5A30B5;strokeColor=none;dashed=0;verticalLabelPosition=bottom;verticalAlign=top;align=center;html=1;fontSize=12;fontStyle=0;aspect=fixed;pointerEvents=1;shape=mxgraph.aws4.internet_gateway;" parent="1" vertex="1">
          <mxGeometry x="136" y="495.5" width="50" height="50" as="geometry" />
        </mxCell>
        <mxCell id="IMRbtgO41QrXhzBIwlTx-75" style="edgeStyle=orthogonalEdgeStyle;rounded=0;orthogonalLoop=1;jettySize=auto;html=1;strokeWidth=3;fontColor=#97D077;fillColor=#d5e8d4;strokeColor=#82b366;" parent="1" source="IMRbtgO41QrXhzBIwlTx-73" target="IMRbtgO41QrXhzBIwlTx-6" edge="1">
          <mxGeometry relative="1" as="geometry" />
        </mxCell>
      </root>
    </mxGraphModel>
  </diagram>
  <diagram name="ci-cd-eks-gitops" id="IzSOp9g4PQmQcwBEJHJG">
    <mxGraphModel dx="1272" dy="833" grid="1" gridSize="10" guides="1" tooltips="1" connect="1" arrows="1" fold="1" page="1" pageScale="1" pageWidth="1169" pageHeight="827" math="0" shadow="0">
      <root>
        <mxCell id="h5kZTqRJnjjrIYhOVkn1-0" />
        <mxCell id="h5kZTqRJnjjrIYhOVkn1-1" parent="h5kZTqRJnjjrIYhOVkn1-0" />
        <mxCell id="h5kZTqRJnjjrIYhOVkn1-2" value="AWS Cloud" style="points=[[0,0],[0.25,0],[0.5,0],[0.75,0],[1,0],[1,0.25],[1,0.5],[1,0.75],[1,1],[0.75,1],[0.5,1],[0.25,1],[0,1],[0,0.75],[0,0.5],[0,0.25]];outlineConnect=0;gradientColor=none;html=1;whiteSpace=wrap;fontSize=12;fontStyle=0;container=1;pointerEvents=0;collapsible=0;recursiveResize=0;shape=mxgraph.aws4.group;grIcon=mxgraph.aws4.group_aws_cloud_alt;strokeColor=#232F3E;fillColor=none;verticalAlign=top;align=left;spacingLeft=30;fontColor=#232F3E;dashed=0;" parent="h5kZTqRJnjjrIYhOVkn1-1" vertex="1">
          <mxGeometry x="160" y="40" width="960" height="760" as="geometry" />
        </mxCell>
        <mxCell id="h5kZTqRJnjjrIYhOVkn1-3" value="    unicorn-store-spring-build-ecr" style="fillColor=none;strokeColor=#007fff;dashed=1;verticalAlign=top;fontStyle=0;fontColor=#007fff;align=left;fontSize=14;" parent="h5kZTqRJnjjrIYhOVkn1-2" vertex="1">
          <mxGeometry x="140" y="10" width="521" height="120" as="geometry" />
        </mxCell>
        <mxCell id="h5kZTqRJnjjrIYhOVkn1-4" style="edgeStyle=orthogonalEdgeStyle;rounded=0;orthogonalLoop=1;jettySize=auto;html=1;strokeWidth=3;fillColor=#d5e8d4;strokeColor=#82b366;" parent="h5kZTqRJnjjrIYhOVkn1-2" source="h5kZTqRJnjjrIYhOVkn1-5" target="h5kZTqRJnjjrIYhOVkn1-11" edge="1">
          <mxGeometry relative="1" as="geometry" />
        </mxCell>
        <mxCell id="h5kZTqRJnjjrIYhOVkn1-5" value="AWS CodeBuild" style="outlineConnect=0;fontColor=#232F3E;gradientColor=#4D72F3;gradientDirection=north;fillColor=#3334B9;strokeColor=#ffffff;dashed=0;verticalLabelPosition=bottom;verticalAlign=top;align=center;html=1;fontSize=12;fontStyle=0;aspect=fixed;shape=mxgraph.aws4.resourceIcon;resIcon=mxgraph.aws4.codebuild;" parent="h5kZTqRJnjjrIYhOVkn1-2" vertex="1">
          <mxGeometry x="540" y="40" width="60" height="60" as="geometry" />
        </mxCell>
        <mxCell id="h5kZTqRJnjjrIYhOVkn1-6" value="" style="edgeStyle=orthogonalEdgeStyle;rounded=0;orthogonalLoop=1;jettySize=auto;html=1;strokeWidth=3;fillColor=#d5e8d4;strokeColor=#82b366;" parent="h5kZTqRJnjjrIYhOVkn1-2" source="h5kZTqRJnjjrIYhOVkn1-7" target="h5kZTqRJnjjrIYhOVkn1-9" edge="1">
          <mxGeometry relative="1" as="geometry" />
        </mxCell>
        <mxCell id="h5kZTqRJnjjrIYhOVkn1-7" value="AWS CodeCommit" style="outlineConnect=0;fontColor=#232F3E;gradientColor=#4D72F3;gradientDirection=north;fillColor=#3334B9;strokeColor=#ffffff;dashed=0;verticalLabelPosition=bottom;verticalAlign=top;align=center;html=1;fontSize=12;fontStyle=0;aspect=fixed;shape=mxgraph.aws4.resourceIcon;resIcon=mxgraph.aws4.codecommit;" parent="h5kZTqRJnjjrIYhOVkn1-2" vertex="1">
          <mxGeometry x="207.5" y="40" width="60" height="60" as="geometry" />
        </mxCell>
        <mxCell id="h5kZTqRJnjjrIYhOVkn1-8" value="" style="edgeStyle=orthogonalEdgeStyle;rounded=0;orthogonalLoop=1;jettySize=auto;html=1;strokeWidth=3;fillColor=#d5e8d4;strokeColor=#82b366;" parent="h5kZTqRJnjjrIYhOVkn1-2" source="h5kZTqRJnjjrIYhOVkn1-9" target="h5kZTqRJnjjrIYhOVkn1-5" edge="1">
          <mxGeometry relative="1" as="geometry" />
        </mxCell>
        <mxCell id="h5kZTqRJnjjrIYhOVkn1-9" value="AWS CodePipeline" style="outlineConnect=0;fontColor=#232F3E;gradientColor=#4D72F3;gradientDirection=north;fillColor=#3334B9;strokeColor=#ffffff;dashed=0;verticalLabelPosition=bottom;verticalAlign=top;align=center;html=1;fontSize=12;fontStyle=0;aspect=fixed;shape=mxgraph.aws4.resourceIcon;resIcon=mxgraph.aws4.codepipeline;" parent="h5kZTqRJnjjrIYhOVkn1-2" vertex="1">
          <mxGeometry x="365" y="40" width="60" height="60" as="geometry" />
        </mxCell>
        <mxCell id="h5kZTqRJnjjrIYhOVkn1-11" value="Amazon ECR" style="outlineConnect=0;fontColor=#232F3E;gradientColor=#F78E04;gradientDirection=north;fillColor=#D05C17;strokeColor=#ffffff;dashed=0;verticalLabelPosition=bottom;verticalAlign=top;align=center;html=1;fontSize=12;fontStyle=0;aspect=fixed;shape=mxgraph.aws4.resourceIcon;resIcon=mxgraph.aws4.ecr;" parent="h5kZTqRJnjjrIYhOVkn1-2" vertex="1">
          <mxGeometry x="705" y="40" width="60" height="60" as="geometry" />
        </mxCell>
        <mxCell id="h5kZTqRJnjjrIYhOVkn1-12" value="" style="fillColor=none;strokeColor=#007fff;dashed=1;verticalAlign=top;fontStyle=0;fontColor=#007fff;align=left;fontSize=14;" parent="h5kZTqRJnjjrIYhOVkn1-2" vertex="1">
          <mxGeometry x="141" y="140" width="520" height="120" as="geometry" />
        </mxCell>
        <mxCell id="h5kZTqRJnjjrIYhOVkn1-18" value="App VPC" style="points=[[0,0],[0.25,0],[0.5,0],[0.75,0],[1,0],[1,0.25],[1,0.5],[1,0.75],[1,1],[0.75,1],[0.5,1],[0.25,1],[0,1],[0,0.75],[0,0.5],[0,0.25]];outlineConnect=0;gradientColor=none;html=1;whiteSpace=wrap;fontSize=12;fontStyle=0;shape=mxgraph.aws4.group;grIcon=mxgraph.aws4.group_vpc;strokeColor=#248814;fillColor=none;verticalAlign=top;align=left;spacingLeft=30;fontColor=#009900;dashed=0;horizontal=1;flipV=0;" parent="h5kZTqRJnjjrIYhOVkn1-2" vertex="1">
          <mxGeometry x="39" y="280" width="801" height="440" as="geometry" />
        </mxCell>
        <mxCell id="h5kZTqRJnjjrIYhOVkn1-19" value="  Availability Zone 1&#xa;" style="fillColor=none;strokeColor=#147EBA;dashed=1;verticalAlign=top;fontStyle=0;fontColor=#147EBA;align=left;horizontal=1;" parent="h5kZTqRJnjjrIYhOVkn1-2" vertex="1">
          <mxGeometry x="150" y="300" width="660" height="369.75" as="geometry" />
        </mxCell>
        <mxCell id="h5kZTqRJnjjrIYhOVkn1-20" style="edgeStyle=orthogonalEdgeStyle;rounded=0;orthogonalLoop=1;jettySize=auto;html=1;strokeWidth=3;fontColor=#97D077;fillColor=#d5e8d4;strokeColor=#82b366;dashed=1;" parent="h5kZTqRJnjjrIYhOVkn1-2" source="h5kZTqRJnjjrIYhOVkn1-22" target="h5kZTqRJnjjrIYhOVkn1-23" edge="1">
          <mxGeometry relative="1" as="geometry">
            <Array as="points">
              <mxPoint x="100" y="695" />
            </Array>
          </mxGeometry>
        </mxCell>
        <mxCell id="h5kZTqRJnjjrIYhOVkn1-21" style="edgeStyle=orthogonalEdgeStyle;rounded=0;orthogonalLoop=1;jettySize=auto;html=1;entryX=0.005;entryY=0.63;entryDx=0;entryDy=0;entryPerimeter=0;strokeWidth=3;fontColor=#000000;fillColor=#d5e8d4;strokeColor=#82b366;" parent="h5kZTqRJnjjrIYhOVkn1-2" source="h5kZTqRJnjjrIYhOVkn1-22" target="h5kZTqRJnjjrIYhOVkn1-38" edge="1">
          <mxGeometry relative="1" as="geometry" />
        </mxCell>
        <mxCell id="h5kZTqRJnjjrIYhOVkn1-22" value="Load Balancing" style="outlineConnect=0;fontColor=#232F3E;gradientColor=#945DF2;gradientDirection=north;fillColor=#5A30B5;strokeColor=#ffffff;dashed=0;verticalLabelPosition=bottom;verticalAlign=top;align=center;html=1;fontSize=12;fontStyle=0;aspect=fixed;shape=mxgraph.aws4.resourceIcon;resIcon=mxgraph.aws4.elastic_load_balancing;flipH=0;flipV=0;" parent="h5kZTqRJnjjrIYhOVkn1-2" vertex="1">
          <mxGeometry x="70" y="549.5" width="60" height="60" as="geometry" />
        </mxCell>
        <mxCell id="h5kZTqRJnjjrIYhOVkn1-23" value="   Availability Zone 2" style="fillColor=none;strokeColor=#147EBA;dashed=1;verticalAlign=top;fontStyle=0;fontColor=#147EBA;align=left;horizontal=1;" parent="h5kZTqRJnjjrIYhOVkn1-2" vertex="1">
          <mxGeometry x="150" y="680" width="660" height="30" as="geometry" />
        </mxCell>
        <mxCell id="h5kZTqRJnjjrIYhOVkn1-24" value="Internet&lt;br&gt;Gateway" style="outlineConnect=0;fontColor=#232F3E;gradientColor=none;fillColor=#5A30B5;strokeColor=none;dashed=0;verticalLabelPosition=bottom;verticalAlign=top;align=center;html=1;fontSize=12;fontStyle=0;aspect=fixed;pointerEvents=1;shape=mxgraph.aws4.internet_gateway;" parent="h5kZTqRJnjjrIYhOVkn1-2" vertex="1">
          <mxGeometry x="-24" y="455.75" width="50" height="50" as="geometry" />
        </mxCell>
        <mxCell id="h5kZTqRJnjjrIYhOVkn1-25" value="  Public Subnet" style="fillColor=none;strokeColor=#97D077;dashed=1;verticalAlign=top;fontStyle=0;fontColor=#97D077;align=left;fontSize=14;strokeWidth=2;horizontal=0;" parent="h5kZTqRJnjjrIYhOVkn1-2" vertex="1">
          <mxGeometry x="170" y="330" width="135" height="310" as="geometry" />
        </mxCell>
        <mxCell id="h5kZTqRJnjjrIYhOVkn1-26" value="  Private Subnet" style="fillColor=none;strokeColor=#007fff;dashed=1;verticalAlign=top;fontStyle=0;fontColor=#007fff;align=left;fontSize=14;strokeWidth=2;horizontal=0;" parent="h5kZTqRJnjjrIYhOVkn1-2" vertex="1">
          <mxGeometry x="320" y="330" width="480" height="310" as="geometry" />
        </mxCell>
        <mxCell id="h5kZTqRJnjjrIYhOVkn1-27" value="NAT Gateway" style="outlineConnect=0;fontColor=#232F3E;gradientColor=none;fillColor=#5A30B5;strokeColor=none;dashed=0;verticalLabelPosition=bottom;verticalAlign=top;align=center;html=1;fontSize=12;fontStyle=0;aspect=fixed;pointerEvents=1;shape=mxgraph.aws4.nat_gateway;labelBackgroundColor=#ffffff;flipH=1;" parent="h5kZTqRJnjjrIYhOVkn1-2" vertex="1">
          <mxGeometry x="200" y="455.75" width="50" height="50" as="geometry" />
        </mxCell>
        <mxCell id="h5kZTqRJnjjrIYhOVkn1-28" style="edgeStyle=orthogonalEdgeStyle;rounded=0;orthogonalLoop=1;jettySize=auto;html=1;strokeWidth=3;fontColor=#97D077;fillColor=#d5e8d4;strokeColor=#82b366;" parent="h5kZTqRJnjjrIYhOVkn1-2" source="h5kZTqRJnjjrIYhOVkn1-27" target="h5kZTqRJnjjrIYhOVkn1-24" edge="1">
          <mxGeometry relative="1" as="geometry" />
        </mxCell>
        <mxCell id="h5kZTqRJnjjrIYhOVkn1-29" value="" style="edgeStyle=orthogonalEdgeStyle;rounded=0;orthogonalLoop=1;jettySize=auto;html=1;strokeWidth=3;fontColor=#97D077;fillColor=#d5e8d4;strokeColor=#82b366;" parent="h5kZTqRJnjjrIYhOVkn1-2" source="h5kZTqRJnjjrIYhOVkn1-35" target="h5kZTqRJnjjrIYhOVkn1-50" edge="1">
          <mxGeometry relative="1" as="geometry">
            <mxPoint x="425" y="538.75" as="sourcePoint" />
            <Array as="points">
              <mxPoint x="445" y="490" />
              <mxPoint x="445" y="539" />
            </Array>
            <mxPoint x="470" y="539.0666666666666" as="targetPoint" />
          </mxGeometry>
        </mxCell>
        <mxCell id="h5kZTqRJnjjrIYhOVkn1-30" value="Cloud9&lt;br&gt;Dev IDE" style="sketch=0;points=[[0,0,0],[0.25,0,0],[0.5,0,0],[0.75,0,0],[1,0,0],[0,1,0],[0.25,1,0],[0.5,1,0],[0.75,1,0],[1,1,0],[0,0.25,0],[0,0.5,0],[0,0.75,0],[1,0.25,0],[1,0.5,0],[1,0.75,0]];outlineConnect=0;fontColor=#232F3E;gradientColor=#4D72F3;gradientDirection=north;fillColor=#3334B9;strokeColor=#ffffff;dashed=0;verticalLabelPosition=bottom;verticalAlign=top;align=center;html=1;fontSize=12;fontStyle=0;aspect=fixed;shape=mxgraph.aws4.resourceIcon;resIcon=mxgraph.aws4.cloud9;" parent="h5kZTqRJnjjrIYhOVkn1-2" vertex="1">
          <mxGeometry x="39" y="40" width="60" height="60" as="geometry" />
        </mxCell>
        <mxCell id="h5kZTqRJnjjrIYhOVkn1-31" value="" style="edgeStyle=orthogonalEdgeStyle;rounded=0;orthogonalLoop=1;jettySize=auto;html=1;fillColor=#d5e8d4;strokeColor=#82b366;strokeWidth=3;" parent="h5kZTqRJnjjrIYhOVkn1-2" source="h5kZTqRJnjjrIYhOVkn1-30" target="h5kZTqRJnjjrIYhOVkn1-7" edge="1">
          <mxGeometry relative="1" as="geometry" />
        </mxCell>
        <mxCell id="h5kZTqRJnjjrIYhOVkn1-33" style="edgeStyle=orthogonalEdgeStyle;rounded=0;orthogonalLoop=1;jettySize=auto;html=1;strokeWidth=3;fontColor=#000000;fillColor=#d5e8d4;strokeColor=#82b366;" parent="h5kZTqRJnjjrIYhOVkn1-2" source="h5kZTqRJnjjrIYhOVkn1-35" target="h5kZTqRJnjjrIYhOVkn1-27" edge="1">
          <mxGeometry relative="1" as="geometry" />
        </mxCell>
        <mxCell id="MZy-Dl2NcPqNSEi7gT8N-0" style="edgeStyle=orthogonalEdgeStyle;rounded=0;orthogonalLoop=1;jettySize=auto;html=1;entryX=0.005;entryY=0.63;entryDx=0;entryDy=0;entryPerimeter=0;fillColor=#d5e8d4;strokeColor=#82b366;strokeWidth=3;" edge="1" parent="h5kZTqRJnjjrIYhOVkn1-2" source="h5kZTqRJnjjrIYhOVkn1-35" target="h5kZTqRJnjjrIYhOVkn1-36">
          <mxGeometry relative="1" as="geometry">
            <Array as="points">
              <mxPoint x="410" y="360" />
            </Array>
          </mxGeometry>
        </mxCell>
        <mxCell id="h5kZTqRJnjjrIYhOVkn1-35" value="Amazon EKS&lt;br&gt;Cluster" style="sketch=0;points=[[0,0,0],[0.25,0,0],[0.5,0,0],[0.75,0,0],[1,0,0],[0,1,0],[0.25,1,0],[0.5,1,0],[0.75,1,0],[1,1,0],[0,0.25,0],[0,0.5,0],[0,0.75,0],[1,0.25,0],[1,0.5,0],[1,0.75,0]];outlineConnect=0;fontColor=#232F3E;gradientColor=#F78E04;gradientDirection=north;fillColor=#D05C17;strokeColor=#ffffff;dashed=0;verticalLabelPosition=bottom;verticalAlign=top;align=center;html=1;fontSize=12;fontStyle=0;aspect=fixed;shape=mxgraph.aws4.resourceIcon;resIcon=mxgraph.aws4.eks;shadow=0;fillStyle=auto;strokeWidth=2;" parent="h5kZTqRJnjjrIYhOVkn1-2" vertex="1">
          <mxGeometry x="365" y="450.75" width="60" height="60" as="geometry" />
        </mxCell>
        <mxCell id="h5kZTqRJnjjrIYhOVkn1-36" value="aws-auth" style="sketch=0;html=1;dashed=0;whitespace=wrap;fillColor=#2875E2;strokeColor=#ffffff;points=[[0.005,0.63,0],[0.1,0.2,0],[0.9,0.2,0],[0.5,0,0],[0.995,0.63,0],[0.72,0.99,0],[0.5,1,0],[0.28,0.99,0]];verticalLabelPosition=bottom;align=center;verticalAlign=top;shape=mxgraph.kubernetes.icon;prIcon=cm;shadow=0;fillStyle=auto;strokeWidth=2;fontColor=#000000;" parent="h5kZTqRJnjjrIYhOVkn1-2" vertex="1">
          <mxGeometry x="475" y="330" width="50" height="48" as="geometry" />
        </mxCell>
        <mxCell id="h5kZTqRJnjjrIYhOVkn1-37" value="" style="edgeStyle=orthogonalEdgeStyle;rounded=0;orthogonalLoop=1;jettySize=auto;html=1;strokeWidth=3;fontColor=#000000;fillColor=#d5e8d4;strokeColor=#82b366;" parent="h5kZTqRJnjjrIYhOVkn1-2" source="h5kZTqRJnjjrIYhOVkn1-38" target="h5kZTqRJnjjrIYhOVkn1-35" edge="1">
          <mxGeometry relative="1" as="geometry" />
        </mxCell>
        <mxCell id="h5kZTqRJnjjrIYhOVkn1-38" value="AWS LB&lt;br&gt;Controller" style="sketch=0;html=1;dashed=0;whitespace=wrap;fillColor=#2875E2;strokeColor=#ffffff;points=[[0.005,0.63,0],[0.1,0.2,0],[0.9,0.2,0],[0.5,0,0],[0.995,0.63,0],[0.72,0.99,0],[0.5,1,0],[0.28,0.99,0]];verticalLabelPosition=bottom;align=center;verticalAlign=top;shape=mxgraph.kubernetes.icon;prIcon=svc;shadow=0;fillStyle=auto;strokeWidth=2;fontColor=#000000;" parent="h5kZTqRJnjjrIYhOVkn1-2" vertex="1">
          <mxGeometry x="370" y="549.5" width="50" height="48" as="geometry" />
        </mxCell>
        <mxCell id="h5kZTqRJnjjrIYhOVkn1-40" value="Service&lt;br&gt;&amp;nbsp;Account" style="sketch=0;html=1;dashed=0;whitespace=wrap;fillColor=#2875E2;strokeColor=#ffffff;points=[[0.005,0.63,0],[0.1,0.2,0],[0.9,0.2,0],[0.5,0,0],[0.995,0.63,0],[0.72,0.99,0],[0.5,1,0],[0.28,0.99,0]];verticalLabelPosition=bottom;align=center;verticalAlign=top;shape=mxgraph.kubernetes.icon;prIcon=sa;shadow=0;fillStyle=auto;strokeWidth=2;fontColor=#000000;" parent="h5kZTqRJnjjrIYhOVkn1-2" vertex="1">
          <mxGeometry x="597" y="360" width="50" height="48" as="geometry" />
        </mxCell>
        <mxCell id="h5kZTqRJnjjrIYhOVkn1-41" value="DB Secret" style="sketch=0;html=1;dashed=0;whitespace=wrap;fillColor=#2875E2;strokeColor=#ffffff;points=[[0.005,0.63,0],[0.1,0.2,0],[0.9,0.2,0],[0.5,0,0],[0.995,0.63,0],[0.72,0.99,0],[0.5,1,0],[0.28,0.99,0]];verticalLabelPosition=bottom;align=center;verticalAlign=top;shape=mxgraph.kubernetes.icon;prIcon=secret;shadow=0;fillStyle=auto;strokeWidth=2;fontColor=#000000;" parent="h5kZTqRJnjjrIYhOVkn1-2" vertex="1">
          <mxGeometry x="672" y="360" width="50" height="48" as="geometry" />
        </mxCell>
        <mxCell id="h5kZTqRJnjjrIYhOVkn1-42" value="external&amp;nbsp;&lt;br&gt;secrets" style="sketch=0;html=1;dashed=0;whitespace=wrap;fillColor=#2875E2;strokeColor=#ffffff;points=[[0.005,0.63,0],[0.1,0.2,0],[0.9,0.2,0],[0.5,0,0],[0.995,0.63,0],[0.72,0.99,0],[0.5,1,0],[0.28,0.99,0]];verticalLabelPosition=bottom;align=center;verticalAlign=top;shape=mxgraph.kubernetes.icon;prIcon=crd;shadow=0;fillStyle=auto;strokeWidth=2;fontColor=#000000;" parent="h5kZTqRJnjjrIYhOVkn1-2" vertex="1">
          <mxGeometry x="747" y="360" width="50" height="48" as="geometry" />
        </mxCell>
        <mxCell id="h5kZTqRJnjjrIYhOVkn1-43" value="" style="edgeStyle=orthogonalEdgeStyle;rounded=0;orthogonalLoop=1;jettySize=auto;html=1;strokeWidth=3;fontColor=#000000;fillColor=#d5e8d4;strokeColor=#82b366;" parent="h5kZTqRJnjjrIYhOVkn1-2" source="h5kZTqRJnjjrIYhOVkn1-40" target="h5kZTqRJnjjrIYhOVkn1-41" edge="1">
          <mxGeometry relative="1" as="geometry" />
        </mxCell>
        <mxCell id="h5kZTqRJnjjrIYhOVkn1-44" style="edgeStyle=orthogonalEdgeStyle;rounded=0;orthogonalLoop=1;jettySize=auto;html=1;strokeWidth=3;fontColor=#000000;fillColor=#d5e8d4;strokeColor=#82b366;" parent="h5kZTqRJnjjrIYhOVkn1-2" source="h5kZTqRJnjjrIYhOVkn1-41" target="h5kZTqRJnjjrIYhOVkn1-42" edge="1">
          <mxGeometry relative="1" as="geometry" />
        </mxCell>
        <mxCell id="h5kZTqRJnjjrIYhOVkn1-45" style="edgeStyle=orthogonalEdgeStyle;rounded=0;orthogonalLoop=1;jettySize=auto;html=1;strokeWidth=3;fontColor=#000000;fillColor=#d5e8d4;strokeColor=#82b366;" parent="h5kZTqRJnjjrIYhOVkn1-2" source="h5kZTqRJnjjrIYhOVkn1-46" target="h5kZTqRJnjjrIYhOVkn1-40" edge="1">
          <mxGeometry relative="1" as="geometry">
            <Array as="points">
              <mxPoint x="600" y="450" />
              <mxPoint x="622" y="450" />
            </Array>
          </mxGeometry>
        </mxCell>
        <mxCell id="h5kZTqRJnjjrIYhOVkn1-46" value="App &lt;br&gt;Container" style="sketch=0;outlineConnect=0;fontColor=#232F3E;gradientColor=none;fillColor=#D45B07;strokeColor=none;dashed=0;verticalLabelPosition=bottom;verticalAlign=top;align=center;html=1;fontSize=12;fontStyle=0;aspect=fixed;pointerEvents=1;shape=mxgraph.aws4.container_1;" parent="h5kZTqRJnjjrIYhOVkn1-2" vertex="1">
          <mxGeometry x="570" y="465" width="48" height="31" as="geometry" />
        </mxCell>
        <mxCell id="h5kZTqRJnjjrIYhOVkn1-47" value="Otel&amp;nbsp;&lt;br&gt;Sidecar" style="sketch=0;outlineConnect=0;fontColor=#232F3E;gradientColor=none;fillColor=#D45B07;strokeColor=none;dashed=0;verticalLabelPosition=bottom;verticalAlign=top;align=center;html=1;fontSize=12;fontStyle=0;aspect=fixed;pointerEvents=1;shape=mxgraph.aws4.container_1;" parent="h5kZTqRJnjjrIYhOVkn1-2" vertex="1">
          <mxGeometry x="570" y="569.75" width="48" height="31" as="geometry" />
        </mxCell>
        <mxCell id="h5kZTqRJnjjrIYhOVkn1-50" value="Managed&lt;br&gt;Node Group" style="sketch=0;points=[[0,0,0],[0.25,0,0],[0.5,0,0],[0.75,0,0],[1,0,0],[0,1,0],[0.25,1,0],[0.5,1,0],[0.75,1,0],[1,1,0],[0,0.25,0],[0,0.5,0],[0,0.75,0],[1,0.25,0],[1,0.5,0],[1,0.75,0]];outlineConnect=0;fontColor=#232F3E;gradientColor=#F78E04;gradientDirection=north;fillColor=#D05C17;strokeColor=#ffffff;dashed=0;verticalLabelPosition=bottom;verticalAlign=top;align=center;html=1;fontSize=12;fontStyle=0;aspect=fixed;shape=mxgraph.aws4.resourceIcon;resIcon=mxgraph.aws4.ec2;shadow=0;fillStyle=auto;strokeWidth=2;" parent="h5kZTqRJnjjrIYhOVkn1-2" vertex="1">
          <mxGeometry x="470" y="509.75" width="60" height="60" as="geometry" />
        </mxCell>
        <mxCell id="h5kZTqRJnjjrIYhOVkn1-51" style="edgeStyle=orthogonalEdgeStyle;rounded=0;orthogonalLoop=1;jettySize=auto;html=1;strokeWidth=3;fontColor=#000000;fillColor=#d5e8d4;strokeColor=#82b366;" parent="h5kZTqRJnjjrIYhOVkn1-2" source="h5kZTqRJnjjrIYhOVkn1-50" target="h5kZTqRJnjjrIYhOVkn1-47" edge="1">
          <mxGeometry relative="1" as="geometry">
            <mxPoint x="500" y="568.75" as="sourcePoint" />
            <mxPoint x="560" y="590" as="targetPoint" />
            <Array as="points">
              <mxPoint x="500" y="590" />
            </Array>
          </mxGeometry>
        </mxCell>
        <mxCell id="h5kZTqRJnjjrIYhOVkn1-52" style="edgeStyle=orthogonalEdgeStyle;rounded=0;orthogonalLoop=1;jettySize=auto;html=1;strokeWidth=3;fontColor=#000000;fillColor=#d5e8d4;strokeColor=#82b366;" parent="h5kZTqRJnjjrIYhOVkn1-2" source="h5kZTqRJnjjrIYhOVkn1-50" target="h5kZTqRJnjjrIYhOVkn1-46" edge="1">
          <mxGeometry relative="1" as="geometry">
            <mxPoint x="500" y="508.75" as="sourcePoint" />
            <Array as="points">
              <mxPoint x="500" y="481" />
            </Array>
          </mxGeometry>
        </mxCell>
        <mxCell id="9XweL_crkvtqbf3ITo7N-3" value="AWS CodeCommit" style="outlineConnect=0;fontColor=#232F3E;gradientColor=#4D72F3;gradientDirection=north;fillColor=#3334B9;strokeColor=#ffffff;dashed=0;verticalLabelPosition=bottom;verticalAlign=top;align=center;html=1;fontSize=12;fontStyle=0;aspect=fixed;shape=mxgraph.aws4.resourceIcon;resIcon=mxgraph.aws4.codecommit;" parent="h5kZTqRJnjjrIYhOVkn1-2" vertex="1">
          <mxGeometry x="207.5" y="170" width="60" height="60" as="geometry" />
        </mxCell>
        <mxCell id="9XweL_crkvtqbf3ITo7N-21" style="edgeStyle=orthogonalEdgeStyle;rounded=0;orthogonalLoop=1;jettySize=auto;html=1;strokeWidth=3;fontSize=15;fontColor=#82B366;fillColor=#d5e8d4;strokeColor=#82b366;" parent="h5kZTqRJnjjrIYhOVkn1-2" source="9XweL_crkvtqbf3ITo7N-17" target="9XweL_crkvtqbf3ITo7N-3" edge="1">
          <mxGeometry relative="1" as="geometry">
            <Array as="points">
              <mxPoint x="350" y="200" />
            </Array>
          </mxGeometry>
        </mxCell>
        <mxCell id="9XweL_crkvtqbf3ITo7N-22" style="edgeStyle=orthogonalEdgeStyle;rounded=0;orthogonalLoop=1;jettySize=auto;html=1;strokeWidth=3;fontSize=15;fontColor=#82B366;fillColor=#d5e8d4;strokeColor=#82b366;" parent="h5kZTqRJnjjrIYhOVkn1-2" source="9XweL_crkvtqbf3ITo7N-17" target="h5kZTqRJnjjrIYhOVkn1-11" edge="1">
          <mxGeometry relative="1" as="geometry">
            <Array as="points">
              <mxPoint x="380" y="200" />
              <mxPoint x="735" y="200" />
            </Array>
          </mxGeometry>
        </mxCell>
        <mxCell id="jZO9YHmOQc4Cwh7ffU6s-0" style="edgeStyle=orthogonalEdgeStyle;rounded=0;orthogonalLoop=1;jettySize=auto;html=1;entryX=0;entryY=0.25;entryDx=0;entryDy=0;entryPerimeter=0;fillColor=#d5e8d4;strokeColor=#82b366;strokeWidth=3;" edge="1" parent="h5kZTqRJnjjrIYhOVkn1-2" source="9XweL_crkvtqbf3ITo7N-17" target="h5kZTqRJnjjrIYhOVkn1-35">
          <mxGeometry relative="1" as="geometry" />
        </mxCell>
        <mxCell id="9XweL_crkvtqbf3ITo7N-17" value="GitOps Flux" style="shape=image;verticalLabelPosition=bottom;labelBackgroundColor=default;verticalAlign=top;aspect=fixed;imageAspect=0;image=data:image/png,iVBORw0KGgoAAAANSUhEUgAAAGUAAACOCAYAAAAo/8aOAAAAAXNSR0IArs4c6QAAAIRlWElmTU0AKgAAAAgABQESAAMAAAABAAEAAAEaAAUAAAABAAAASgEbAAUAAAABAAAAUgEoAAMAAAABAAIAAIdpAAQAAAABAAAAWgAAAAAAAABIAAAAAQAAAEgAAAABAAOgAQADAAAAAQABAACgAgAEAAAAAQAAAGWgAwAEAAAAAQAAAI4AAAAAOUOnfwAAAAlwSFlzAAALEwAACxMBAJqcGAAAHYhJREFUeAHtXQl8FEXWr+qZTBLCpQioJBAOLwI5WC9gVWBFZV0VWfEAVvHjTsKx+qGyrsq3qwKLuqvkggV0VRBBFxUU+Qgg+MG6KpkQiIqIHEkU8CAk5CCZ6fr+rzMTeu6eSc9MZ3/pH2G663j16r16Ve9VvarirBU/KWNLLZZunbIZ45M5F8lC8COMieUNJ0/nlK5LaWitVeOtFfHUGeXXmkx8BSrQ370OQrBSuywml+QnfuIe1xq+Wx1TUn+3N8HcocszQuIzgbzki8iCMZnLYomt+qfHS15Lq/GVzojhrYopadnHbpaEaSnnrJdWYkJqjsrcPm1vTs/NWvNEO12rYMrlWeVd4jl7gTN+f6gEE0y8WifYQ1/lJv4UKoxI5TM8UwZlVtwjOHsJ0tGtpUSB1Jzkgs0qyuvxZkthhTO/YZmSOrk80RTL8jjnt+lNACHEBtkuZuwtSKrQG7Ye8HwOlHoADxEGH5RZPs0cx0vDwRDCieCazNIXGdnl0+kzRDzDls1QCKVllV9q4nw5antd2GrsBhhd2k6ZiSl7cxO/douK2qcxmDJsuzmjf7//Rgt+Cs04LuLUEKIeXdr/WL/45jn20XBbxMt3KzDqTEnNOjLIxMwrwJB0N9wi/gnGFNuZbVJJbnJRxAtXFRg1piSOLYu/oLs0XxLsYfTqJhVO0X0VzC5z9vyPJ+T55euS6qKBTFSYkp5dNowL/ndIR79oVFpLmZCabwQXU4pzkj7Skl7PNBFlSp+phzp1tsQtxuCKCUTjaT3uhAWeAngur2yon/vtsr6n3ePD9R0xpqTPODaaS1IupOPicFUmXHAhNd8JWc4qzu/5TrjKUMMNO1NSMg9faOExS8CMu9QFt8Z3MOetBtE4szSv9/Fw4h9WpqRnlk+E+L8AhpwXzkpEEjYYcwr1ebgop8fL4So3LExJnXyktynOvAzDxo3hQjzacDHcFNrrbVNLlicf1hsXfZkydq1pUNchs2AAPo1hvJ3eyBoOnmC1YM4T1pO7X2Tr7rbrhZ9uTBmYXTbQLLASyPlVeiHXWuCgS/vMxsWkfTlJ+/TAucVM6TfqYGyHvvGPY0r8MUhIjB5IBQPjhoGx7MaMeCVLobWO7dh3Npjs+qUVohFLDAurD9U9882mS1qERIuYkp5ZMYT0ePxdoV/ttEO6PCmGTRvVwSXD0k3V7KuyRpewSH7AtvmS7LDivB67Qy03JKakZJa2t0idF6DQTACIyvS/CaU+clcn1q2z6wzND6ftbNG605grCZUkLc9HRifG1NwGuXJeaV7KmWAhBk3QjBllo2KlzqVgRna0GEKVvGFgnAdDKLxrJ5MSR+/RetBz4B/LJjoRvYLFA3m1PZdOPXBB+5j2f0MLGK8tR/hSdWzH2by7O7M4i3f06xsEW7C2klVBNzLEI9iqM41n5ny97LIfteCjSVIwgTgODPnSCAyhSv3m6nY+GULxxCxKY5gHDZnoR3TUgpP3pubIOSCzIimGiwKoub/WAiwSaXp1M7HZd3RE/+AXdQY1lb34bjU7ejLqa1YuZAFeH0BNm74/r0eZS4Tqw5ekcGhWmWhwtE5uGIYQ3mOGJgRkCKUjpo0Z2g7CbayH6El0Tc+qyCI0vWHnEThw6uHLzRbLckQM9ZYhmmHXXGZh997QPigU3txZwz75qkVmQ1DlBZMYI94uW0PD5H3Len+lzndOUqZ+HjMou/xxsyWm2IgMoXHi1hDGiV9fFe93/FETI9LvRGeid0ZW+R8Z6O8sX5GUtKyjKRIzrYZopTojjPY7enC7kFXdHfvq2Tv/qjValVzwwVhTYrfL40sKeu7nqTMqLjOb2KdI0dEllYE+unWWFEPRJCltKGjM4IHPFr91mp2ojKJFqQ3rKpudXS2ZJUaWuWEZQnUZMySBhcoQyk957wSMVvB0hIAsxJgiRhgZ2YHJMeyyxObuNmRUCQbBMvwjxPBzA70BsUWrYXdcq58RSLAIptEfMIVvMyqSw1PjWJeO+lGRYI1Ii7wDZlD05Xy7ZJPZPGSqCipjBBJ3TpCa10n0LO5X6fGMYBv0oYH+Makkv8cBu7ANIZXMSIjefm08s5hD07b81YNgEmyjPUR/m80+lPihNJm9ub1KrY3Hr0TEE1gKiLr52+dCM8voGxs2uhHsvheZwwY/GMBEb6I70Z9sFMrr0RSNMM0y+44OLLl7eDWlIycalQnLYAiod1pf0ywezcUxD3MdJswyIUYLwDbX9Va9MfMC7+IuHmh5SdWyoB4RKMMnhoJVw4ydV5zbIw9pPBZ9fI14AhlysVaUgjzv+wQepoiDFeFfY//6u/CX4Y086Ko+ILoSfb0xhPJ4dF/eAKVnlo2XuESrjhd4i9c7rF0sBuNr2rGeWDuRnOsmwPS89lLQg3+DTbBTZ9AuHe1RxjrLsR/s7L1PalntWY9GqndVzsET7EdZyHOK85JWnQv0/qaJKZSVloMTYtq/CBppWj3zXlzLQmmmePywBDYg2aIJ0P6jDWzV9hpGy8PRfNAOVtc0npmtdTlYM1OclSJHAG6SCvDd0xkWyd94MOZPv+sMy9w/6ja7YE++VsnqoskQIcqwn3J6cW7SB8HQyNeY4hOGNT9p01m5MoUJORftD/1CZB8i8pn6wC2f0kSLIYqLEehTU3cGY0dwDCFqhqTmOHyZsrFkvBrjTOSd8QLzpHkMiWyTUUr7Sthtk60FvXaFWnbQkqIuiLwAq7+tzYBG8TQ8FaKjzqgRiuY7ua2CDlWHatOLW8AQqkJIkqKuu8Nv9gk4eK81C9bm4K0mTojvLZIUdZnkcY4tAYPRWh6G+mnstVc14i15p60QqC/VWy+Pe0KnxZLiUifs0bAy9gI2Da3/j980JMRWm2yfui+/17cuNNDhQ1+mOBBy7G4aOSi74kG0pOfhkPEft73Ompv4sg709wpCt+7LG3TaF9h4tuEKMOZtb/GtLYzqgY2o/cO535FoEhZJURN7//I+J/B9V2vesg39+nvZLmdGast2WCVFzRyq0OnGs/1hWC1XjCt1pEHfCU/Ct7Lh7BWRYgiRIuySoqa349SGKfA+X4WzHAx/DAjcxabuzUvcrq5DJN4jJinqytB5Jz+cFKmYqlkM9Vm3XbXqMkJ+J3yAF+EXDYYQ3hGVFDWh6ISgcuyQw9FSa0zCOEdLcdk+uSi/1x41rpF+j4qkqCtJZ2tZSw9ehXWOP6AHr1fHRewd5VL5hEe0GUJ1jjpTFMLjNLri3MQF6MfS8P2xEha5/z6mcql8I5yKR9WOWvfljeaOcxxvwIGb07CXcxHShNPHuQrK1aPWnMSlKEfLvLM3lMMSZgxJca2aAKEKbPUiBfroBtcofb4ILsGncgDRUAyhGhpKUtQkL1meCD2A3a73YdGAORtTJGvUZRnt3YiS4kIjOm27jgkYneI1l4ggPyg/wbHm9jA0Q6hahpUUNc0d59PfjwsIVtEFBIjrpY739w6LvOkCgtzWcwGB4SVFTXC62cFe9WOK2cwq1eHe3nEMCISDvUTpW9ONEFQX/y4h3mprgLDNn9YmYXf8G+3juNcdzHDmq9594OyElXO6vmcAdINGoVUyxVnLzf+uGX2mQSxKiJP6QoWSjp+y1X5Z1rjm/Q+PZ7bm65+c9Wv7baNAGwXaKNBGgTYKtFGgjQJtFGijQBsF2ijQRoEIUGBQVsU/M7KPtbpbKFrV3FfQfMQ5ObjE6Euj3lLnqz6teprFV6Wc4XCbbV7AwssuLjdOKcpL/tIZb9RfQ0tKRta3vTKyKnagpf+J4Ya7YImIaeKn8VdB+dD6hgrJXDwou2w+XZkeLKxIpjespGRklt8Ft46/Y62+MxEE0/CfM5uYbF2auDcoAik3VQz9NeNiAjhzG9gTD1hfYrfVlJZu7gkKjyASG5IpkA7ahTzLox6Ko5zIKcpLnOMRpyGAjoOPkTreDkbfjpX5m/D3ZvXpuke/WXWJoQ4MMiZTppWn4X4JeOrzvt5oDa/3luON7jCt/yXX4dC8DJnZN9P5NN7KikZYyysXJqzpprtOlrh8IHifexG6MMUdqIG+DTvQkzO4NafHOLsQ90Bz+sFANAs7KhGXFOWaD97pOdTsImxPm4jtaacC1XLgjKPnxUimhbh0cTIQlrRKCs77PQDYG+E9v3HvFwc/NooHZKD6RpQpTTehSi9jEE8mxMjThMnyAzgwYUcgRCk+Qxlr+F/AlJu1pFfbKSiMLs/cDKnbaLfXby4p6HdSC4xopIkYU9KzKxbhiqi5YIhLmWAMGXg5pxvrn9D71lEXpqioS2VyJujAs63wI95aU1m300gamAuBVHjr/kq3aZt5zHoA9nqmC40buHX08eK8FSsYm6/L8SK+mOJROVK1ufhMltlW/G2rqm/cfeSV3tHZAQDkIsYUIkTGgwe7snbtVkFaRnoQxhEAC7wYNHqkOLfXFl9ptIZrZoo7QNqSwdlujEUKk0p+3P2ZnlcGuhfn/h1RpjgK5xiAf49KP4uezOdBkehiPmdcXmjNWQHpCk1yBmWW9UM/hatGpFHorobh/o5Qz7+tAj7bOccBajLf5O/uE3cCh/IdDaYoeDouPViGPfZD/CIuxAGZ8SWspmFV8Su9A3pG+oJ18dTP23UzXThcksQoxqVfId3lvtIGDBdiH4al9ULw9cV5icUB0weZQFemQHXtY5ZMy6BX7bLmJs0HLjSI+3s4rgeZgmH3GUiO/1P3lF1e/G3YLSv02ItI6yzczkfIEh8BiR2BLrWXP0R9x4lDuKruIdhUunlj6sSU+VJ69qSZkpCeBXGVc9AxNmyorqyboEWr6Tf+YMcO57Wbx4WYo6WL0Wqn+CakZ4zSoLg0HFIEBonhGG4v8kzlOwSuy6/b7fZZWuwu31CaYnRhCsaIN9AN3eteGBjzDUT8Aa0XUTquSZ+LljvdyVx3mPQdDqa4l9N0FLB5JBf8JkjCMEhS4CuOBDuOMWxaS6VGH6YoS67SByAm7Vl0edB/yVyWX/i51vaEVjWz6bzKhOkgRKa3FhsJprhUArcApVu6w5kcCoMQo9EAL3WJd/toqdTowhTCyTF98goQ/q0bjo5PcYjJ4pGivKR/eo/3EgpipMVceKfE+GTE3ggmKfhqZQqWAI4ILj5GuTtlIe2kI8u9lBJ00KDMI1fI3IylZn4ncLrSK4AWSI1uTHEgFlDdhWq5E+eczN1bkPSp18r4CKRVSCZi7gPTxxXlJqb6SOYS7G6noOyT0D2w+1jsRLe6szhvOc73D03ddhakMEiKmQgJmgDcPJw0SGoa68Ts0hVJPzvzBPrVxJSUqYd6WmLilnIhb0dL/0sgoKnTjw0wmSQYib7v+IJKWQjr+Vk9NClf+LgzxSMd5sPQve4Ak7ba7WKb86x5j3RaArDCmXHB4Ju4JM2GPLvOzQUpNYGYQi1/OsR0EQrqQLhh/uMvxTk9HsOrX3WX1sEt3TrNR76Hkd/fmvgeHKJcIFf9/EbJa2k1WuqvNU1AprgBQoVOoFZbmbBvtAnxYaia1KAZZamyic9Ft0vKT7NvgVap8csU2BBrMdCOdcMdeIt/2k//dL8WIjZZ1fwFSA3Wx/0+VUIWq+1CXl2S3/P/kNIv0/1CckTC4eIjTIJeo0XN9oCHuR4gsAva1Aa5vvFtx8FyHsn8BSg9jCXuSeAwEY3TpKTVIDV+mUJWt4mbMAflTWfHLKtsu1ury05a5rGbJG56xufAqKodmF4Olqy1y/I7JT9+srsl804ksTFd2l/FTKbrIbHXo3yaQeioKk7TK9T73RiHVtXazqzVehK3E3DGtKP9cbr1S2iYNJPQ9OCS57P18ixvY41fplDuppYuFaIyvRzgmn/Qkmowp/RQUU4irHhtD3b43mxipseR+jpNOYT4Ca31fVj9m3A0eWGwBPEoA31/arer0yRmBpMYrHl2PSSpk0c6XwF01C1jm6DRFVjzV2wORlGANngvJOYllNlVAQ+pgX8ATvju+a66uIBMocQDJn/b3RJreRfIX6PO7HynQdtmt08L5pBLHDQ9hEliBhAYixbsc2LSWQb9QnvC4iMrgkrsXQ1VJ9b6DialdRn8C0liI1C/m9Gaf4mszeOAXzBCfAuk/nrcdmLld8uu1HTCLM2U84R21IhHN8N2kxpNTKHMyRMPx52fYFkOTo9vBqZ+wdwUWvRijDWLtIw1zqyXZ5V3wWVMDwAR9Lt8oDPc369WO8UfDF9x5LDRISb2Zjgv/AY4wV+Md/GVtjmcpFmI5+zVPy/RWveM7LKZmC14HvBjFDg01jAxAadhbMVt2seu4lyaac1dPlGLKOLajim4PuMlAPM6DQ7RPgEL/umqw/V/dxwk3Yx7oBdH33sfGH8PpOcSX+nDyRSXMuGGlJ7S7yaJSePQ4EaDSX5v8CQ7CPX/U/HJXQVaxkFotoMxXr8D6e9G5YIpDdBvh3J4pn8IItwMMXylKHf5JC2McRDvFYj6VS6VUH0QcwAzp46xfMeJEarYwK9klOEu09swQUha22Dg2KS94EMrUwZllR9C49mKmeXCusaabS0Zj5Spf3N3WPA8C38gpr9H7If6O5NOAPSXiuJwhnNvc1wM3RqhLCWAMZtgh1RUg1OOyTaxrqjh+Hi27MrGQMCY4g46+GEhSU/6b0GiDi3oFY6BsSg/CRZ08A95s5hN0giMKCNR1khY9H21QFHbKTQeoS1+jpa5kcu293HYWhFgICz4h3oXaJKzkf3u5u7HDYxj/MOhoPVzA/keOOb6toDZ6ch3hozDn/GhOsxZbGu02+/SajilTi5PNMWx50Cwu8Fc0Mz3g363BGR4tYE1rirN633cd0p9YtRM8YQovkcYFqrkN625K2EXBT/doux9EabHsL4/1Y+ycswu28bvzetFtpfPp8mNylyIVnIph4G1BgDvUacG8b7mwjZaqw1CeYEgNCJpAWDdqIbl9b3JUWEHynkXjtbvFRf0PuI1XQsD/TPlHHDg8R0MvHXCzl4O2oEcYAZkViThrp0FIOg4rw2zqb5PwXR4Fsl9SqfDh+GPPH364WRutnyKJt6kOztwRc4aIJuFY/z+cQ79wG80eAHWH7AGcatXBL2AQDklENsNnMv/a208+S9N3acXOO5Bnr2Aewov30L8G7gvO9H4/Rqtaq4TilJ3zqDu8gHOMPUv6vmWveqniYE0NKW7cQw2RHwPgw6A3obzWmawzmvKPfeSPBMD9e8AV7MFrfSpXOzAQLlFsrPtGIf2Ib/P1qWutOf7fClt+qQrTWY+Etb4TWgkQ5BGkw2CIahSyCy31lbzt6AUBFp7MV/0B9g9f/RR1h5RUzvK+vIlPl1xFaY4KsPpbkcELATyrqts0MNxGum8UHyyEseWxXftSgtDpgegVtJAHZz/cpNFvwN8+chuE9sxk1sKfENiUvrEw515OxMcJ0ywQcStGKQDW/K4jkPmYiln8nPWnJ7fOWgV8IekBhKzGrRMdk8Mhh+E9jvSmtvnqHscfYNGrk/zND1nt7jGgBJw+8EU96MlBYnb3OO0fNPAKJhpHNYe7gRBrkXhwTGICsHVfKjUDnQx27nNtt26tNcXWsp2T9Nv1MHY9n1ib0FjofEUe1b82yAol+5KWXiqtnGx1hXUlEll51vi+Ztex1nB1hfl9hjjjhd9ezDFmQg7qe4Hyf4KgOc7w5y/IEohs/NF1vwehc6wYH9p6sYcG3MbDFGabhgBVGDYB/+AUN+hFoUgWiFubNgSilanbCZiHe+TJGkaMPiFPyzQMI9iNXNucU7iOn/pmuNonaXbkCXQcGcoYYrksaeK93/9N18O5z6ZQgCIcDGxllwA9LrEC+bsBTGex2XEa1oyOFOr7dAn/peY2IL1zND/s3SIvV/cmiutekE+6tb24G+DbGcb9hb0sKqiNb2Se62Jmcl5YywwaDZY3TOjqE2yTUzBCqqyp9I93v0bc31PcUlcI2yNmYG0TU0Vx0zxGAzYuUDyQvfCmr7F9xhIX5WZ7TU9dkQpxpQ5YRhcfYYJLg0Hkv29lxsgFPcsgktr7cy2mk4KD5DaJXrA1GN9LTHSIwh8EF1t0/yUSwrqSaEMMDZVs9S45ff1qYkplLnJuDG9AAQn+gKmhAtWBPeVV+V6joUh5Rhbv8m1RKZO/6YbN8UNgxRhJpem233Pi/mEB09LSNIqJskrghmwaemCSdJiwD03q+tWCLrQ/IaTp+fodRqfZqY48XAsVsHd1HN9xZlG9bsHhHgPSL+np3unMotgcTCI8+Eoz6snvwoP9StWesU7GBdytcxNOTMqe2uYlOtLaiExu+y2ujHBmg5O+OrfoJlCmRV3IqnzAsgvJue09f0gBPW9hfjdYmtoLHTcQKTGJeR3pTUzdgu6uluDc+QW+7Hm+2cc506DNo1Hfh8a+zr2ifszyoHfgRfNEesrGGduKV6adNAvoACRITHFCTNtekUGHKanAr17wZvOznBNv4qTNNRaIe+o5XxHKDPJ3sqh2dzulotuRH8/Fo4LtyNNYMMVuEDfnw9PnfVIH5A56dOPDuUm8+tokMnuOKDcV3Fc+wPu4cF8t4gpzoKUBbB2ljtgHE4EwJGQHZ9aizOP+pe0JrTw/bA94Oggf3TGVrszKCtaDUz1rtgiybGjJJM0DqQe7WvAVmXZI9tss7UceqAoI5aEt9AYb6D86AFOoYw51rzEV1XwQnrVhSnqkmklEatfv1HsDzpAwOHwrU4T6F3FJEgSK6w6XbtDi6O4P7ikLJhMsQ9CvZ8Cm8jv1D8I/I+GevGQN6cGlzKwCJaRcgkW/Fj3BrkxKxQbyQWe40N3pqgLUaZYuksj0YxodmAkCNJPHR/EOw3On4GYH7Z0LQRl8rSsstEmLj2Od5+GIvqwE8IOpwZc8BYEnrokDStT3DGkGWkmmUdKkjJBeAP6ZGUZ1D1dwG9lPVv+AIR7u7jxxJZQDVcoCLegS5uPP68OIYQHfNEKfvhBPETXVQXES6cEEWWKO860rCxM5mFQFoZhPBkGZFyWD9zTe/umvhz53rVzec3enJVbQlisooU++AGzRRCii7yVgTDr2Yb60aXL+h7zEa9rcFSZ4lYTDh/kFEyzD+dMGoGxn5znPObd3PK4fx6Df/JKnIO/Mth9iZf911cdEuISnsTMBe3H9FBUIJUwOntMdi8wHN9GYopb/WgtZEqaZMKuKo5tEIwNQ0vWNGkJAmI5hm1A57MILjv/cgPs9zMt8+gvTZJ5FRI1GaQ0Ky3ss6x5Pd/wm1HHSAMzxbWWTWq3mebCRqGroSkPTVY8NLmdONViIU612OQK0feXsu7SPqZASVFTN9PfgpRvKKHHtBqmuFexySfARLPX8BFjvd3jvXx/jKVybBjtCY8WYz9RZQrNCHAJC0wSszbIldtK81LOhEAunjGj7Hou8YlQFu6CFLmumqoAkv2DLu112S7maZ1yV2WP2GtUmUK1dPg8LQEivwXFdsGm2QyD8YNQfMRol3HHTvGTsC4zC8xJ9klFwarhWvR7a17SCp9pohgRdaY4605Xo0uSKR+DumPNRtkjuR7XOK0LdiseOQqmdx8yBr66T4E5Kc4yPH6F2HhWNE7RyxL3gB9igGGYQvjTmnZMPH8RE4kT1PVBrwNHA/66/Wzja8Ft3pkvZWROnsAkPh8V7a2G6XxHl7YEN9rNcn4b4ddQTHESBHc73ob1jgJMy1zsDKPfpjGBbYY05VtP7HpfixM15VO2+nXt9Chmsx+H7RPbBEtUyIxNx7T9Rvo20mNIphCBSC2VEmL+iimQid4IhvHnMPyynqusbVip1buEfNFMEpjN2NdVlXVzWzrJ6Q0vPcIMyxRn5aBZjWImvgwtPNEZpv6F9JzEvP/iyjMNOVqZo85vxHfJiEipcSKjr/pUHe4RZsvV4c53DOTdUInF57e3HFDcoth8w9fJibuvX8NLihrx9KyjIyVuJub4tOahFHzK7WJKKCq1uqxovreqVkWn5dXUVg+g6XTHoO9BO3RzVzOTtIf8rDwiW0lAq2IK0fTAysurseQ6A77Nv8K0vddNSFAC/g3tLWITiHrzulV1X56VxzljmZPuw9LzExjse8OWOYgNPDnWnOXYjhD8JiBP+NEJ+X/9IZsQQp1JxwAAAABJRU5ErkJggg==;" parent="h5kZTqRJnjjrIYhOVkn1-2" vertex="1">
          <mxGeometry x="337" y="334" width="56.9" height="80" as="geometry" />
        </mxCell>
        <mxCell id="h5kZTqRJnjjrIYhOVkn1-53" value="&lt;font style=&quot;font-size: 15px;&quot;&gt;Source&lt;br&gt;Update&lt;/font&gt;" style="edgeStyle=orthogonalEdgeStyle;rounded=0;orthogonalLoop=1;jettySize=auto;html=1;strokeWidth=3;fontColor=#97D077;fillColor=#d5e8d4;strokeColor=#82b366;" parent="h5kZTqRJnjjrIYhOVkn1-1" source="h5kZTqRJnjjrIYhOVkn1-55" target="h5kZTqRJnjjrIYhOVkn1-30" edge="1">
          <mxGeometry relative="1" as="geometry" />
        </mxCell>
        <mxCell id="9XweL_crkvtqbf3ITo7N-11" style="edgeStyle=orthogonalEdgeStyle;rounded=0;orthogonalLoop=1;jettySize=auto;html=1;strokeWidth=3;fontColor=#82B366;fillColor=#d5e8d4;strokeColor=#82b366;" parent="h5kZTqRJnjjrIYhOVkn1-1" source="h5kZTqRJnjjrIYhOVkn1-55" target="9XweL_crkvtqbf3ITo7N-3" edge="1">
          <mxGeometry relative="1" as="geometry">
            <mxPoint x="90" y="170" as="targetPoint" />
            <Array as="points">
              <mxPoint x="80" y="240" />
            </Array>
          </mxGeometry>
        </mxCell>
        <mxCell id="9XweL_crkvtqbf3ITo7N-12" value="&lt;font style=&quot;font-size: 15px;&quot;&gt;Deployment Update&lt;/font&gt;" style="edgeLabel;html=1;align=center;verticalAlign=middle;resizable=0;points=[];fontColor=#82B366;" parent="9XweL_crkvtqbf3ITo7N-11" vertex="1" connectable="0">
          <mxGeometry x="-0.0609" y="-2" relative="1" as="geometry">
            <mxPoint as="offset" />
          </mxGeometry>
        </mxCell>
        <mxCell id="h5kZTqRJnjjrIYhOVkn1-55" value="Dev" style="outlineConnect=0;fillColor=#009900;strokeColor=#009900;dashed=0;verticalLabelPosition=bottom;verticalAlign=top;align=center;html=1;fontSize=12;fontStyle=0;aspect=fixed;pointerEvents=1;shape=mxgraph.aws4.user;fontColor=#009900;" parent="h5kZTqRJnjjrIYhOVkn1-1" vertex="1">
          <mxGeometry x="64.99999999999999" y="95" width="30" height="30" as="geometry" />
        </mxCell>
        <mxCell id="h5kZTqRJnjjrIYhOVkn1-56" value="" style="edgeStyle=orthogonalEdgeStyle;rounded=0;orthogonalLoop=1;jettySize=auto;html=1;strokeWidth=3;fontColor=#97D077;fillColor=#d5e8d4;strokeColor=#82b366;" parent="h5kZTqRJnjjrIYhOVkn1-1" source="h5kZTqRJnjjrIYhOVkn1-57" target="h5kZTqRJnjjrIYhOVkn1-22" edge="1">
          <mxGeometry relative="1" as="geometry" />
        </mxCell>
        <mxCell id="h5kZTqRJnjjrIYhOVkn1-57" value="Test" style="outlineConnect=0;fillColor=#82B366;strokeColor=#82B366;dashed=0;verticalLabelPosition=bottom;verticalAlign=top;align=center;html=1;fontSize=12;fontStyle=0;aspect=fixed;pointerEvents=1;shape=mxgraph.aws4.user;fontColor=#009900;" parent="h5kZTqRJnjjrIYhOVkn1-1" vertex="1">
          <mxGeometry x="65.0000000000001" y="604.5" width="30" height="30" as="geometry" />
        </mxCell>
        <mxCell id="9XweL_crkvtqbf3ITo7N-9" style="edgeStyle=orthogonalEdgeStyle;rounded=0;orthogonalLoop=1;jettySize=auto;html=1;entryX=0;entryY=0.5;entryDx=0;entryDy=0;strokeWidth=3;fillColor=#d5e8d4;strokeColor=#82b366;" parent="h5kZTqRJnjjrIYhOVkn1-1" source="h5kZTqRJnjjrIYhOVkn1-59" target="h5kZTqRJnjjrIYhOVkn1-2" edge="1">
          <mxGeometry relative="1" as="geometry" />
        </mxCell>
        <mxCell id="h5kZTqRJnjjrIYhOVkn1-59" value="CDK" style="sketch=0;points=[[0,0,0],[0.25,0,0],[0.5,0,0],[0.75,0,0],[1,0,0],[0,1,0],[0.25,1,0],[0.5,1,0],[0.75,1,0],[1,1,0],[0,0.25,0],[0,0.5,0],[0,0.75,0],[1,0.25,0],[1,0.5,0],[1,0.75,0]];outlineConnect=0;fontColor=#232F3E;gradientColor=#4D72F3;gradientDirection=north;fillColor=#3334B9;strokeColor=#ffffff;dashed=0;verticalLabelPosition=bottom;verticalAlign=top;align=center;html=1;fontSize=12;fontStyle=0;aspect=fixed;shape=mxgraph.aws4.resourceIcon;resIcon=mxgraph.aws4.cloud_development_kit;" parent="h5kZTqRJnjjrIYhOVkn1-1" vertex="1">
          <mxGeometry x="50" y="390" width="60" height="60" as="geometry" />
        </mxCell>
        <mxCell id="h5kZTqRJnjjrIYhOVkn1-61" value="X-Ray Traces" style="sketch=0;points=[[0,0,0],[0.25,0,0],[0.5,0,0],[0.75,0,0],[1,0,0],[0,1,0],[0.25,1,0],[0.5,1,0],[0.75,1,0],[1,1,0],[0,0.25,0],[0,0.5,0],[0,0.75,0],[1,0.25,0],[1,0.5,0],[1,0.75,0]];outlineConnect=0;fontColor=#232F3E;gradientColor=#4D72F3;gradientDirection=north;fillColor=#3334B9;strokeColor=#ffffff;dashed=0;verticalLabelPosition=bottom;verticalAlign=top;align=center;html=1;fontSize=12;fontStyle=0;aspect=fixed;shape=mxgraph.aws4.resourceIcon;resIcon=mxgraph.aws4.xray;" parent="h5kZTqRJnjjrIYhOVkn1-1" vertex="1">
          <mxGeometry x="1030" y="639.75" width="60" height="60" as="geometry" />
        </mxCell>
        <mxCell id="h5kZTqRJnjjrIYhOVkn1-62" value="CloudWatch Logs" style="sketch=0;points=[[0,0,0],[0.25,0,0],[0.5,0,0],[0.75,0,0],[1,0,0],[0,1,0],[0.25,1,0],[0.5,1,0],[0.75,1,0],[1,1,0],[0,0.25,0],[0,0.5,0],[0,0.75,0],[1,0.25,0],[1,0.5,0],[1,0.75,0]];points=[[0,0,0],[0.25,0,0],[0.5,0,0],[0.75,0,0],[1,0,0],[0,1,0],[0.25,1,0],[0.5,1,0],[0.75,1,0],[1,1,0],[0,0.25,0],[0,0.5,0],[0,0.75,0],[1,0.25,0],[1,0.5,0],[1,0.75,0]];outlineConnect=0;fontColor=#232F3E;gradientColor=#F34482;gradientDirection=north;fillColor=#BC1356;strokeColor=#ffffff;dashed=0;verticalLabelPosition=bottom;verticalAlign=top;align=center;html=1;fontSize=12;fontStyle=0;aspect=fixed;shape=mxgraph.aws4.resourceIcon;resIcon=mxgraph.aws4.cloudwatch_2;" parent="h5kZTqRJnjjrIYhOVkn1-1" vertex="1">
          <mxGeometry x="1030" y="549.75" width="60" height="60" as="geometry" />
        </mxCell>
        <mxCell id="h5kZTqRJnjjrIYhOVkn1-63" value="SecretManager" style="sketch=0;points=[[0,0,0],[0.25,0,0],[0.5,0,0],[0.75,0,0],[1,0,0],[0,1,0],[0.25,1,0],[0.5,1,0],[0.75,1,0],[1,1,0],[0,0.25,0],[0,0.5,0],[0,0.75,0],[1,0.25,0],[1,0.5,0],[1,0.75,0]];outlineConnect=0;fontColor=#232F3E;gradientColor=#F54749;gradientDirection=north;fillColor=#C7131F;strokeColor=#ffffff;dashed=0;verticalLabelPosition=bottom;verticalAlign=top;align=center;html=1;fontSize=12;fontStyle=0;aspect=fixed;shape=mxgraph.aws4.resourceIcon;resIcon=mxgraph.aws4.secrets_manager;" parent="h5kZTqRJnjjrIYhOVkn1-1" vertex="1">
          <mxGeometry x="1030" y="470" width="60" height="60" as="geometry" />
        </mxCell>
        <mxCell id="h5kZTqRJnjjrIYhOVkn1-64" value="IAM" style="sketch=0;points=[[0,0,0],[0.25,0,0],[0.5,0,0],[0.75,0,0],[1,0,0],[0,1,0],[0.25,1,0],[0.5,1,0],[0.75,1,0],[1,1,0],[0,0.25,0],[0,0.5,0],[0,0.75,0],[1,0.25,0],[1,0.5,0],[1,0.75,0]];outlineConnect=0;fontColor=#232F3E;gradientColor=#F54749;gradientDirection=north;fillColor=#C7131F;strokeColor=#ffffff;dashed=0;verticalLabelPosition=bottom;verticalAlign=top;align=center;html=1;fontSize=12;fontStyle=0;aspect=fixed;shape=mxgraph.aws4.resourceIcon;resIcon=mxgraph.aws4.identity_and_access_management;shadow=0;fillStyle=auto;strokeWidth=2;" parent="h5kZTqRJnjjrIYhOVkn1-1" vertex="1">
          <mxGeometry x="1030" y="300" width="60" height="60" as="geometry" />
        </mxCell>
        <mxCell id="h5kZTqRJnjjrIYhOVkn1-65" value="EventBridge" style="sketch=0;points=[[0,0,0],[0.25,0,0],[0.5,0,0],[0.75,0,0],[1,0,0],[0,1,0],[0.25,1,0],[0.5,1,0],[0.75,1,0],[1,1,0],[0,0.25,0],[0,0.5,0],[0,0.75,0],[1,0.25,0],[1,0.5,0],[1,0.75,0]];outlineConnect=0;fontColor=#232F3E;gradientColor=#FF4F8B;gradientDirection=north;fillColor=#BC1356;strokeColor=#ffffff;dashed=0;verticalLabelPosition=bottom;verticalAlign=top;align=center;html=1;fontSize=12;fontStyle=0;aspect=fixed;shape=mxgraph.aws4.resourceIcon;resIcon=mxgraph.aws4.eventbridge;" parent="h5kZTqRJnjjrIYhOVkn1-1" vertex="1">
          <mxGeometry x="1030" y="385" width="60" height="60" as="geometry" />
        </mxCell>
        <mxCell id="h5kZTqRJnjjrIYhOVkn1-66" value="" style="edgeStyle=orthogonalEdgeStyle;rounded=0;orthogonalLoop=1;jettySize=auto;html=1;strokeWidth=3;fontColor=#000000;fillColor=#d5e8d4;strokeColor=#82b366;" parent="h5kZTqRJnjjrIYhOVkn1-1" source="h5kZTqRJnjjrIYhOVkn1-47" target="h5kZTqRJnjjrIYhOVkn1-67" edge="1">
          <mxGeometry relative="1" as="geometry">
            <Array as="points">
              <mxPoint x="822" y="630" />
              <mxPoint x="822" y="630" />
            </Array>
          </mxGeometry>
        </mxCell>
        <mxCell id="h5kZTqRJnjjrIYhOVkn1-67" value="OTel / Traces" style="sketch=0;points=[[0,0,0],[0.25,0,0],[0.5,0,0],[0.75,0,0],[1,0,0],[0,1,0],[0.25,1,0],[0.5,1,0],[0.75,1,0],[1,1,0],[0,0.25,0],[0,0.5,0],[0,0.75,0],[1,0.25,0],[1,0.5,0],[1,0.75,0]];points=[[0,0,0],[0.25,0,0],[0.5,0,0],[0.75,0,0],[1,0,0],[0,1,0],[0.25,1,0],[0.5,1,0],[0.75,1,0],[1,1,0],[0,0.25,0],[0,0.5,0],[0,0.75,0],[1,0.25,0],[1,0.5,0],[1,0.75,0]];outlineConnect=0;fontColor=#232F3E;gradientColor=#F34482;gradientDirection=north;fillColor=#BC1356;strokeColor=#ffffff;dashed=0;verticalLabelPosition=bottom;verticalAlign=top;align=center;html=1;fontSize=12;fontStyle=0;aspect=fixed;shape=mxgraph.aws4.resourceIcon;resIcon=mxgraph.aws4.distro_for_opentelemetry;" parent="h5kZTqRJnjjrIYhOVkn1-1" vertex="1">
          <mxGeometry x="865" y="595" width="60" height="60" as="geometry" />
        </mxCell>
        <mxCell id="h5kZTqRJnjjrIYhOVkn1-68" style="edgeStyle=orthogonalEdgeStyle;rounded=0;orthogonalLoop=1;jettySize=auto;html=1;strokeWidth=3;fontColor=#000000;fillColor=#d5e8d4;strokeColor=#82b366;" parent="h5kZTqRJnjjrIYhOVkn1-1" edge="1">
          <mxGeometry relative="1" as="geometry">
            <mxPoint x="925" y="650" as="sourcePoint" />
            <mxPoint x="1030" y="650" as="targetPoint" />
            <Array as="points">
              <mxPoint x="950" y="650" />
              <mxPoint x="950" y="650" />
            </Array>
          </mxGeometry>
        </mxCell>
        <mxCell id="h5kZTqRJnjjrIYhOVkn1-69" value="" style="edgeStyle=orthogonalEdgeStyle;rounded=0;orthogonalLoop=1;jettySize=auto;html=1;strokeWidth=3;fontColor=#000000;fillColor=#d5e8d4;strokeColor=#82b366;" parent="h5kZTqRJnjjrIYhOVkn1-1" edge="1">
          <mxGeometry relative="1" as="geometry">
            <mxPoint x="808" y="519.5" as="sourcePoint" />
          </mxGeometry>
        </mxCell>
        <mxCell id="h5kZTqRJnjjrIYhOVkn1-70" value="Database" style="sketch=0;points=[[0,0,0],[0.25,0,0],[0.5,0,0],[0.75,0,0],[1,0,0],[0,1,0],[0.25,1,0],[0.5,1,0],[0.75,1,0],[1,1,0],[0,0.25,0],[0,0.5,0],[0,0.75,0],[1,0.25,0],[1,0.5,0],[1,0.75,0]];outlineConnect=0;fontColor=#232F3E;gradientColor=#4D72F3;gradientDirection=north;fillColor=#3334B9;strokeColor=#ffffff;dashed=0;verticalLabelPosition=bottom;verticalAlign=top;align=center;html=1;fontSize=12;fontStyle=0;aspect=fixed;shape=mxgraph.aws4.resourceIcon;resIcon=mxgraph.aws4.rds;" parent="h5kZTqRJnjjrIYhOVkn1-1" vertex="1">
          <mxGeometry x="865" y="490.5" width="60" height="60" as="geometry" />
        </mxCell>
        <mxCell id="h5kZTqRJnjjrIYhOVkn1-71" style="edgeStyle=orthogonalEdgeStyle;rounded=0;orthogonalLoop=1;jettySize=auto;html=1;entryX=1;entryY=0.5;entryDx=0;entryDy=0;entryPerimeter=0;strokeWidth=3;fontColor=#000000;fillColor=#d5e8d4;strokeColor=#82b366;" parent="h5kZTqRJnjjrIYhOVkn1-1" target="h5kZTqRJnjjrIYhOVkn1-70" edge="1">
          <mxGeometry relative="1" as="geometry">
            <mxPoint x="1030" y="520" as="sourcePoint" />
            <Array as="points">
              <mxPoint x="990" y="520" />
              <mxPoint x="990" y="520" />
            </Array>
          </mxGeometry>
        </mxCell>
        <mxCell id="h5kZTqRJnjjrIYhOVkn1-72" value="" style="edgeStyle=orthogonalEdgeStyle;rounded=0;orthogonalLoop=1;jettySize=auto;html=1;strokeWidth=3;fontColor=#000000;fillColor=#d5e8d4;strokeColor=#82b366;" parent="h5kZTqRJnjjrIYhOVkn1-1" source="h5kZTqRJnjjrIYhOVkn1-46" target="h5kZTqRJnjjrIYhOVkn1-70" edge="1">
          <mxGeometry relative="1" as="geometry" />
        </mxCell>
        <mxCell id="h5kZTqRJnjjrIYhOVkn1-73" style="edgeStyle=orthogonalEdgeStyle;rounded=0;orthogonalLoop=1;jettySize=auto;html=1;strokeWidth=3;fontColor=#000000;fillColor=#d5e8d4;strokeColor=#82b366;" parent="h5kZTqRJnjjrIYhOVkn1-1" source="h5kZTqRJnjjrIYhOVkn1-46" target="h5kZTqRJnjjrIYhOVkn1-65" edge="1">
          <mxGeometry relative="1" as="geometry">
            <mxPoint x="1030" y="410" as="targetPoint" />
            <Array as="points">
              <mxPoint x="740" y="390" />
            </Array>
          </mxGeometry>
        </mxCell>
        <mxCell id="h5kZTqRJnjjrIYhOVkn1-74" style="edgeStyle=orthogonalEdgeStyle;rounded=0;orthogonalLoop=1;jettySize=auto;html=1;strokeWidth=3;fontColor=#000000;fillColor=#d5e8d4;strokeColor=#82b366;" parent="h5kZTqRJnjjrIYhOVkn1-1" source="h5kZTqRJnjjrIYhOVkn1-50" target="h5kZTqRJnjjrIYhOVkn1-62" edge="1">
          <mxGeometry relative="1" as="geometry">
            <mxPoint x="690" y="578.75" as="sourcePoint" />
            <mxPoint x="1030" y="578.75" as="targetPoint" />
          </mxGeometry>
        </mxCell>
        <mxCell id="h5kZTqRJnjjrIYhOVkn1-75" style="edgeStyle=orthogonalEdgeStyle;rounded=0;orthogonalLoop=1;jettySize=auto;html=1;entryX=0;entryY=0.25;entryDx=0;entryDy=0;entryPerimeter=0;strokeWidth=3;fontColor=#000000;fillColor=#d5e8d4;strokeColor=#82b366;" parent="h5kZTqRJnjjrIYhOVkn1-1" source="h5kZTqRJnjjrIYhOVkn1-42" target="h5kZTqRJnjjrIYhOVkn1-63" edge="1">
          <mxGeometry relative="1" as="geometry" />
        </mxCell>
        <mxCell id="9XweL_crkvtqbf3ITo7N-8" style="edgeStyle=orthogonalEdgeStyle;rounded=0;orthogonalLoop=1;jettySize=auto;html=1;entryX=0.5;entryY=0;entryDx=0;entryDy=0;entryPerimeter=0;strokeWidth=3;fillColor=#d5e8d4;strokeColor=#82b366;" parent="h5kZTqRJnjjrIYhOVkn1-1" source="9XweL_crkvtqbf3ITo7N-7" target="h5kZTqRJnjjrIYhOVkn1-59" edge="1">
          <mxGeometry relative="1" as="geometry" />
        </mxCell>
        <mxCell id="9XweL_crkvtqbf3ITo7N-10" value="&lt;font style=&quot;font-size: 15px;&quot;&gt;Infrastructure Update&lt;/font&gt;" style="edgeLabel;html=1;align=center;verticalAlign=middle;resizable=0;points=[];fontColor=#82B366;" parent="9XweL_crkvtqbf3ITo7N-8" vertex="1" connectable="0">
          <mxGeometry x="0.0508" y="-4" relative="1" as="geometry">
            <mxPoint as="offset" />
          </mxGeometry>
        </mxCell>
        <mxCell id="9XweL_crkvtqbf3ITo7N-7" value="Platform Team" style="outlineConnect=0;fillColor=#009900;strokeColor=#009900;dashed=0;verticalLabelPosition=bottom;verticalAlign=top;align=center;html=1;fontSize=12;fontStyle=0;aspect=fixed;pointerEvents=1;shape=mxgraph.aws4.user;fontColor=#009900;" parent="h5kZTqRJnjjrIYhOVkn1-1" vertex="1">
          <mxGeometry x="64.99999999999999" y="270" width="30" height="30" as="geometry" />
        </mxCell>
        <mxCell id="S1xGY6ir3TliCO5fwRii-0" style="edgeStyle=orthogonalEdgeStyle;rounded=0;orthogonalLoop=1;jettySize=auto;html=1;strokeWidth=3;fillColor=#d5e8d4;strokeColor=#82b366;" edge="1" parent="h5kZTqRJnjjrIYhOVkn1-1" source="h5kZTqRJnjjrIYhOVkn1-36" target="h5kZTqRJnjjrIYhOVkn1-64">
          <mxGeometry relative="1" as="geometry">
            <Array as="points">
              <mxPoint x="660" y="330" />
            </Array>
          </mxGeometry>
        </mxCell>
      </root>
    </mxGraphModel>
  </diagram>
  <diagram name="ci-cd-eks-ext" id="YdsbW4rErZD2NiKWNKvj">
    <mxGraphModel dx="1272" dy="833" grid="1" gridSize="10" guides="1" tooltips="1" connect="1" arrows="1" fold="1" page="1" pageScale="1" pageWidth="1169" pageHeight="827" math="0" shadow="0">
      <root>
        <mxCell id="ggLD2dLzZbivhXyKgasr-0" />
        <mxCell id="ggLD2dLzZbivhXyKgasr-1" parent="ggLD2dLzZbivhXyKgasr-0" />
        <mxCell id="ggLD2dLzZbivhXyKgasr-2" value="AWS Cloud" style="points=[[0,0],[0.25,0],[0.5,0],[0.75,0],[1,0],[1,0.25],[1,0.5],[1,0.75],[1,1],[0.75,1],[0.5,1],[0.25,1],[0,1],[0,0.75],[0,0.5],[0,0.25]];outlineConnect=0;gradientColor=none;html=1;whiteSpace=wrap;fontSize=12;fontStyle=0;container=1;pointerEvents=0;collapsible=0;recursiveResize=0;shape=mxgraph.aws4.group;grIcon=mxgraph.aws4.group_aws_cloud_alt;strokeColor=#232F3E;fillColor=none;verticalAlign=top;align=left;spacingLeft=30;fontColor=#232F3E;dashed=0;" parent="ggLD2dLzZbivhXyKgasr-1" vertex="1">
          <mxGeometry x="160" y="40" width="960" height="760" as="geometry" />
        </mxCell>
        <mxCell id="ggLD2dLzZbivhXyKgasr-3" value="    unicorn-store-spring-build-ecr" style="fillColor=none;strokeColor=#007fff;dashed=1;verticalAlign=top;fontStyle=0;fontColor=#007fff;align=left;fontSize=14;" parent="ggLD2dLzZbivhXyKgasr-2" vertex="1">
          <mxGeometry x="140" y="10" width="521" height="120" as="geometry" />
        </mxCell>
        <mxCell id="ggLD2dLzZbivhXyKgasr-4" style="edgeStyle=orthogonalEdgeStyle;rounded=0;orthogonalLoop=1;jettySize=auto;html=1;strokeWidth=3;fillColor=#d5e8d4;strokeColor=#82b366;" parent="ggLD2dLzZbivhXyKgasr-2" source="ggLD2dLzZbivhXyKgasr-5" target="ggLD2dLzZbivhXyKgasr-11" edge="1">
          <mxGeometry relative="1" as="geometry" />
        </mxCell>
        <mxCell id="ggLD2dLzZbivhXyKgasr-5" value="AWS CodeBuild" style="outlineConnect=0;fontColor=#232F3E;gradientColor=#4D72F3;gradientDirection=north;fillColor=#3334B9;strokeColor=#ffffff;dashed=0;verticalLabelPosition=bottom;verticalAlign=top;align=center;html=1;fontSize=12;fontStyle=0;aspect=fixed;shape=mxgraph.aws4.resourceIcon;resIcon=mxgraph.aws4.codebuild;" parent="ggLD2dLzZbivhXyKgasr-2" vertex="1">
          <mxGeometry x="540" y="40" width="60" height="60" as="geometry" />
        </mxCell>
        <mxCell id="ggLD2dLzZbivhXyKgasr-6" value="" style="edgeStyle=orthogonalEdgeStyle;rounded=0;orthogonalLoop=1;jettySize=auto;html=1;strokeWidth=3;fillColor=#d5e8d4;strokeColor=#82b366;" parent="ggLD2dLzZbivhXyKgasr-2" source="ggLD2dLzZbivhXyKgasr-7" target="ggLD2dLzZbivhXyKgasr-9" edge="1">
          <mxGeometry relative="1" as="geometry" />
        </mxCell>
        <mxCell id="ggLD2dLzZbivhXyKgasr-7" value="AWS CodeCommit" style="outlineConnect=0;fontColor=#232F3E;gradientColor=#4D72F3;gradientDirection=north;fillColor=#3334B9;strokeColor=#ffffff;dashed=0;verticalLabelPosition=bottom;verticalAlign=top;align=center;html=1;fontSize=12;fontStyle=0;aspect=fixed;shape=mxgraph.aws4.resourceIcon;resIcon=mxgraph.aws4.codecommit;" parent="ggLD2dLzZbivhXyKgasr-2" vertex="1">
          <mxGeometry x="207.5" y="40" width="60" height="60" as="geometry" />
        </mxCell>
        <mxCell id="ggLD2dLzZbivhXyKgasr-8" value="" style="edgeStyle=orthogonalEdgeStyle;rounded=0;orthogonalLoop=1;jettySize=auto;html=1;strokeWidth=3;fillColor=#d5e8d4;strokeColor=#82b366;" parent="ggLD2dLzZbivhXyKgasr-2" source="ggLD2dLzZbivhXyKgasr-9" target="ggLD2dLzZbivhXyKgasr-5" edge="1">
          <mxGeometry relative="1" as="geometry" />
        </mxCell>
        <mxCell id="ggLD2dLzZbivhXyKgasr-9" value="AWS CodePipeline" style="outlineConnect=0;fontColor=#232F3E;gradientColor=#4D72F3;gradientDirection=north;fillColor=#3334B9;strokeColor=#ffffff;dashed=0;verticalLabelPosition=bottom;verticalAlign=top;align=center;html=1;fontSize=12;fontStyle=0;aspect=fixed;shape=mxgraph.aws4.resourceIcon;resIcon=mxgraph.aws4.codepipeline;" parent="ggLD2dLzZbivhXyKgasr-2" vertex="1">
          <mxGeometry x="365" y="40" width="60" height="60" as="geometry" />
        </mxCell>
        <mxCell id="ggLD2dLzZbivhXyKgasr-10" style="edgeStyle=orthogonalEdgeStyle;rounded=0;orthogonalLoop=1;jettySize=auto;html=1;strokeWidth=3;fillColor=#d5e8d4;strokeColor=#82b366;" parent="ggLD2dLzZbivhXyKgasr-2" source="ggLD2dLzZbivhXyKgasr-11" target="ggLD2dLzZbivhXyKgasr-18" edge="1">
          <mxGeometry relative="1" as="geometry" />
        </mxCell>
        <mxCell id="ggLD2dLzZbivhXyKgasr-11" value="Amazon ECR" style="outlineConnect=0;fontColor=#232F3E;gradientColor=#F78E04;gradientDirection=north;fillColor=#D05C17;strokeColor=#ffffff;dashed=0;verticalLabelPosition=bottom;verticalAlign=top;align=center;html=1;fontSize=12;fontStyle=0;aspect=fixed;shape=mxgraph.aws4.resourceIcon;resIcon=mxgraph.aws4.ecr;" parent="ggLD2dLzZbivhXyKgasr-2" vertex="1">
          <mxGeometry x="705" y="40" width="60" height="60" as="geometry" />
        </mxCell>
        <mxCell id="ggLD2dLzZbivhXyKgasr-12" value="    unicorn-store-spring-deploy-eks" style="fillColor=none;strokeColor=#007fff;dashed=1;verticalAlign=top;fontStyle=0;fontColor=#007fff;align=left;fontSize=14;" parent="ggLD2dLzZbivhXyKgasr-2" vertex="1">
          <mxGeometry x="320" y="140" width="520" height="120" as="geometry" />
        </mxCell>
        <mxCell id="ggLD2dLzZbivhXyKgasr-13" value="" style="edgeStyle=orthogonalEdgeStyle;rounded=0;orthogonalLoop=1;jettySize=auto;html=1;strokeWidth=3;fillColor=#d5e8d4;strokeColor=#82b366;" parent="ggLD2dLzZbivhXyKgasr-2" source="S5zNKL-4SXwG2JOWliuv-4" target="0jjN4F04IyJgkX9IHYN--0" edge="1">
          <mxGeometry relative="1" as="geometry">
            <mxPoint x="395" y="230" as="sourcePoint" />
            <mxPoint x="395" y="508.75" as="targetPoint" />
          </mxGeometry>
        </mxCell>
        <mxCell id="ggLD2dLzZbivhXyKgasr-15" value="" style="edgeStyle=orthogonalEdgeStyle;rounded=0;orthogonalLoop=1;jettySize=auto;html=1;strokeWidth=3;fillColor=#d5e8d4;strokeColor=#82b366;" parent="ggLD2dLzZbivhXyKgasr-2" source="ggLD2dLzZbivhXyKgasr-16" target="S5zNKL-4SXwG2JOWliuv-4" edge="1">
          <mxGeometry relative="1" as="geometry">
            <mxPoint x="425" y="200" as="targetPoint" />
          </mxGeometry>
        </mxCell>
        <mxCell id="ggLD2dLzZbivhXyKgasr-16" value="AWS CodeBuild" style="outlineConnect=0;fontColor=#232F3E;gradientColor=#4D72F3;gradientDirection=north;fillColor=#3334B9;strokeColor=#ffffff;dashed=0;verticalLabelPosition=bottom;verticalAlign=top;align=center;html=1;fontSize=12;fontStyle=0;aspect=fixed;shape=mxgraph.aws4.resourceIcon;resIcon=mxgraph.aws4.codebuild;" parent="ggLD2dLzZbivhXyKgasr-2" vertex="1">
          <mxGeometry x="540" y="170" width="60" height="60" as="geometry" />
        </mxCell>
        <mxCell id="ggLD2dLzZbivhXyKgasr-17" value="" style="edgeStyle=orthogonalEdgeStyle;rounded=0;orthogonalLoop=1;jettySize=auto;html=1;strokeWidth=3;fillColor=#d5e8d4;strokeColor=#82b366;" parent="ggLD2dLzZbivhXyKgasr-2" source="ggLD2dLzZbivhXyKgasr-18" target="ggLD2dLzZbivhXyKgasr-16" edge="1">
          <mxGeometry relative="1" as="geometry" />
        </mxCell>
        <mxCell id="ggLD2dLzZbivhXyKgasr-18" value="AWS CodePipeline" style="outlineConnect=0;fontColor=#232F3E;gradientColor=#4D72F3;gradientDirection=north;fillColor=#3334B9;strokeColor=#ffffff;dashed=0;verticalLabelPosition=bottom;verticalAlign=top;align=center;html=1;fontSize=12;fontStyle=0;aspect=fixed;shape=mxgraph.aws4.resourceIcon;resIcon=mxgraph.aws4.codepipeline;" parent="ggLD2dLzZbivhXyKgasr-2" vertex="1">
          <mxGeometry x="705" y="170" width="60" height="60" as="geometry" />
        </mxCell>
        <mxCell id="ggLD2dLzZbivhXyKgasr-19" value="App VPC" style="points=[[0,0],[0.25,0],[0.5,0],[0.75,0],[1,0],[1,0.25],[1,0.5],[1,0.75],[1,1],[0.75,1],[0.5,1],[0.25,1],[0,1],[0,0.75],[0,0.5],[0,0.25]];outlineConnect=0;gradientColor=none;html=1;whiteSpace=wrap;fontSize=12;fontStyle=0;shape=mxgraph.aws4.group;grIcon=mxgraph.aws4.group_vpc;strokeColor=#248814;fillColor=none;verticalAlign=top;align=left;spacingLeft=30;fontColor=#009900;dashed=0;horizontal=1;flipV=0;" parent="ggLD2dLzZbivhXyKgasr-2" vertex="1">
          <mxGeometry x="39" y="280" width="801" height="440" as="geometry" />
        </mxCell>
        <mxCell id="ggLD2dLzZbivhXyKgasr-20" value="  Availability Zone 1&#xa;" style="fillColor=none;strokeColor=#147EBA;dashed=1;verticalAlign=top;fontStyle=0;fontColor=#147EBA;align=left;horizontal=1;" parent="ggLD2dLzZbivhXyKgasr-2" vertex="1">
          <mxGeometry x="150" y="300" width="660" height="361.5" as="geometry" />
        </mxCell>
        <mxCell id="ggLD2dLzZbivhXyKgasr-21" style="edgeStyle=orthogonalEdgeStyle;rounded=0;orthogonalLoop=1;jettySize=auto;html=1;strokeWidth=3;fontColor=#97D077;fillColor=#d5e8d4;strokeColor=#82b366;dashed=1;" parent="ggLD2dLzZbivhXyKgasr-2" source="ggLD2dLzZbivhXyKgasr-22" target="ggLD2dLzZbivhXyKgasr-23" edge="1">
          <mxGeometry relative="1" as="geometry">
            <Array as="points">
              <mxPoint x="100" y="695" />
            </Array>
          </mxGeometry>
        </mxCell>
        <mxCell id="0jjN4F04IyJgkX9IHYN--24" style="edgeStyle=orthogonalEdgeStyle;rounded=0;orthogonalLoop=1;jettySize=auto;html=1;entryX=0.005;entryY=0.63;entryDx=0;entryDy=0;entryPerimeter=0;strokeWidth=3;fontColor=#000000;fillColor=#d5e8d4;strokeColor=#82b366;" parent="ggLD2dLzZbivhXyKgasr-2" source="ggLD2dLzZbivhXyKgasr-22" target="0jjN4F04IyJgkX9IHYN--15" edge="1">
          <mxGeometry relative="1" as="geometry" />
        </mxCell>
        <mxCell id="ggLD2dLzZbivhXyKgasr-22" value="Load Balancing" style="outlineConnect=0;fontColor=#232F3E;gradientColor=#945DF2;gradientDirection=north;fillColor=#5A30B5;strokeColor=#ffffff;dashed=0;verticalLabelPosition=bottom;verticalAlign=top;align=center;html=1;fontSize=12;fontStyle=0;aspect=fixed;shape=mxgraph.aws4.resourceIcon;resIcon=mxgraph.aws4.elastic_load_balancing;flipH=0;flipV=0;" parent="ggLD2dLzZbivhXyKgasr-2" vertex="1">
          <mxGeometry x="70" y="549.5" width="60" height="60" as="geometry" />
        </mxCell>
        <mxCell id="ggLD2dLzZbivhXyKgasr-23" value="   Availability Zone 2" style="fillColor=none;strokeColor=#147EBA;dashed=1;verticalAlign=top;fontStyle=0;fontColor=#147EBA;align=left;horizontal=1;" parent="ggLD2dLzZbivhXyKgasr-2" vertex="1">
          <mxGeometry x="150" y="680" width="660" height="30" as="geometry" />
        </mxCell>
        <mxCell id="ggLD2dLzZbivhXyKgasr-29" value="Internet&lt;br&gt;Gateway" style="outlineConnect=0;fontColor=#232F3E;gradientColor=none;fillColor=#5A30B5;strokeColor=none;dashed=0;verticalLabelPosition=bottom;verticalAlign=top;align=center;html=1;fontSize=12;fontStyle=0;aspect=fixed;pointerEvents=1;shape=mxgraph.aws4.internet_gateway;" parent="ggLD2dLzZbivhXyKgasr-2" vertex="1">
          <mxGeometry x="-24" y="455.75" width="50" height="50" as="geometry" />
        </mxCell>
        <mxCell id="ggLD2dLzZbivhXyKgasr-30" value="  Public Subnet" style="fillColor=none;strokeColor=#97D077;dashed=1;verticalAlign=top;fontStyle=0;fontColor=#97D077;align=left;fontSize=14;strokeWidth=2;horizontal=0;" parent="ggLD2dLzZbivhXyKgasr-2" vertex="1">
          <mxGeometry x="170" y="330" width="135" height="310" as="geometry" />
        </mxCell>
        <mxCell id="ggLD2dLzZbivhXyKgasr-31" value="  Private Subnet" style="fillColor=none;strokeColor=#007fff;dashed=1;verticalAlign=top;fontStyle=0;fontColor=#007fff;align=left;fontSize=14;strokeWidth=2;horizontal=0;" parent="ggLD2dLzZbivhXyKgasr-2" vertex="1">
          <mxGeometry x="320" y="330" width="480" height="310" as="geometry" />
        </mxCell>
        <mxCell id="ggLD2dLzZbivhXyKgasr-45" value="NAT Gateway" style="outlineConnect=0;fontColor=#232F3E;gradientColor=none;fillColor=#5A30B5;strokeColor=none;dashed=0;verticalLabelPosition=bottom;verticalAlign=top;align=center;html=1;fontSize=12;fontStyle=0;aspect=fixed;pointerEvents=1;shape=mxgraph.aws4.nat_gateway;labelBackgroundColor=#ffffff;flipH=1;" parent="ggLD2dLzZbivhXyKgasr-2" vertex="1">
          <mxGeometry x="200" y="455.75" width="50" height="50" as="geometry" />
        </mxCell>
        <mxCell id="ggLD2dLzZbivhXyKgasr-46" style="edgeStyle=orthogonalEdgeStyle;rounded=0;orthogonalLoop=1;jettySize=auto;html=1;strokeWidth=3;fontColor=#97D077;fillColor=#d5e8d4;strokeColor=#82b366;" parent="ggLD2dLzZbivhXyKgasr-2" source="ggLD2dLzZbivhXyKgasr-45" target="ggLD2dLzZbivhXyKgasr-29" edge="1">
          <mxGeometry relative="1" as="geometry" />
        </mxCell>
        <mxCell id="ggLD2dLzZbivhXyKgasr-49" value="" style="edgeStyle=orthogonalEdgeStyle;rounded=0;orthogonalLoop=1;jettySize=auto;html=1;strokeWidth=3;fontColor=#97D077;fillColor=#d5e8d4;strokeColor=#82b366;" parent="ggLD2dLzZbivhXyKgasr-2" source="0jjN4F04IyJgkX9IHYN--0" target="JQdYd_Ilo_G8GBKgJyek-2" edge="1">
          <mxGeometry relative="1" as="geometry">
            <mxPoint x="425" y="538.75" as="sourcePoint" />
            <Array as="points">
              <mxPoint x="445" y="490" />
              <mxPoint x="445" y="539" />
            </Array>
            <mxPoint x="470" y="539.0666666666666" as="targetPoint" />
          </mxGeometry>
        </mxCell>
        <mxCell id="ggLD2dLzZbivhXyKgasr-51" value="Cloud9" style="sketch=0;points=[[0,0,0],[0.25,0,0],[0.5,0,0],[0.75,0,0],[1,0,0],[0,1,0],[0.25,1,0],[0.5,1,0],[0.75,1,0],[1,1,0],[0,0.25,0],[0,0.5,0],[0,0.75,0],[1,0.25,0],[1,0.5,0],[1,0.75,0]];outlineConnect=0;fontColor=#232F3E;gradientColor=#4D72F3;gradientDirection=north;fillColor=#3334B9;strokeColor=#ffffff;dashed=0;verticalLabelPosition=bottom;verticalAlign=top;align=center;html=1;fontSize=12;fontStyle=0;aspect=fixed;shape=mxgraph.aws4.resourceIcon;resIcon=mxgraph.aws4.cloud9;" parent="ggLD2dLzZbivhXyKgasr-2" vertex="1">
          <mxGeometry x="39" y="40" width="60" height="60" as="geometry" />
        </mxCell>
        <mxCell id="ggLD2dLzZbivhXyKgasr-52" value="" style="edgeStyle=orthogonalEdgeStyle;rounded=0;orthogonalLoop=1;jettySize=auto;html=1;fillColor=#d5e8d4;strokeColor=#82b366;strokeWidth=3;" parent="ggLD2dLzZbivhXyKgasr-2" source="ggLD2dLzZbivhXyKgasr-51" target="ggLD2dLzZbivhXyKgasr-7" edge="1">
          <mxGeometry relative="1" as="geometry" />
        </mxCell>
        <mxCell id="0jjN4F04IyJgkX9IHYN--21" style="edgeStyle=orthogonalEdgeStyle;rounded=0;orthogonalLoop=1;jettySize=auto;html=1;strokeWidth=3;fontColor=#000000;fillColor=#d5e8d4;strokeColor=#82b366;" parent="ggLD2dLzZbivhXyKgasr-2" source="0jjN4F04IyJgkX9IHYN--0" target="JQdYd_Ilo_G8GBKgJyek-0" edge="1">
          <mxGeometry relative="1" as="geometry">
            <Array as="points">
              <mxPoint x="445" y="470" />
              <mxPoint x="445" y="430" />
            </Array>
            <mxPoint x="470" y="430" as="targetPoint" />
          </mxGeometry>
        </mxCell>
        <mxCell id="0jjN4F04IyJgkX9IHYN--25" style="edgeStyle=orthogonalEdgeStyle;rounded=0;orthogonalLoop=1;jettySize=auto;html=1;strokeWidth=3;fontColor=#000000;fillColor=#d5e8d4;strokeColor=#82b366;" parent="ggLD2dLzZbivhXyKgasr-2" source="0jjN4F04IyJgkX9IHYN--0" target="ggLD2dLzZbivhXyKgasr-45" edge="1">
          <mxGeometry relative="1" as="geometry" />
        </mxCell>
        <mxCell id="0jjN4F04IyJgkX9IHYN--27" style="edgeStyle=orthogonalEdgeStyle;rounded=0;orthogonalLoop=1;jettySize=auto;html=1;strokeWidth=3;fontColor=#000000;entryX=0.005;entryY=0.63;entryDx=0;entryDy=0;entryPerimeter=0;fillColor=#d5e8d4;strokeColor=#82b366;exitX=0.5;exitY=0;exitDx=0;exitDy=0;exitPerimeter=0;" parent="ggLD2dLzZbivhXyKgasr-2" source="0jjN4F04IyJgkX9IHYN--0" target="0jjN4F04IyJgkX9IHYN--3" edge="1">
          <mxGeometry relative="1" as="geometry">
            <Array as="points">
              <mxPoint x="410" y="451" />
              <mxPoint x="410" y="360" />
            </Array>
          </mxGeometry>
        </mxCell>
        <mxCell id="0jjN4F04IyJgkX9IHYN--0" value="Amazon EKS&lt;br&gt;Cluster" style="sketch=0;points=[[0,0,0],[0.25,0,0],[0.5,0,0],[0.75,0,0],[1,0,0],[0,1,0],[0.25,1,0],[0.5,1,0],[0.75,1,0],[1,1,0],[0,0.25,0],[0,0.5,0],[0,0.75,0],[1,0.25,0],[1,0.5,0],[1,0.75,0]];outlineConnect=0;fontColor=#232F3E;gradientColor=#F78E04;gradientDirection=north;fillColor=#D05C17;strokeColor=#ffffff;dashed=0;verticalLabelPosition=bottom;verticalAlign=top;align=center;html=1;fontSize=12;fontStyle=0;aspect=fixed;shape=mxgraph.aws4.resourceIcon;resIcon=mxgraph.aws4.eks;shadow=0;fillStyle=auto;strokeWidth=2;" parent="ggLD2dLzZbivhXyKgasr-2" vertex="1">
          <mxGeometry x="365" y="450.75" width="60" height="60" as="geometry" />
        </mxCell>
        <mxCell id="0jjN4F04IyJgkX9IHYN--3" value="aws-auth" style="sketch=0;html=1;dashed=0;whitespace=wrap;fillColor=#2875E2;strokeColor=#ffffff;points=[[0.005,0.63,0],[0.1,0.2,0],[0.9,0.2,0],[0.5,0,0],[0.995,0.63,0],[0.72,0.99,0],[0.5,1,0],[0.28,0.99,0]];verticalLabelPosition=bottom;align=center;verticalAlign=top;shape=mxgraph.kubernetes.icon;prIcon=cm;shadow=0;fillStyle=auto;strokeWidth=2;fontColor=#000000;" parent="ggLD2dLzZbivhXyKgasr-2" vertex="1">
          <mxGeometry x="475" y="330" width="50" height="48" as="geometry" />
        </mxCell>
        <mxCell id="0jjN4F04IyJgkX9IHYN--23" value="" style="edgeStyle=orthogonalEdgeStyle;rounded=0;orthogonalLoop=1;jettySize=auto;html=1;strokeWidth=3;fontColor=#000000;fillColor=#d5e8d4;strokeColor=#82b366;" parent="ggLD2dLzZbivhXyKgasr-2" source="0jjN4F04IyJgkX9IHYN--15" target="0jjN4F04IyJgkX9IHYN--0" edge="1">
          <mxGeometry relative="1" as="geometry" />
        </mxCell>
        <mxCell id="0jjN4F04IyJgkX9IHYN--15" value="AWS LB&lt;br&gt;Controller" style="sketch=0;html=1;dashed=0;whitespace=wrap;fillColor=#2875E2;strokeColor=#ffffff;points=[[0.005,0.63,0],[0.1,0.2,0],[0.9,0.2,0],[0.5,0,0],[0.995,0.63,0],[0.72,0.99,0],[0.5,1,0],[0.28,0.99,0]];verticalLabelPosition=bottom;align=center;verticalAlign=top;shape=mxgraph.kubernetes.icon;prIcon=svc;shadow=0;fillStyle=auto;strokeWidth=2;fontColor=#000000;" parent="ggLD2dLzZbivhXyKgasr-2" vertex="1">
          <mxGeometry x="370" y="549.5" width="50" height="48" as="geometry" />
        </mxCell>
        <mxCell id="S5zNKL-4SXwG2JOWliuv-4" value="kubectl" style="shape=image;verticalLabelPosition=bottom;labelBackgroundColor=default;verticalAlign=top;aspect=fixed;imageAspect=0;image=data:image/png,iVBORw0KGgoAAAANSUhEUgAAAfYAAAH2CAYAAACC6668AAAtK3pUWHRSYXcgcHJvZmlsZSB0eXBlIGV4aWYAAHjapZxplmQnkoX/s4paAvOwHMDgnN5BL7+/i3umpNRwqqqVUkbIw+M9HpjdwTDcnf/9n+v+9a9/BV9Cdbm0Xketnn/yyCNOvun+8898fwef39/vn1u/34U/vu5+/iDyNfE1fX7Q6+dr+PH69xd+fA2T78rvLtT39wfrjz8Y+fM19l8uFD9fkkak7+17ofG9UIqfH4TvBebnsXwdvf3+Edb5fP3+/mca+M/pr9z/OOw//X9j9qxwnxTjSSF5/k7pO4Ck/5JLk2/S+7vwxpAa36f3Sk71ezEm5K/m6ec/Q5Otoea/fNMfVuXnd+GvX3e/rlaO37ekXya5/vz6l6+7UH75Qfp5n/j7O+f+M0z+8PousX1G9Mvs6797rd/3zDzFzJWprt+H+vEo7zvet7iFbt0dQ6u+8V/hEu39GfzpRPUmFMxvv/izwwiR5bohBwsz3HDe1x02Q8zxuNj4JsYd03uxpxZH3Enrl/Un3NjSSJY6i7zfsucUf44lvNsOv927W+fOFnhrDFws8Cv/8R/3n/7CvUqFEHz/OVeMK0ZNNsPQyulv3saKhPud1PIm+MefX//RuiZWsGiWlSKDiV2fS6wSfkOC9BY68cbC108OhmbfCzBFQUjEdCRWgFULCVwKvsXYQmAiOws0GXpMOS5WIJQSjUHGnFJlbXrUrfmVFt5bY4m87HgdMGMlSqrkWWeFJouVcyF+Wu7E0Cyp5FJKLa30MsqsqeZaaq2tChRnSy27VlptrfU22uyp51567a33PvoccSRAs4w62uhjjDm55+TKk9+evGHOFVdaeRW36mqrr7HmJnx23mXX3XbfY0+Llgz8sGrNug2bJxxC6eRTTj3t9DPOvITaTe7mW2697fY77vy5at9l/dOf/2DVwnfV4lspvbH9XDVebe3HJYLgpGjNWLDocmDFm5aAgI5aM99DzlErpzXzA/gD8xhk0ZpZ0IqxgvmEWG74sXYuflZUK/f/WjfX8h/WLf63K+e0dP/hyv153f5q1Uw0tN+KfbJQk+oT2cd7Zuz8C1f9+av7ux98vmqpTk/TSjbmoC5vMdrdd901+/H52OqXV7ILlu8JPItZ26WYJnyXab3svT1zF+e4o5V5+kydH5RVZgt178OLwV/mzW4Jruxgg19NFk8dORZjHnZZRExYZGyM/bZk/h5wl1WpaXbNc6nAZdzz1DROTNftzAzutsLN6ew6eEMqdSbis69M0Cw/LmuwUi4hFxCeMNN3YvfffXW/vvDffa3V1WknMoUMqK9m1wz+2Yo22GDxSsgtFc0Hc5zPsjXN/BkQig1SYbexYiWyc7q9wRXTWjlkayorCMUsrWV9c582G+sR2xz8+pxVk127ea7QbiviI0LHlTx4fgDUn2xt2OGnAZ6KVTd+7/fD0r4IptrSzYVwuGFb86mRaMlsb0uFybbIv6vFfeE2Mu8Ke0tjPHVPbp2MXFj7Xn/XuntfhnVSJX9jmjHWNddaw62zSLtzZhuxjcKrpEbprNSZQYF5gWzlWtjd7DaWMSkEjGAZzX9DIHcXS9BKMx2XECiBEJigUh6zRBbDD6ZkEmRNkzlJRcJDUXmg7HQAFX94hnIdA95zmV/5Wom7lbL04Nyd1drN9gwnN+VHuJ3gP4PYZSrNABTi64IKIUJHcd7MRCxfF8lOUoesleGyRiIT9XmFlUjyZFyKS4ZymIBIMnhCml88K7Eibi8tSSc7jaFfPUCNy5AQ2yrrbjwe00s+zDQ0MD/bqeVCObvfze0jUecPLBLuSYQG2NLgt8NPZlNO2AtcxAnJ9YLY+3/46v7mB6UTwa3PxTqgubtW2Nd6zOdyU2JR02on8QzEYEsH8K+AZT+ABKBh0HHatXgWNF1JiXh44kaGgDt1+9LmnaDNAF946lkJOHgemHTnCkFuGcQhuT/hiNRWy1A6V6wh30HyvQFYPlxp7LN4M78S1nlp1zux5DQC3XsRpx6sZeSbkTegOSiBRQw1AnItltFPHinbvA2oHKUEKIDJBLub40YksDHCgT6d4q07anlhPgujIeIz4KXrbV61PWZ9qzDJkh/L0KMjWplIYXvPise9SJjLuIGWDJKMQ4bE0GEqOJaL9gPjzM3UgBYQ6ZpD8esiqT2AAJJW3NnnuQvAPMQZsrVuMgGWtFK5I8anTxhzhSoThAT1kN5BSzNHqwd8yIUNNdg5ZUDmIML5d6/4IZRVsTBzVDuntpUHocrAuWYtBTq5kLsrADej5A80PQ5Q1sRfbWdGtqpx90k+Gpl773hZyuUJbOJ3gXkEM6g1swM8Z4VpQ4ONm9YJMmMoovI7QUVym0S9pFo6AUxYvLHWHjPhWjLT0nLlkR3UwQqM1sdDMag5nAN+pcOUg1xn1MQ0WxSaCGsjyZ2UksDR1SMG01ORazmmflNoGjLYNBZAGggkUMGEVW0WQlCXD4toaMTpjPWOYu1MrxjkBsWxPPKAMCKxj+QwQz+QvEuRP+sm8N+KsZxJ6/B35I6qJUJuBSS4YUCTrEEOwr9B+dovoo1YFhUM0J7VW+W8bDICo/tkh3jYE4RsRBvkjiDZTfMDwsC1i4AYc51JwMVV0q1hgZgVJiPkoA5NI5LBAPs5yj5u2uxwC7ROQCDGWC9RE1CwcNosVyncccUh6OQxWRfoT8SI0Fhjs84sQChu9AUJIQpXSCQAk5wfd+SNavjbGbkFHC5YMlAFUUNMONgQoUpasUjweLunQ1Wb5wEOyJmRTqsTFKkM4N5KeKabSrfLKl/4kFhHWpgzFGASJU9COW3YEEcnl1e2gm5iJYn0QYZCbofQCRU0SehMZBU3wVCZJ7acRUADjKqh8nKDSVPooN34IATxT6T+WX8gHhXaGbxhLckCR4zXkoBY+HESgdkHW2haMJDFAr+UbHHGO33YFS2hqsslBAjEfsFgRklqdoeasovvWmTQrpX1OWi/fBIYCipdQAQeTSzeRKAwdHSuZpiMRjbvljL45vtxHcQXSUF7JyKYJ7oc12Tg05Js6GejHVnnYPOlW2chJjp8ATlt7tMvMqJn9JGPNW/FVAMESDzEEfi1UM2sSl9S2wWWYdqS9PaHs8jT34IBHYld9+UyqKU8hVy4/D5F3zRQNsM5N4a5CN+bqqgYnCVvSGCfoQMQKMBXB3fEz+dBCCsLsAjkXVrSf6xxJAQW8IQiih+gPLA0QN+hYtUFLvFNdCB2qncTkoI+WOcFAPBzVAKUHzyKqqH2iSUEGVmXxJ+N6SXSECCJucKy4D0EEpYd83TQmaxhOBJ2Vem6xIfjIPAQ14vQZGHJ2UCagwyD+EdLM8LI4kRdE8qeJTTuw8QgCBuPrJm0hFlKO6QJdHa0FfBmhMcicFB0i5ni8ZkdgDpCGWglwB94zEKbg8njG2bjAOKVGWU+6lqqtmF7pmg8AaYgEE6EcYI5QihSErh3F88QGmumEGG1cKUYS9tg6KhIDaZqgHubqECRTwX8E92AD/mq+N5k1GyuS3Ghl8PBQBKCEynVNvQjkUCqIMPwHSOJiiBPlgtMuJpF8RrGYgBCwy8XKsYwg2JLtR3ItE1/kJt1P5GHamzSMtxnoDQPEdWl4A2/QC6KHNYkpAhI5HIA9mFPsKfhWSD7AbtjmcfWuGcShxKQhkYQH8+d88B5sp6IQXxTst3dbteD9LIQTD5yCPpmKrC0NzKdHbumIZSgOYYjifXMc2nMGOpCqCOzYB30EanGdJDlhhAjYyoZi5NV3PHuuz2oXFcMyL0eiEAED+rUB32HJAJbmVLEqOEDB3xz+IZ0SiCfsihvUY3f1yvyIEKZRdCE1SPRoG2frRLMAYxiqqK7sn89s9hwCW/keoQh0iOc2tMCQiKCOgMiub98y0Q1sw6I8pDYRHQFSUAcAZWGUEIhIpQ2KQX4IFxGDIgDbDnW5FFBFUiDh0QVMmpAS0DFtLUzFhcWAaYX6DWw61IooNqGeA1E3YDqhhNJHhRMhxBI0nCDvEBAP9Rb0ecrI1ymAf6GmPtw+wAapJlDBRgGIA2RTuKPOD6NiZaEVigUD76hOgdRhIcAscBmR6oyZ92jkHwQF6PWiC+c9AJuF9+z1IBcJ38Heoe/UD4glSEXxxcuD16EcPzBMYA2AhoF3Q6KJYLXWbBJLkYCbVRgZkI1zAz+BJUF9kE6qCUJMZfk4YEPpR/0M5VEcokkEQ5uwLr2kTtnbsBwiFnJIeC4qyIQp70xXZd7GzkyFagzlC5xx6OFoHXECPbK0HxlwjAOEB6ukpyarJdHDp+GXobkEBzNmeQ+2hAIZJHB0NaZE8DbMLLTBg6Sp4HQRSQzKL0CDMdsI4zRRSHFjjtcDuqSWYUalOOkLnyy5kZONiBfv0joYjle3VHFrKJxQfnyZRhEHFkC3xbLT3ZEj1gDlFlBQB/hgBsZkwfkWsglkpZFhYtQj08qV+BmD2IZyLg8EWkA00awq2A5FqIXUXqx99qZYIGkxkiDQV4msoEogqyJRfngi8XnCQvz2wtrjoYM/FrLAZAYQgWZpiZ54ytQir2sSkty4lwWhuHJl03c2ypPtLFEwA5iFMJAjZAGKrsxX4McM3mX2TuYJoOlqnwhEAB+Ei5mTXtT+aYS7twpAN/ubJmSdJGqxC2zQ5gGvBpe/iCwYxz8+pRRAu/RH+D4vqI3CIlwOsJFUbwjWvCYY0ZUccFgKubuQDfg4LaCWNICfkTS7NUjKzgIJANa7pCxJ6LgSpI2vPoBTiou9DDz4I37VJgCqiYlyf4jPR0zejyr5pAkgom+gE1nae4ZoAHyeNSF5Lxb5SSYAl9fckUOMXGCZNIXc0A8No05LWJONlUlBq7BGqaKw4sVB2n8E1Cgx3fPHKPsa6rwRhbakExRWIuYUgZ3HAjMSGrvTykkJSiFlNkOkJiYLwQF0CA55CtUymzGQQyQkwDgMeac2Z0egmZwIZWNFmLhiLyrrYSVHYpEDrVl/HKsREiVNEQpX2gJ1L+vQOv33KRzRzJ75TQzxWrkgGC5oWl5XZDtrpHHL5g8nAj8e/fiuSEElmYq/U0aDBJFshIDd7ziAjw2VDuUI7xJuYYLikj5mQa3MqIB594r9z1dnrBcRY7PdQcoDxLBjsPo6XAdeI3HIJeW47+D1zmYbZVoIEf8Go4XfOehIE/kzmFlgtCbC1e8pxwk9wSNSlKlIq04ndKDKSM/ibYuW2CQA+TfB3osjRo1uMXdAqhSOhyjEsB83AQ5qJQL+gV3AChWDJYj3BR20owk4ByEEOEsIB64BRIZLFlirE1OsiZEB6IhDZXbSnJdVbikP3ALowepDybjmIqtuVap3RZY/yWdsZC9XdSHtm5zYTFUbgEEsevmmdyI3ssFI3o37sbjwkFaK/tJviJAxfrARIipCjjsczYkgmtKn1IJyw/uXE+cxF0Ul8ZbjowdnPsU84e4rANPUkcAlmIMJuAG8q4J+YLlN7h/YLiG3jBVKoKnFXTwlpwLgmoHnAf6roGbwCq5x0BFzyAcv3EZHVGPYEdJrFeMIlT4xZzREK+so7X5yZ4V/Fv1OxwCHmlNfiK+eDNoYReofabL60EKmSq9OcxLRO4AofRxRRl4Q2Ej8xQlXF5kDnTPq5HxTXNDNUaB4c/5QEft/HMkXTKAOGWZsIBIGnIN+WpYFgEki4RVjdecbF3G9xESAN8idNFmUWjP3zydyk/Vg577aQ/jJhCoqT4dI4QQ8flATXQ4KR+B9oeXWFoWx4QkBYxQ6Qftw5q8Kol2O2AwFakQm4TIYImjrJDkMWJI9X1UPh4P4Qz9Aswg4asfATrA8GLwQA2TrfIEPoT0Oap9oobkFfgxF4Kfr5BRsjB7KcQ7yFwsJTZFew1bShCVQyqbtEiO5OqcSF4Lx8OZssnVoRHQqYbjYP4RoKBCJ0ZU/dVOqrz3VhUzg7ikJLbDgKADWmdIHSLHq4fhuRCKYj/Ri9fJV6JvZq+tpBLwj2BBJkAIWnhlXql6PVrcwohKmIDlGIKMFdVqQqAQNKwJ4OfmeQgCDelBlMPRaLmM1weIZHeXsAKTsnWdiAQjCX3vDo2CNito/ait+0D8DzReD4KcrnI8fgLEDR74gYW1F/Sp45IMEc2894Nw13UNdAa0BWImvdbyIlvQtNiYjd6JWdsATEQX7m/Mz8n4QvIzS7Nj5C82C8VnqhQgJTTvAVvD4IEH9BLoyTojEWAwbZ8l+b+MjlZoMquxSNMxqagTFRBuKaueTuaRaLgd4qZcgBHhg5XaOBofM+kRyDWJeALZb+9hTficxJkAQ4GOCnJYiKbnjqRF9aaK8DgdR85YpUhFTQR76KporozTYHVVIDiSXQFKcsgc7sItcXl4stUZPVpxVwRDFrs0lrMCMMopcmJhvhteE+iEpfBe+NYMTbqeguIXR19iUckOLI4HKZEBjE4u1U62eKxrQkL3VuBsrYk2/+Es85hVANGc9jlUetmkBL/Bb2N1tjYjmVxogfSScETIMwOETZcSwXAYIoy3kyOnqCqrBhTslwKF5xa+GQhJ1hpK+TkgxCNy6KggGrFwiGblGMT/YBRHcvLvdiGaBDNq2S4w2Rk7ab5XAUSu/C6Ard4OTxDwwqu+QgShLVYb4Y/Aao4sRHCqekBq3Jvjy4WxxnPCuOCGF5GWXvuAfnuNOicJwu9/KzhoFwyFe1YN1coFELENbcSsAOw4wIvyy2rlsaBtA2k8lG2TY0YhvSobZN9lMtZwnjnRFl5R/YUAjkqxr9VWcWPAG2pswOYdyRtAF10SP1axp08J3oKpSSdrnyNA6F47Mio4TyCiqKZBLDItA1U8ZHDRbAj+BbCgfoPKTBMFslC+kQv15DG4Av4GCYT76hR6Eu6NpQ2AoRA7YabBC4aJIHh4r/lAtmyo22+nBFxNlbV0oG2DU1klVYHgwFdCVaMAYKEqycFLHoluAvJM1eBTMm2c3+oagIzy97wsg3WSCvFM1c0kED4uL5YBdwLT4H3lkwjWKEsD37FmC2+jEo8DJQZKh3BU4QBXpagbVzopxoy62iTHlG5n/RZSV0XUhqlUaNt5pfow83VThorFQNUWNBcBBO3WuEUa9Yp47dPUBj1rqxXKw/cP/g812PaKpq3EcdyWsySVVDvlacMZA1pGVT5UhiTfHs4gYVkRjV6UtKvqaqEMHkKBlJu5MFUwwCxdGWNtnHmIHm8VZJWIlaY9lyIVDZIu7ss6kZHyoehq6PVsMa4rr5yk2ps2LEMnZJ6a70EqsWji0cmDYWdVbrRhxmp0BRxQpUkj9eANx3Ujv11V7RpY57u6Covcv8KBOP4CCfdxsJfaSCHTxyBh1J+yuOJpDYmOqXbkldo6WKfwlgGzS7huOVI4DDCP2tTbqGeMY+UHgN/pSK3km2Y8EtbEAVC7sDVIxgR2NFQroVn5vznUBaJuLUn4DocQTaJUMglL1lRvU/Zo1x1ZPJX96EIeIurfPfwnpLJCaqi5IaAsGilHuiAC8OSgJ0+Ltu237o6fUr8LQgspDdKLU7geA0bOkoV21SbAnWRKtL12itj3iS1W7W1lIJaJPxWSiI7j8tZ2nG8yMzAx+WhfqYXfKB6t18dAaGZmVbbDtFsOAPPLTZvSqmhK7jsVBoipCTsSD7Ebvs54VL+IxIlf8cg/+BXpH/E/G2UhZ8Bjq4KiDfhPzd2xZhn+R7yBS0B2IACjNvzTUl8EfKEd+Q5wYwNZPYwLzMpyToJVRWBcQ8P0oiGrTGFhOgl30L5BXi1jzQVm2FXtLTCz2AJoldcw/oylq1+keKVIwcoxooyx8+oEICZJT3WIAcfEZeIVUf/rZtoRlBnkIVkDOxxMjTVVGUBmcmRhs3gUlVRsb/AC5d49Nmu88nJTviFoVWLFH3Nh7SVHRBBjldzuG7OjRkAGqY06skLME7+EAioCcSQITinNCn+mDf3AgwOD9kQQ0o9f0H7sQjFByAWEZDEXwhKJMzZEF9SeKsqBI69KrOA11GVxwLUL4yCIjLDoBDqTKk+pX1DJYX3ufht4qn5OFXo1IBLoRKZL3QjINmKJJew5a+dzeRZLHVmq500pqT2rg3W0Jb20u4ekAsz7zm9XWvjHsMHZ/Or/2hadE3JDgF4eRw0LRzso9xLObnsVFqX+I7oZOYTXtQkFIhaZObCVlJIfVk8QSCFXC17vwyqQ52QuiJhGdAE7p301Ff0bIK6i6UYWshiFqNECdBStvoxaoW/G7JsqKKwD0eLnE8PdSSqzcDEBZ2vi0qt6MVaAL5FkcbDqWXsOkoMKJPyBhKT26yuUGVRIWht9xDq96bpoHdX21Oyyl4rMQPhrkmkJ7v3o6nWIKxVKSuna89oBj2CAy1kOauro0ecNC/EMByNBSGkw7TJdQXV47fmrmSu/nekbWd0sgSi2SCp53eFQPJhEiCNjPrE0BBTaHkE4e0blVAUJjKmteSZ/PpcjKbi188/L2mNCVGzHNzGBqlkbdXwr39oXo5U1AjdQY3gePMBlirTBFQ3tiEE7RVZUTlRb/9PpGZGWxHwFsYb2BRMYIx2FYeihb21kI/mLoZLzM1Wlql9UhS4sQSHKi70N34n8gx/w3btwJQRDMG3iIR1JOFVAyWW1rPhXv+zcx3hqogldgQ9Qu8t1mP/iiQzIE36TD5GsVtcnXqrFpfWSqk23MC9KCOg9gcFYnA4cHYBDGs2hd4cAhnjkCZtqMU0bPMSvSpCsT1BH1fF4sbRlX5N0KQIoYI+D6g8RYbRdnO9n3Bd3eMmw07QRjV5Z2EqDTiTloUxWA2atIeEnIM9GwpYAQPAowdpwDSRV4aFoO6JubDVJrAaSkggTvoN5wVI1zsyOCx1yMShQ7QgN7VxgwuQBpEZmBGZ1OgCJPyTnE8xDECAjPaY2NLnVUJ5Lv6V+ihQYrJ/lCiCquc58qMqmZ/GVC2J54sCpaUtbjgmQ2NqjA8mQ7MyMZg8kU/8dIozMD6jT42S7EGRXyoCcULsPPIc+eqUsOYm2P5lGfmAkouIt1NeppQrz5SfwpbmqbXbAz1DMMB9XPZ/ugaarYqq0hGqPiPES8fGFQ1G/32zgn/Qus8OqTVVPtddnQfKuIrlA0/P1GdgQWVr1tSVoBkHeCzNW/eSfFOHR83Zm+nCqJBPXuNLw3EXRT3HVSxOJ/RGCwKWCGuCtwpemPXtoD7BauyyuH0fZTlutVv0HlZa2RLTzyUs9qvyshmwkKYKfxz4DWYlTMu3pV64GrBFHGGdSBCAYxip1MlaxlKLKB6AuqtpH5pe51oamuiMIIQTGkYp9BfGBdajaKDWlCHpRoIgqSqliCIAIhC7xAnWNri2OLDRiYog/VlfNgZ97JcUm3IR6xkJMWBfuzNpTiRcQZXg3b2klFg1lRYZhZl+GaS9qvDTGQ2gvgpvVWa8Bsa7JpSiamX+48WiHnvmJTdFVlZEBRnkt0MxYh7DwEGgg8hnYwLjiiFTPQx4jUPJT80+lbIwPfgstD2zxcJB5QtKQoplnV4/VZxsdD8wEVpHzUhexi1FlFoDPzwc5ovagfWY0fVrqrJGUBx0B44cRqHPxRjlIEUPoZTUc5+BITWYpa+tWpxlQPlCvGk3zIpXayKb6CisklYVEtpEzYMXtsMAz5SKDx6VcSws9a288zLeaQqSGd1OVOqalXgWpLjUiEK174lOkPsEgkBMLvtQku8wJuacK5ao1TDCTBVpYY4JflVNcWrpDYg95tTz8Rt6SecZg5dixPZMwltBqc2sbMTcuhuXO2dTPOrM2+rSF2iNij6y9A58Fq/GUhBIa/Ei3d9XgZAJd0lZB5am8GF/bckoXYR4EQlqDykEFLn6K29beA9EKHZGOPbDGak8hWQqPBi8k6FYbtgvE0eYkkhOJohkDT9VoNolulYOiqX2G/Do6bnKZ7q5enU2KCHZUgFE3seHAguKsw27MEIuhflvsTSja+iI0EVbYbQySGpM9VDp1soUscgCvuiSSJBS/qFpD9UF7RT0CCmglXJ244qZOUC1tbx5V8L08mJe6RJLn7WQIIQxACojEYlXVLMVjcGK/A16JYJ5lgUWp+2MHipYq4ZkRY6aey3yc9pXq6zNZhcBj1B4dY0BxRx3oDMEhAOSpRVxqsfLqfuXezA3iQyyjdiMne30ufIveDDwf697UlpgCSnqNwJJtwhqjizkr8+RzmqgEcL5b1gxZrz4tdLbKc6rwYDPzOEl0BEJ3mHDloYNDHnGCa4rMVCe5jG9gaUN16ECCWkcsLbe1eTXVqJL2R3qIRwiiLkV3wF/ZdB0ywo8slVxQsua1zc/kaytTtddbHDOm2meCEHEfqrVtbY8tTBTMC8mr+DRQn8NPtSEHtfsLmSSPXrtlh1gCQqvDM2qh6ZkpDBOwBxoALvU9LjUxIv3wA8CgSrk719jVMoXAApa6xyMG7bK6MNQQhcSrKrCgasH3pD1+edCp7suBs9lk/WM62KHD3FfFM0kFOE/7CVmnDveOVwZrwAhg10nrdTkjGeVJtlaQG4HSScWJrl0eED17PxJhqWKbopUREWzwBgObBAYwYmsSlTBU87B7RC2NqJMGoIca0OpRCyopXzQXR1vI8NUFRiSOMZ86Nibzpq0uCDBHZCn6iOBBfalPFr011PMUCmiKat4wiw3kIVNe1KRD/gxIpmkPnBX4VJHRImrvzzrXI2/dReo/Gm+rMFs9vi2qY+tt8LiiqtK3gzgYGMttmsoMRyd0yEnkKcPU1h5uhnDW0Qhc66fpWrvd/Avquak2DFSmPH8BODIudLSkJkKYOHavavsGBL06uoH/pp0/YVolfVSwaIeXkrvmrwr8yKajGAZb1X29NhpHd4VjTDo66jBRw6FBc09Aif7Vb6cWwhLMhR9btFKnPRQ1dwO7j1YVU6p9g0z8ECVLuJH76vnD9UfotGuXXcufnWonVyUTcMbECQDhWXKU2NyufsEgjTxFxk1RKOvqTVogqOAMdRPPq7qqfZ6tfQOMWddulpfjVGXUj/d+pDFsaoKbChZciQ1AaGoXC5mobT51+gZ1iyMq+utM1Zau1xEK03pv3krUMyWSDMjYo+rCLCrfpFdVem1QJo/hXpfXO51Q4HztA0cUwlU/PtpW57euKpjq1XqYAG7gZocotGjrhODuSATckdqvVBq5VcJEVSKvNqeoLe2U8IMI0CanlnXMhFgA9q42yGBaFSOwPhvT4I4efmlf4cuSRXt+On+g7ANsEq6tIluB3nmh8VeTfDK8Xy//8/qxQMgVobu0kN3GI4PoxNRk3QZO+MH3eXVJg6xDF/OoPwcwxVEAhk3IIrXB8k8dX9ZWFAzuwYvzWVtJQ8AQ4vn03FaSR+2GT6+pyIXAE4ndia9f1xFMJPlrTcmadkmomd48gTv+jUaCH7fL5MADYjYQPGuRt4JAhQqrDmMQ5YPfziA/6LIao6PHIJ6ceQimVhcjy84F85lBovdHb87n2Oyx7G6ChiRxQrb7NibVyfJw8JzLY5Ybg7qaCZleXy8LL+jgakUCLxDq05bl2paLOTocezCOpi0Pdalqu0zFNrWwAefoszsKBkp7sSzqzSooKKmLEPlUp2I86ixrL597aW/PDMxVcQhV0NUOl5t2NZqaRustr7YMmSUdZdIOPQEx3pYPKxYGLPr74ycoT3gNYZ91FkwHdXgwEL3nnhjV6z7VxkdjaDBlbU6NTnXksA+gBi4jbBvSDiRTcqsJB6vbwDSUGjg51blrPQTtPrEoZFlVHDX3OqTQhRqNjqtpdzC+wiMIVRAeSEjkIJqwqat68RaRvk4PXR1pvkQ9K5LxInv27w5OQ9Ujm3BU6hVi8tRoLLVZH2OhNvpT69r3hqVAMb4tWe2Q19UBE0yPlECDmnqPGCLLkhBk2ldAQ1jU9uOa5aonBoGMwIdLt+rbPnR4CIHl5oVon5fX2Z0Ak4vUB8vRdOIRPQIAwQodUZuXOhoGsd21kd5U4WSaVMMrqvqxZhHtjDjYiCP85nOCbwk3133HonKUhVgqtsTP0RYLTMrQ2Ue1IU+npr/PgS4duNHRBMPcJjJd/PFKzep+DWg3nhFZ+Pby1Senlnt4xLBVzL2Lc/vX/63d5bcrPYrOG+wzIHJ+uYy9TWWFsdVV+CZhaGf2LIG7dL1w2F1tnYCmrBCDXMjLk6faQMlP1cF0eBIMBLxW3KNERFaJsJG6xy82d66uc5PD3SVMuylpT4HwUwNOtI1NVkdG0/pkMlWcAYwShJjbgAucTBvrh5VhKm1Eh5SUHQcxVGYHHT9NTL59Ou1VKAcruTxmvKvhf6r9XE+qXq7X3VB0BRerRQUQ7hgbLxpgkrdUFWSl6iSLfXSiSg0POrSpxgFcQlBlFM0LGak+n11WKzULw8xxg6R+mEuEwLt3oiPPqF0yJvesEOMa57UCg8LJ66yUDv0eNZ9q6RL27sODOpixAuGk+0rBo9khoIFmFLPBHmroOdoFJNIqsA0JGCqqONxkYNVhaJWyu/pE0QqsGUZyqHgBvrScVEUXmmk7oujQlEZJrNsmQtA2y6Ga4pC5ytpyWEW9cVgLnVaG0qE8KQg76puRHMEP6VwsYk09VMDxJdfybcmV98kSCctfXj8Ew4e4rxrsWTgdI8EN//a5CZN1qBAuMaODiqgEGDDV6Z12xZodyJ11M5XYhckJL6Omhzuy6v5NvcII3rCrQjCoN0ItzESzLosCwtTMm1XbICMVigBkKLz5HashrGTY1oLMj4pXV7ppHxXPps5+qhdXfSm8BXeko3MM4qqH2qvFGhmKxLXXH6r6tX029ncM8ACgSUySbHnPLNP13QZxM2Z9N2VeKpYjnqqmRcSRdn7nfgfJ4RQMEdOFMSxbqhOEQ5qWDPRUdYIxogihNt+XztwhtrUjA9ujUVBA8IKFVDdkgKww9Ro300FLNaxuVWzB2teuvUHIJoKYap9rCZ1l/eGlUGIuFGCSCQOS8LcSDvdbTiTjtNeVkymvb3PfQmcbOnLwy8FKHb9Vb54a+N5xE0BPndyyBpKaZPK1Dke2j6rFvGZgWN3uVQpHm6TMq46ke5WTkoAAa69DvcokmRD1RBC9MCaxp+qHO9rXDywgQKMWfJX/+qsAAiigmWphuPLwCmHxQ9dNEQZAkYi8A76/2vHT0qqa/dtzify8NA+0doPkvDqekbtpqx07q7yj3luNT5IZS5L16R4jqmm5qKWrP3fGbfE0fUu/Mum2cUj1qNBEjqH4Gr4BlNCIyPeJyAQPHBOJ91TTm2Qmy9ZPf90FpggZ8CVZrF2ZHHQ6Excb14jrnfGbAclLXhYABjrimZFS6rqTbSeRIImBSypIbJ1pL/ZqUjibjkHIn/PCuEcWq+v8sN8YLzV7HdWyMFdg9tGGP+HTlnbVQBSSCsyMbS+kvBqFVdVU2+jx+BLLlQyKOspW0Udcb4Fgr4sRAdlh6aO0QrcN8vcukhBdAtKR8LgGMlpAjKjXdumcAACO16UaPYEFrrT3ISpM/hk6HiWKwC8ZlL5xHleATpKlqM0M8TvhsoUGXu3gRtK+I0g657myjkKiZGFCHffWGat8EgLluaAC8kqDg2ow5NkqSGxVsIsqTO61gKsooCrO1A7Jp3pT5lLtZAPMOsrREdFwR9YZvaOmWdyWrND77AjSyzvtbmVbOqqsatOSMilqcF7pxfEuam5Hlm6hQlx3YbKE9gVVzLQjMt6uigv6AIRAdPsk1Ynue1XfhaDdKiKooT6rBSi8Uy9PD0DBqPFW34lcUSae0UnlV32yBEqDEJSXHztv6X84am7t40R1QzX5INJ/+M/ph4NorL8dyNAx2KOP8yDaorrbeBLZnvb6h54HA0vVuZDUQN9TJ15Vbnrsh0cqWw2N5eq4EIoTcQx11KAzceoHR4mo1KTq83w7lAf3oHuq9UDFGoWHdlKH2nLBBXMHZf7du/ljA+zffX0HVzK/ruO0VZ8OUequyT21nF5xZPZPkxeuZM/2zsOrYvN6GtGeBAyIlNEqUDF6Ob7DveHtjOJpn2hWU9dHNLMO3Eqbo9G8jiwk0bNtnsdUPiUAthoQujY1dQRNR4fRbskRZUVnv66Ok0Eu7/MS9JxLHxcEtaHR1ScFjwx754NWIuxJKu0aTBharqoz2Rg5HmSoBb/HZ5K8jkPg7kFZfaTTVAl6wc+obX2OgYr0pDGpmpo29S5EFqurogOUvw7kMmpmT71l6tRmJgpTpfODqHK1cen0Hnhisho6P7h0jAno7Hg1hx8JOkAA7d7dpTY+vI+OKDpoTmzp8xjIsB/kXONvRymbxMVm/pvTWU8Ve9XGr87QxmqoHVr9KiADJJTVv5ayqv+4P66Cq/YCUVZhIZLwvdCiq/pUhFCPKimgGRYReNNnjwCujD3pYx8Y3ftkBMwIyAuRqrEAUFBbTpSUwSG6jpJDRJtq3xK6TDfXr2WECU3uUYX42IjXZ6gqHrZZdXa8NmSRl7bAtfns4E9tb4FY41V+w7fNeyL+1eHyGiy8WEMtu3bVOmYdPxIwDFOno0znGJvTUQk1ViBCYKb6NDiQjD+rB5pH4ILfMLga3NUtfcsPzSLFDV3qIzf4xj3R4tUiqpIWzNLSZxuuHzKXgNHKk0fqAto6uYlvBxRAqYWvnO/4cY25O4iSJZj+s6uoTavnYN/jgRBn/TsfEqEOTb6p6pWYmLOjuH82sS6pHrwk+CTXKd8Dx1gpOsgsvXKSrCL5kiNIWVRj20cNAgN1MlWTjYJPok51EXS0UOhrN5OKaVA4c7/VemrcUCdgFxg2yH7gAjd/66cAhAVWs1rTBuiSVN9AD3LB3vCEZYxdTc9NO6Dqm0cCXm2vHnX5E9mAVoM8ZHU+pWsg8R+O4f/pWL4OTUoJmVqcGMHE1kbRjFondf4Jgi7qYu06Q/dthYtqhdYOLxEP4fLcRhwRQBctpU5rtYw+1zqewxLOfbYutY+xa40n4fEVXA39o36OdzylEtLunSC53jbGeun8eVD580w9+lbzTNep1Sb0uGr0eyd3ESl3YnD1cS3AiD7Uwt36AKP8LGzw5WdL07/7FUni5IYrLpkR4SNsbh2VIZm6jtWqtxoVzPQDQ+pxWTN8Pk0C2ONRvFY0XFXAHErms4X7ZLqsEpnnVSp8LQteZVRw/fF7n/q0B+3WHPWCay5xc+dpd6fjpkU0kfSTrgpsglFVopNzuTr5zzXJ97Q/zToZOABM749bF53Iya6ZIknHwxWg2jzUmasjYv7HX/915O6vhp4+I/+MO70dfu3UNVmKv3tw9349/Zi4hm5J76Io7k83m85gqYvgFnXUbnWXVn3ezvtpVO/am3j3Dxf47DT8YdqY3jdxXlvMa6rjCougIq/O0xJtTPv78e/m/Z8u8WlP/TGBb/rcc16awR/T/519NZf+Ov9RH3MAN+nzRRCRGLh3Pl/ddBAkwI6DSQmfgGBSqO4Kb+gItxzr0mealJq/4T5C/zuE1AaiPpbx/wD34oddPeYLRgAAAYRpQ0NQSUNDIHByb2ZpbGUAAHicfZE9SMNAHMVfU0tFWhTsUMQhQ3WyICriqFUoQoVQK7TqYHL9hCYNSYqLo+BacPBjserg4qyrg6sgCH6AuLo4KbpIif9LCi1iPDjux7t7j7t3gNCsMtXsGQdUzTLSyYSYza2KwVf4EcAAogjLzNTnJCkFz/F1Dx9f7+I8y/vcnyOcL5gM8InEs0w3LOIN4ulNS+e8TxxhZTlPfE48ZtAFiR+5rrj8xrnksMAzI0YmPU8cIRZLXax0MSsbKvEUcSyvapQvZF3Oc97irFbrrH1P/sJQQVtZ5jrNYSSxiCVIEKGgjgqqsBCnVSPFRJr2Ex7+IccvkUshVwWMHAuoQYXs+MH/4He3ZnFywk0KJYDAi21/jADBXaDVsO3vY9tunQD+Z+BK6/hrTWDmk/RGR4sdAf3bwMV1R1P2gMsdIPqky4bsSH6aQrEIvJ/RN+WAwVugb83trb2P0wcgQ12lboCDQ2C0RNnrHu/u7e7t3zPt/n4ACiNyfaRvjwAAAA0caVRYdFhNTDpjb20uYWRvYmUueG1wAAAAAAA8P3hwYWNrZXQgYmVnaW49Iu+7vyIgaWQ9Ilc1TTBNcENlaGlIenJlU3pOVGN6a2M5ZCI/Pgo8eDp4bXBtZXRhIHhtbG5zOng9ImFkb2JlOm5zOm1ldGEvIiB4OnhtcHRrPSJYTVAgQ29yZSA0LjQuMC1FeGl2MiI+CiA8cmRmOlJERiB4bWxuczpyZGY9Imh0dHA6Ly93d3cudzMub3JnLzE5OTkvMDIvMjItcmRmLXN5bnRheC1ucyMiPgogIDxyZGY6RGVzY3JpcHRpb24gcmRmOmFib3V0PSIiCiAgICB4bWxuczp4bXBNTT0iaHR0cDovL25zLmFkb2JlLmNvbS94YXAvMS4wL21tLyIKICAgIHhtbG5zOnN0RXZ0PSJodHRwOi8vbnMuYWRvYmUuY29tL3hhcC8xLjAvc1R5cGUvUmVzb3VyY2VFdmVudCMiCiAgICB4bWxuczpkYz0iaHR0cDovL3B1cmwub3JnL2RjL2VsZW1lbnRzLzEuMS8iCiAgICB4bWxuczpHSU1QPSJodHRwOi8vd3d3LmdpbXAub3JnL3htcC8iCiAgICB4bWxuczp0aWZmPSJodHRwOi8vbnMuYWRvYmUuY29tL3RpZmYvMS4wLyIKICAgIHhtbG5zOnhtcD0iaHR0cDovL25zLmFkb2JlLmNvbS94YXAvMS4wLyIKICAgeG1wTU06RG9jdW1lbnRJRD0iZ2ltcDpkb2NpZDpnaW1wOjI4NTQ2NTlhLWYwZTUtNGM4Ny1iYzMyLTlmMGRhZmUwYmNkZiIKICAgeG1wTU06SW5zdGFuY2VJRD0ieG1wLmlpZDo3MmRkZjVmMC1kYjM0LTRmYjAtOGU3ZC0wZGQ4Y2UyNTAzNTQiCiAgIHhtcE1NOk9yaWdpbmFsRG9jdW1lbnRJRD0ieG1wLmRpZDpjMmU0YTdlMS1lOTMxLTRmMzEtYjk5Yi0zN2VlNjJmMjliYzkiCiAgIGRjOkZvcm1hdD0iaW1hZ2UvcG5nIgogICBHSU1QOkFQST0iMi4wIgogICBHSU1QOlBsYXRmb3JtPSJNYWMgT1MiCiAgIEdJTVA6VGltZVN0YW1wPSIxNjc4MDM0MDMyNjg4ODY5IgogICBHSU1QOlZlcnNpb249IjIuMTAuMzAiCiAgIHRpZmY6T3JpZW50YXRpb249IjEiCiAgIHhtcDpDcmVhdG9yVG9vbD0iR0lNUCAyLjEwIj4KICAgPHhtcE1NOkhpc3Rvcnk+CiAgICA8cmRmOlNlcT4KICAgICA8cmRmOmxpCiAgICAgIHN0RXZ0OmFjdGlvbj0ic2F2ZWQiCiAgICAgIHN0RXZ0OmNoYW5nZWQ9Ii8iCiAgICAgIHN0RXZ0Omluc3RhbmNlSUQ9InhtcC5paWQ6NTFmYzViMjktYTRiMC00N2ExLWFjMjItZDAzMTBlNTJmMjM1IgogICAgICBzdEV2dDpzb2Z0d2FyZUFnZW50PSJHaW1wIDIuMTAgKE1hYyBPUykiCiAgICAgIHN0RXZ0OndoZW49IjIwMjMtMDMtMDVUMTc6MzM6NTIrMDE6MDAiLz4KICAgIDwvcmRmOlNlcT4KICAgPC94bXBNTTpIaXN0b3J5PgogIDwvcmRmOkRlc2NyaXB0aW9uPgogPC9yZGY6UkRGPgo8L3g6eG1wbWV0YT4KICAgICAgICAgICAgICAgICAgICAgICAgICAgICAgICAgICAgICAgICAgICAgICAgICAgICAgICAgICAgICAgICAgICAgICAgICAgICAgICAgICAgICAgICAgICAgICAgICAgIAogICAgICAgICAgICAgICAgICAgICAgICAgICAgICAgICAgICAgICAgICAgICAgICAgICAgICAgICAgICAgICAgICAgICAgICAgICAgICAgICAgICAgICAgICAgICAgICAgICAgCiAgICAgICAgICAgICAgICAgICAgICAgICAgICAgICAgICAgICAgICAgICAgICAgICAgICAgICAgICAgICAgICAgICAgICAgICAgICAgICAgICAgICAgICAgICAgICAgICAgICAKICAgICAgICAgICAgICAgICAgICAgICAgICAgICAgICAgICAgICAgICAgICAgICAgICAgICAgICAgICAgICAgICAgICAgICAgICAgICAgICAgICAgICAgICAgICAgICAgICAgIAogICAgICAgICAgICAgICAgICAgICAgICAgICAgICAgICAgICAgICAgICAgICAgICAgICAgICAgICAgICAgICAgICAgICAgICAgICAgICAgICAgICAgICAgICAgICAgICAgICAgCiAgICAgICAgICAgICAgICAgICAgICAgICAgICAgICAgICAgICAgICAgICAgICAgICAgICAgICAgICAgICAgICAgICAgICAgICAgICAgICAgICAgICAgICAgICAgICAgICAgICAKICAgICAgICAgICAgICAgICAgICAgICAgICAgICAgICAgICAgICAgICAgICAgICAgICAgICAgICAgICAgICAgICAgICAgICAgICAgICAgICAgICAgICAgICAgICAgICAgICAgIAogICAgICAgICAgICAgICAgICAgICAgICAgICAgICAgICAgICAgICAgICAgICAgICAgICAgICAgICAgICAgICAgICAgICAgICAgICAgICAgICAgICAgICAgICAgICAgICAgICAgCiAgICAgICAgICAgICAgICAgICAgICAgICAgICAgICAgICAgICAgICAgICAgICAgICAgICAgICAgICAgICAgICAgICAgICAgICAgICAgICAgICAgICAgICAgICAgICAgICAgICAKICAgICAgICAgICAgICAgICAgICAgICAgICAgICAgICAgICAgICAgICAgICAgICAgICAgICAgICAgICAgICAgICAgICAgICAgICAgICAgICAgICAgICAgICAgICAgICAgICAgIAogICAgICAgICAgICAgICAgICAgICAgICAgICAgICAgICAgICAgICAgICAgICAgICAgICAgICAgICAgICAgICAgICAgICAgICAgICAgICAgICAgICAgICAgICAgICAgICAgICAgCiAgICAgICAgICAgICAgICAgICAgICAgICAgICAgICAgICAgICAgICAgICAgICAgICAgICAgICAgICAgICAgICAgICAgICAgICAgICAgICAgICAgICAgICAgICAgICAgICAgICAKICAgICAgICAgICAgICAgICAgICAgICAgICAgICAgICAgICAgICAgICAgICAgICAgICAgICAgICAgICAgICAgICAgICAgICAgICAgICAgICAgICAgICAgICAgICAgICAgICAgIAogICAgICAgICAgICAgICAgICAgICAgICAgICAgICAgICAgICAgICAgICAgICAgICAgICAgICAgICAgICAgICAgICAgICAgICAgICAgICAgICAgICAgICAgICAgICAgICAgICAgCiAgICAgICAgICAgICAgICAgICAgICAgICAgICAgICAgICAgICAgICAgICAgICAgICAgICAgICAgICAgICAgICAgICAgICAgICAgICAgICAgICAgICAgICAgICAgICAgICAgICAKICAgICAgICAgICAgICAgICAgICAgICAgICAgICAgICAgICAgICAgICAgICAgICAgICAgICAgICAgICAgICAgICAgICAgICAgICAgICAgICAgICAgICAgICAgICAgICAgICAgIAogICAgICAgICAgICAgICAgICAgICAgICAgICAgICAgICAgICAgICAgICAgICAgICAgICAgICAgICAgICAgICAgICAgICAgICAgICAgICAgICAgICAgICAgICAgICAgICAgICAgCiAgICAgICAgICAgICAgICAgICAgICAgICAgICAgICAgICAgICAgICAgICAgICAgICAgICAgICAgICAgICAgICAgICAgICAgICAgICAgICAgICAgICAgICAgICAgICAgICAgICAKICAgICAgICAgICAgICAgICAgICAgICAgICAgICAgICAgICAgICAgICAgICAgICAgICAgICAgICAgICAgICAgICAgICAgICAgICAgICAgICAgICAgICAgICAgICAgICAgICAgIAogICAgICAgICAgICAgICAgICAgICAgICAgICAgICAgICAgICAgICAgICAgICAgICAgICAgICAgICAgICAgICAgICAgICAgICAgICAgICAgICAgICAgICAgICAgICAgICAgICAgCiAgICAgICAgICAgICAgICAgICAgICAgICAgIAo8P3hwYWNrZXQgZW5kPSJ3Ij8+GK6I3QAAAAZiS0dEAP4AmAAA/Ue8CwAAAAlwSFlzAAALEwAACxMBAJqcGAAAAAd0SU1FB+cDBRAhNAbmSV4AACAASURBVHja7J13eFVV1sbfc24v6QkJoZfQe++gFBEFRYpdAcvYy1gZdZxx5rOOYu8KIhbsIgpI79ITIPQkQAghvdzezvn+uGIFSblnn7Z+z+Pz2EjuPWW/e6291no5URRFEAShGgKBAPx+/y//nJCQQBeFIIhf4OkSEIS6MJlMdBEIgjgrRroEBKGy3TjPw2AwwGQywWAw0AUhCOJ3cJSKJwiCIAgNbf7pEhAEQRAECTtBEARBECTsBEEQBEGQsBMEQRAEQcJOEARBECTsBEEQBEGQsBMEQRAEQcJOEARBEAQJO0EQBEEQJOwEQRAEQcJOEARBEAQJO0EQBEEQJOwEQRAEQZCwEwRBEARBwk4QBEEQJOwEQRAEQZCwEwRBEARBwk4QBEEQBAk7QRAEQZCwEwRBEAShaox0CQhCvQRDIg4Xh1FUHkZxZQSl1QLcfgFuvwh/UEQoIp71zzqtPBxWDk0SDGiWakCHZiZ0am6C0UDXlSBI2AmCYMa+4yF8s9mLvcdCOHIyhIgQu59tM3MY0NGC8X2tGNXDCrORowtOECqDE0VRpMtAEMonOz+I95a5sWl/gMnvS47jcfkIB64Y4YDTRgJPECTsBEHEhC0HAnhvuRs7Dgdl+f12C4fpIxy49nwHEh1UlkMQJOwEQTSIdXv9eP9HN/YcDSni81hMHKYMteO60Q6kJdBBPEGQsBMEcU5EEViR7cfc5W4cPBFS5Gc0GThcMtiG68c4kZlMAk8QJOwEQfwJQQB+2O7DByvcyD8VVsVnNvDAhP42zBzrRKsmVIdLECTsBEEgHAG+/cmLD1d5UFgWVuV34DlgbG8bZo5zICvTRDeVIEjYCUJ/BEMivtzoxYLVHpyqimhjMeGAkd2tmDXWia6tSOAJgoSdIHSALyhi4ToPPl7jQUWtoNnvOaSzBTPHOdGnnZluOkGQsBOE9nD7RHy8xoNP13lQ4xF08737Zpkxc4wTgztb6CEgCBJ2glA/NR4B81d58Pl6Dzx+/b5q3VqZMHOcE6O6W+mhIAgSdoJQHxW1AuatcOOrTV74g/SKnaZDMxNmjnVgbG8bOBpmRxAk7AShdE5VRTB3uRvfbvb9pQGL3mmdbsTMsU5M6GcDT8PsCIKEnSCUxvGyMN7/0Y0ftvliasqidZqlGHD9GCcuGWQnVzmCIGEnCPnJKw7jvWVuLN/lg0BvUoNpkmDAdaMdmDLUDrOJcvQEQcJOEIzZdzyE9350Y+0eP+gNih1JTh7XnO/A5SMcsJlJ4AmChJ0gJIa1dapeibPxuGqUA1eOsiPORofwBEHCThAxRm7rVL1y2jL2mvMcSHKSwBMECTtBNBKlWafqldOWsdeOdqAJWcYSBAk7QdQHNVin6pXTlrHXjXaiWQoJPEGQsBPEX6BG61S9ctoydsYYJ1qnk2UsQZCwE8Rv0IJ1ql45bRk7Y6wDHZqRoxxBkLATukaL1qm6Xch+toydOdaJbmQZS5Cwk7AT+kIv1ql6ZUhnC2aMdaJve7KMJUjYCULT6NU6Va/0bW/GzLFkGUuQsBOE5iDrVH1DlrEECTtBaASyTiV+C1nGEiTsBKFSyDqV+CvIMpYgYScIlUDWqUR9IMtYgoSdIBQKWacSjYEsYwkSdoJQCLnHQ3ifrFOJGEGWsQQJO0HIxK68IN7/kaxTCWkgy1iChJ0gGPHTgQDeJ+tUghFkGUuQsBOERKzdE3VaI+tUQg7IMpYgYSeIGCCKwPJdPsxb4SHrVEIRkGUsQcJOEA2ArFMJpUOWsQQJO0HUgdPWqfNXunGinJzWCOVDlrEECTtBnIHT1qkfrvaghKxTCTUuomQZS5CwE8Sv1qkfrfag0kVj4ghtQJaxBAk7oTtOW6d+staDWi8JOqFNyDKWIGEnNM9p69TP1nngDdAjR+gDsowlSNgJzVFeK+CDFW58udGLQIgeNUKfkGUsQcJOqJ7iygjmrSDrVIL4LWQZS5CwE6rjWGkYc5eTdSpB/BVkGUuQsBOK58jJqBc6WacSRN0hy1iChJ1QHGSdShCNhyxjCRJ2QnbIOpUgYg9ZxhIk7ARzyDqVIKSHLGMJEnZCcsg6lSDYQ5axBAk7EVPIOpUglAFZxhIk7ESjIOtUglAmZBlLkLAT9YKsUwlCHZBlLEHCTvwlZJ1KECpdwMkyliBhJ34LWacShHYgy1iChF3HkHUqQWgXsowlSNh1BFmnEoR+IMtYEnZCw5B1KkHoF7KMJWEnNARZp+qbpskGXNTfhgEdLGjRxACzkUNFrYCDJ0JYu9ePtbsD9FzoCLKMJWEnVAxZp+qbeDuPOyfF4dJB9r9cwE9VRfDC17VYme2ni6YjyDKWhJ1QEWSdSnRpacLzNyXVa/zo5+u9ePbLGgi0CdQVZBlLwk4oGLJOJQCgV1szXrstGdYG2H5+s9mL/3xSQxdRh5BlLAk7oSDIOpU4TXqiAZ8+nIp4e8MPT59cWIMvN3rpYuoUsowlYSdkhKxTiT/y/E1JjW5r8vhFXPJEKarclJPXM2QZS8JOMISsU4kz0bGZCR8/lBqTn/XuMjfe+N5FF5Ugy1gSdkIqyDqVOBf3To7HNec5YvKzSqoiuOhfpVSrQfwCWcaqD/L9UyhknUrUlQEdYjcbPD3JgLYZRuQV0zNHRAlFRHyxwYuvN3nJMpaEnWgIZJ1K1AeOA9pkxPY1bt/URMJO/ImIAHy3xYfvt/rIMpaEnagLZJ1KNASnlYfJENsWpZR4Kpgizo4gAst2+vDjLh9GdrNi5jiyjCVhJ34HWacSBKFGRBFYs8ePNXv8GNzZgplkGUvCrnfIOpUgCK2weX8Am/cH0KedGbPGkWUsCbvOIOtUgiC0ys68IHa+UYmurUyYRZaxJOxah6xTCbVAG06iseQeC+G+d6qQlWnCrHFkGUvCrjHIOpWQErdfgCgipovm8VKqiCdiw+GTIcyeV403f3Bj1jiyjGUFDaiRCLJOJVix9D9NkBbDyWCjZ5eg2kMPLRF7MpMNmDGWLGNJ2FUGWacSrHnrzhT0y4pNNXKtV8B5D5fQRSUkJS3BgOvJMlYyKBUfI8g6lZDt2TsWjJmwF5RQGp6QnrKaCP73VS3eXebGtaMdmD7cAbuFBJ4idoVA1qmE3PTvYMabd6TE5Gct+smLf39MvuwEW05bxl4x0t4o62GCIvZGQdaphFLIyQ8hFBFjMoHu8EmK2An2uHwC3lriwoer3Jg+woGrRzmQHEcCT8LOiE37A3h7iYusUwnFEAyLOHgiHJOxnlsPUeaJkA9vQMS85W58ssaDKUPtuOZ8B9ITqcqOhF0i8orDmPNNLTZTyp1QIAcKQ40WdrdPxBGK2AkFEAhFJ3N+vt6LSwbbcP0YJzKTSeBJ2GMYDb3xvQsfrfZQ2xqhWArLGi/IJdVkPkQoi9OWsd9t8eGGC5y4brQj5qZHWoQOMc4RpV/zXDnmryRRJ5RNWU3jH1C3jx5yQrkR/OuLXbji6XLszKO6JhL2BrJ8lx/XPV9OvtSEKohFtF1aQ8JOKJujJWH87eUKvPKdi4ItEvb6MXe5G7PnVcEfpE5AQi0Re+OFvcJFqXhC+QgiMG+5GzNeKI/JERQJuw545TsXXv3ORUNmCFVRWt348KWMInZCRew7HsK1/6vAxn1U0EzC/he8+p0L85a76UIQqiMUEVHpapwwl9dQxE6oC5dPwD1vV+KLDV66GCTsf+bTtR7MJVEnVEx5beOEubEbA4KQA0EAnvqsBvNW0PpNwv4bthwI4Pmva+lCECoX9sYJMzm6EWrmlUWUcSVh/5mKWgGPzK+GQGsaoXJKG1kZX1FLLwGhcnH/zoVvNlNaXvfC/t9Pa1DlpgWN0EDE3sjityqK2AkN8NRnNdiucw8PXQv76t1+rNvrpzeB0ASNEWZfUEQwRK0ghPoJR4DZ86oafTRFwq5CIgLw0rcuegsIzeDxC434syTqhHaodAl44uNqEna9sWS7j4YbEBoT9oaLMw1jIrTGxn0BLN3uI2HXEx+t9tCTT2gKb0BsxJ+l83VCe8z5phY+HW5adSnsB4tCOFREfuqEtghFGr6AUSqe0CLltQI+Xau/IE6Xwr4qhwrmCOK3CKTrhEZZsMqju8JQXQr7lgM0W5jQHka+4T7VRgNdP0KbVHsELNmhr7N23Qm7IACHiqhojtAeSc6Gv842M0cXkNAs324mYdc0eadCCFC/LqFBUuJpQjRBnIndR4MoqdKPyZHuVoKcfCqaI7RJt1amBv/ZZilG8BS0ExpFFIENOrJ31Z+wFwTpKSc0R1qCAaO6Wxv85x1WDgM7WehCEpplZ55+1n4dRuwk7ITGXmIe+PfVCTCbGhdy331JHKx01k5olD0FJOyapNIloKgiQk84oSlR/881iTGJtrMyTXh6RhJMBhJ3QnsUVUR0Mz9eV8KeTdE6oTHuvywe4/vZYvbzhnez4NkbEqn9jdCmBugkHa8rYafzdUJr9G0f+3PxEd2saNXESBeXIA0gYVc+uwuoIp7QFgkOadLmiQ5qnSNI2EnYFU4wLGL/cRJ2QmvCLs0r3JhhNwShVA4U6mOOiW7e3v3HQ40yySAIpZHk5GE2ShOxx9tJ2AntERGAvUe1H+Dp5iCNCucItZEcxyMjyYCmyQY0TTL8+vc//yWl+F472oF+Hcw4VRlBabWAkuoITlZGUFgWbpQ9LEHIze6jQfTNMpOwa+Jm0vk6oVAykgzo3MKENhlGtE7/+a8mRjis8rWdtUwzomXamZeHspoICssjOFYSRt6pMA6dCOFQURguH3m6E8pnV14QM8dSxK6ZXRpByE28nUfvdmb0aGNC5xYmdGpukuycXCrSEgxISzCgT7vfRz3FlREcPBHCnqMh7C4IYl9hCP4gRfeEsthzNARRBDgNj2vQhbAfLwuj0kXRBMGeBAePAR3M6NPegr7tzWibYdTsgnL6iGBUj+hoW0EADhaFkJ0XxJZDAew8EoTHT0JPyEutV0BBSRhtM7Qrf7oQdkrDE6zgeaBLCxOGdrFicGcLurYy6dZcheeBzi2imYkrRzkgCEDu8RC2HAxgQ64fucdCEEjnCRnIyQ+SsGvhJhKEZC+RARjQwYLRvawY2d1KrWJ/IfTdW5vQvbUJN17gRLVHwIbcANbt9WPz/gAV5RHMyM4PYvIQOwm7qoWdJs4RMcbAA4M6WTC+rw0ju1tlLXRTK4kOHhcPsOHiATYEQyI27Atg2U4f1u8N6KLXmJAPrWdxNS/sbp+IglNhepKJmNCxuQkXD7BhfF8bkuMoMo8VZhOH83tacX5PK3xBEev2+rF4iw8/HQhQup6IOafrrrT6Dmte2HcfDdLCQDQKh5XDRf1tmDrMgXZNaYa61NjMHC7oY8MFfWworYlg8RYfvtviw/Ey2qATsYzag78UepKwqww6XycaE51PG2bH+H422MinXBaaJBgwa5wTs8Y5sf1wEAvXebB2jx8RanIhGqsNJOzqvnkEUVd4DhjW1YrrRjvQu52ZLoiC6JdlRr8sM0qqI/hygxdfb/ZSGyvRYLLztXvOzomiqNlEtSAAIx86RdW2xDmxmKLp9mvOd5BlqUoIhkQs2uLDh6vcOFEeoQtC1AuTgcO659Il81ugiF0iDhWFdCfqHBedMW42cqhyCzT5qw6CPmWoHTPGOJEST8VwasJs4jB1mB2XDbVjVbYf7y934+AJmllB1I1QRMT+whB6ttFeZk7Twq6XNLzJwGF8PyvG97WhZ1vz786Dqz0Cth4MYGWOH6tz6GySBF178BwwprcVY3pbsWaPH28vIYH/K1qkGdGjtQkp8TxEEahyC8g9FkJBif6KE7PzgiTsakMPE+f6ZZnxz6sS0SzFcMb/nujgMa6PDeP62FBUEcGr37nw406ffkWAByYNtOOWCU6kJRholdcYo7pbMao7CfwfsZk5XDrEjunD7Wc19yksC+PTtV58udGrG4vrHI1qhKbP2C96vBSnqrR79nbxABsevzqx3iNLP1/vxTNf1EDUWZZ+eDcL7pwYTy1rOkEUgSXbfXh1sQslVfo9gx/Ty4qHpiXUuWf7yMkwHny/CsdKtR/BJzp4rHwqnYRdLZTVRDD+sVLNPpB925vx5h0p4BuYRV69249/flitixqEdk2NeGhqguY9mIkzEwyJ+HitB3OXu+H26Wc3y/PAQ1MTMHVY/UenVnsEzJpToQtx/+rRNM0VzGr2cFHLrQxmIxeN1Btx987rYcUH96UiPVG76WinjcN9l8Xj04fSSNR1jNnEYcYYJ779ZxNMHmLXhSmPzczhtduSGyTqpyPZ525I0mTF+B/R4qwTzQq7lgvnLh5gO+uZen1om2HE23elaE7cOQ64qL8NXz/aBFeNcjRqA0Roh0QHj0evSMC8v6eiS0uTZr9nkpPHB/elYkAHS6N+TrumRlw1yqF9YdfgObtml7zdGhf2WNE81YC370pBqkYqw5ulGPDarcl44tpEmuVOnJGurUyYf18q/nF5AuJs2npGkpw83rozJWZ1JFfqYGNMEbtKCIREHCjUZireZODQvXVs08rNUw14+ZZk2C3qTbvxHHDVKAcWzk7DwE4WEMRfwXHAlKF2fPFImmbGijptXExFHQBS43lNtoP9lqOlYdR6tdUHrElhzz0e0my/dmaKQZIddMfmJjw9M0mVu/MWaUa8d08K7rssnma6E/UWrudvTMIzM5NUneExGzm8eHOyJB0fXTV8bAFEuydyNFaTpUlh17Lxi9UknXAN7WLBs7OSYFWROF462I5PHkpFjzZUHEc0nDG9rfjykTSM6a3O6P3RKxMk8zbQw7yHbI0d3WpS2LM1LOw+iUfEntfDiuduSIJB4U9GkpPH8zcl4bErEyhKJ2JCvJ3HMzOT8O9rEuGwqueZumVCHC7qb5Ps5xt0UKqyO5+EXfHsOardVrfiyojkxwxDOlvwyBUJ4BS6tvVpZ8anD6dhVHcrCCLWXDzAhk8fTkPPtsrPAs0Y68RN452S/o4qt/bnUOceDyGsoRlGmhP2oyVh1Hi0+yCGIiL2HpV+d3nJIDvumxyvqO/OcdGF7K07tVPFTyiTzGQD3r07BbPGORW7wb13cjzunBgn+e/JP6X9ITWBkIgDGho/rLnVUctp+NOsyvEz+T1XjnLg1oviFPGd4+085tyUjDsnxlFfOsFmceSA2y+Ow8u3JCPBoayH7s5JcbjmPOl7zAUB2HFEH2ZaWtIOzS2RejB+WbTFJ/lZ+2luvMCJ68c4Zf2+7ZoaseCBVAzvpt82thPlEazM9uP1xS48Or+aye+s9gj4YZsPOQVBXaRjz8aQzhZ88mAqurdWRnX4zLFOzGD0Tq7P9WuuFezs2qEdYdecG4YerFprvQLeW+bGHRPZRNN3TYqDxy/giw1e5t91ZHcr/ntdoqp77OtDOALknQrhYGEIB4vCOHQihINFIXj8v27kYjF1sC5UuQU89uGvmwi7hUObDCOyMk3o0MyIrGYmdGpu0sW9SU+KDnJ6fEGNrO6I149xMnvvAWDucrduNnBaitg1Jey1XkEXpgUA8OEqN0Z2tzKLImZPT4DDyuODFWxedI4DZoxx4vaL4xR7xhmrqHjH4SB25gWRkx/E4ZPnLuJxWtkk2v4o2N6AiNxjIeQe+zUrxvNAuwwTerY1oUcbM3q3MyMzWZvtUWYjh6dmJCIzxYB5MgjejLFOJmfqp1my3afpQuQ/UlEroKgiwmzjTMJe12g9P6QbK9JwBLj/3Uq8d08qmqeyeRDvmhQVWakXNaMBePSKREwcaNPcfYsI0ZTfxn0BbNoXwKGT9X9mnTY2O526bCAEATh8MoTDJ0O/ZHSapxowuLMFAzta0D/LwuzzsuLOiXFonmLAk5/VQGCUpb5jYhxmjmV3JFZYFsbTn9dAb2TnB9EsRf3rjraEvSCoq4ewvFbAzS9X4IlrE9GPkXvZnRPjYOSBd5dJI+52C4dnZyVhcGftnKcHQyI27AtgzW4/1u71N9o61MEoYm9oL/eJ8gg+X+/F5+u9MBqAflkWnN/TipHdrZrpZpg8xI4miQY8+H4V/BLWu3AccO+l8bj6PHZmLKU1Edz5ZpWuLG5Ps7sgKOlMAFZoyo/9ppcqsDMvCD0ycyzbs7fP1nvx3JexjVhS43m8fEsyOjZX/whLQQA2Hwjgh20+rNvrj6nv/YX9bPjvdYlMvsfIh07FbIHnOaB7GzMm9LNhXB8r4u3qF/nc4yHc/WalJMWFUXvmBIzvy05oSmsiuP21Sl20uJ2J9plGLHw4jYRdKUQEYMSDpyTdPSudgR0t+MflCcxS86ty/HhkfjWCocZf8+apBrx2Wwqzzy4VBSVhfL3JiyXbfah0SZOnnTrMjtnTE5h8nwmPl6KkKvaTO8xGDsO6WjBxoA3DulpV7ZFeWBbGHW9U4kR57K5TgoPHnJuSmA7J2XM0hPverURFrX47IHgOWP10huqPjzQj7LnHQrju+XLoHYuJw80XOnHt+U4moyBz8oO4/72qRolY63Qj3rgjGU1UOpM6HAFW7PLhi41e7GKQMZoxxok7J7HJzkx/qgx5xdJGbxlJBlw21I7Jg+2qNWIprxVw++sVOHKy8deqTboRL9ychJZpbE5KQxER85Z78N4yN0IR/QZGp3nl1mQMUflRoGb62PV2vn42AiERryxyYdqTZVi9W/pBNj3bmrHggVR0a9Ww9Hn7zKgzmxpFvdYrYO5yNyb+qxSPzK9mIuoAmEYTLFrZTlVF8PpiFyb8sxSPzq/G4ZPqq8ROjY/6oHdt1bhjpAn9bfjwgVRmop5TEMRVz5TjzR9cJOoa0hLNFM/tJmH/HcdKw7j/3Sr0amvGDRc4Jd2Bpica8P69qXhtsQsfrnLX+dy9WysTXr89RVWGG0C0LWbeCje+2uSV5eiHVfEc698ViohYst2HpTt8GNTJgutHO9G/g3pc+xIdPN64PQX3vl1Z72ltZhOH+y+Lx5Shdiaf9WRlBK9958KynT7ddBLVWdg10M+umVT8+MdKUVYToafyLPRuZ8YjVySgTbq0e7m84jC+2uRFfnEYKfE82mQYUesV8Olaz+/6s9tnGvHOXSmqKqAqqYrg/eVufLvZJ2t088S1icwqdx96vworsv2yfdfurU24c1I8+rZXj8AHQiLufqsS2w4Fz5gBaZ9pwt5jQQhCVNBHdLXg1ovi0Dpd+jjL5RPw7jI3Fq71UoR+FmxmDuuezVD16GpNCPupqggueryUnshzRQVGDteNceCGcU6YjWyj5H3HQ3h0fjWOlYbRPtOIt+5MQaJDHW9OjUfA+z+68dkGb0wKBRvL8zclMXO2e+LjGnz7k1f279w3y4w7Lo5DjzbqEHhfUMQtr1Rg72+G+fTLMuPxqxORmWxAMCzCHxRht/AwMjiFCkeAz9Z78M5St25GxDaGBQ+konML9XbnaCIVrwfjl1gQDIt4d6kbS7f78I/pCRjYiV2BSJeWJnz8YCrmrXDjipEOVYh6MCzio9UezF3u/t1IV7mJs7FMxSvjmGTH4SBmzqnA+T2tuOfSeMVPB7OZObx+ewpue60C+afCuGtSPKYNt/9uk81qc73lYADPfF6rm6mcsSCnIEjCLvtNIGGvFyfKI7jt9UqM62PD/ZfFI4XR0BCrmcMtE+JUcY1WZvvx0re1KKpQ3vGOk6HYstxE1IVVOX5syA3gqlEOzBrnVHR9hsMaFfcaryDLmN1Kl4Dnv6rF0h0+EPXVlBCuGKHez68JYd+to3nGseTHnT5s3h/AvZPjcMkgO12Qnzc9Ty6swZaDAQULBjuxtStQOINhEfNWuPHdVi8emJKAsb2tCr5XHBxWtqIuisAXG7x4dXGtLqfHxYJslQ86U327my8o4lARCXtDcfkEPPFxDW55tSKmAzbURjgCvPejG9OeKlO0qJ8WCy1mB+pLRa2Ah+dW4a43K1FcSYWzAJB/KoxZL1bg6c9rSNQbQWlNRJLBTCTsdWTv0RAzIwYts+1QEJc/XYZP13p0990PFoVw1bNleH2xSxHFcecUW4Z97CyzAw1l474Apj6pz2f3NKGIiLeXuHH1s+XU+hurqF3F11H1wk7n67HDHxTx3Je1uPMNfYyVjAjA20vcuO5/5ZJPV4sVZiMHk4GlsHOqenZvebVC1ZFWQzhUFMLVz5bjrSUuBMMUpcdM2PNI2OUTdtqdxpxN+wO4/OkybMgNaPY7FlVEMGtOdDEMq0gHWAut2oYHbTsUxLSnyvDDNn0UjC1Y5cH1z1eoZmOqLm1R7xGvqoVdFKPGBUTsqXILuOftSry+2AVBY0HA0h0+XPlM2e96jEnYz/L7LOpbIjx+EY99WI1/fVStWVOo8loBt71eiTnf1FKULhGHT4bgU+nzo2phzz8VhstHB+xSbpze+9GN+96pQiCk/sUjFBHx5MIaPPJBtaL60usn7Dzj36del6vvtvhw3fPlmrMgzckP4qpny7DlgHYzakpAENQ7qlzVwk5peDas2+vHTS9XqFYMAaCkOoIbX6zAlxu9qr4XrO0kldbHXl/yisO47n/lso7FjSWLt/rwt1f0ba3Kkt0qTcerW9ipcI4ZucdCePKzGtU+J9c8V67K1PufhJYi9nrjC4p4eG4V3vjeperv8dl6L/71UTXNeGeIWqeaqlrYdxfQ+TpLlu3wKXIS21/xw7ZohNMYv3glwVpoOY6NdavUiCLw7jI3/v5OlSrPTY+XhTHnm1pyYmPMnqNBVdYYqVbYq9wCjpdRJSjrxVFNWZI3vnfhsQ+1FeHIEUGroZe9rqzd48dNL1WobqP38RqPKmYsaA2PX0ResfoCSNW+sZSGlwc1WOMKYtSV7N1lbs1df6cMZ95aiNh/y/7CEGa8UK4qU5R1e6hQTj6tIWFnBs2Hl4dASOmfT8Tf36lUhNWoViJ2p5XT3HWMzjGoQK4K6i68AREl1TQyVy52qTCIVK2wq31Iv1pZke1D7IGikwAAIABJREFUuUIrcr0BEXe/VYn1e7Ub3ThlSItrKRX/W6o9Am57vQK7FL6WUEuvvOwpIGFnQigiYv8JitjlIK84jFlzyhVX3+Dxi7j11QpsO6TtDZ88Z+ycZq+n2yfijjcqsf2wcp+bj1frdwa+EiiqiCg2mNGUsB8oDFMhicwP+qw5Fdh3XDmbqx+2+ZB7XPubPVlS8TZO09fUHxTx8qJaxY0WDkeAxxdUYwEJu+yoLUOsSmHPpsI52alyC9h5RDn3YdpwO+bclIwkJ6/p6+6gVHxM4Tjg8hEOvHt3CowG5Xyu07Uii7fqY+a90lHbMDRVvrFkSyg/fbPMuPo8h6I+0/BuFix8OA2DOlk0e93jbFQ8FyuS43i89LdkPDg1Hmajsr5jWY2g+WMlEnYSdorYFcbdk+LBKXC9T4nn8dptybj3UuUt1hSxK4dhXaObwKFdlLkJbJ5qwMyxTlpoFMKBwpCq/DJU98YWVUQ0M0VMrVzQx4aurUyK/ozXnO/AvL+noFUTI0XsjRZ27WyQzCYOD01LwEt/S0ZynLKXvxljHWiZpq3nV61EBGCvilqsVSfsFK3Li93C4d7Jcar4rB2bm/Dxg6m4bIidInYSdmRlmrDg/lRMH66O58Fs5DD78nhadBTC7qPq0R7VCTudr8vLzRfGIS3BoJrPazVzeOSKBDw7KwnxdnWnlC0mDgYZvoIaPdl/C8cBV45yYP79KWjXVF0R8IAOFozvZ6OFRwHsyiNhlww1jvfTCm0zjLhqlEOVn310LysWzk5F3/ZmFUfr8kTODhW3uyXH8Xj5lmTcf5l6ay7uvTRec2N91cieoyHVmPCoSti9AXUO5NcKD05NkCVijBVNEgx4884U3DExTpXfwylTEZtaq+KHdbXgs9lpGNJZ3V0SqfE8rhtNhXRyU+sVUFCiDn8BVS1vuwvUaaGnBYZ1taB/B7PqvwfPATPHOvH+valonmpQ1WeXK2KXw3imMfy2QE4rcw2uG+1AkwQDCHlRi/mYqp56KpyTTwzvnKitIp5urUz45KE0XNRfPeeXsgm7iiJ2tRXI1RWLicPtE+NAkAZpL2InRzdZmNDfhvaZ2mu7sVs4PHFtIv7v+kRVjE2VK3JWQx+7mgvk6spF/W3o2NwEQkYNKlCHBqlG2AVRnS47asds5HDrRdqOFMb3teHjB9PQs42yjxrkipwNfDS9rVS0UCBX183LnRS1y8rxsrAq5qioRtiPnAzBG6ADdtZMG25HRpL2z/aapRjw7t0puHG8E7xC3wo5z7qVmo7XSoFcXRnc2aLqzg5tRO3KDzB59VxMSsOzxmLicL2OqnF5Hrh1QhzeuSsFTZOVt5mRU1yVlo7XYoFcXfnbBIra5SSHhD127KLCOeZMHmxHSjyvu+/dq60ZnzyUirG9rYr6XHKKq5Kmz2m1QK6u9G1vRt8sitrlIlsFs1RUs2rT+TpbTAYO14126Pb7x9l4PD0zCY9flaCY4SAOWSN2+a8BxwFXn+fAhw9ot0CuzlH7hRS1y8X+4yEEw8o+FlaFsFfUCiiqiNATxZCLBtiQnkR9s5MG2fHRg6no0lL+amQ5xTVO5l721Hger96ajL9PjofJQFPYKGqXj1BExP5CZUftqhB2SsOzxcCDLCN/Q8s0I+bem4rrxzjBy6gpTjlT8TJmLUZ0s2Lh7DQM6mShh/E3XE/T6GQjW+Fz41Uh7JSGZ8uoHlbVTWWTGqMBuGtSHF6/PUU2Exy9peItJg6zpydgzs1JSHTw9BD+gaFdLLo/kpCLnAKK2Bu/O6KInSlXjGR/tr5ur18V16Z/BzMWPpyKUd3ZF9bJOUSHdeFeh2YmfPRgKqYOU0eBXP6psCzHhVefp986GFmFPZ8i9kYRDIk4eCJMTxLDBbVPO7Znd2v2+HHv21V44etaVVyjBAeP529KwuzpCbAwHNwiZyqeVavd6QK5+fenoE26OqLRnIIgbnixAi98xf75ndDfpsvOFbmp9gg4VqpcXVL8E7GvMIRQhAbTsIvW2UZIoYiIOT8L+kerPXjkg2qEVVInOXVYtLCuQzM2hXVaj9jVWCC3ITeA216rRK1XwJo9fmw5GGD6+00GDleMoKidonaVCTul4dlGohf2ZWuK8tFqD06U/6rkS3f4cNeblfD41bGZa5NuxAf3peDKUQ5wEmuRnH3sdokjdjUWyC36yYt736mEP/jrs/r8V7UQGE8cnTzETp0Ccgi7gs/ZFS/sNHGOHZMG2pjOBK/xCHj/R/ef/v2WgwHc9FIFKmoFVVw3s5HD/ZfF46W/JSM5TppXKs7Gy1qRL1XxnFoL5OYtd+OJT2r+JOJ5xWF8t9XL9LMkOXmM6kEdAxSxq0jYcyhiZ8bEgWzT8HOXu88amR8sCmHmnHJFn2P9kaFdLFj4sDRzy9tmyHvenCSB6KqtQO40//uqFq9854J4lqTS20vczI+TpgyldDxrjpaGUetVZvChaGE/VhpGtUegJ4gBXVqamLbOlNcK+Gz9X0c2RRUR3PBiBfaoyK43OY7HK7cm474YO43JPYykUwtTzL6PGgvkACAcAf4xrxqfrPH85f93qiqCz9d7mH62/h3MaJlGrW8sEUUgR6HjZRUt7JSG1260/s5SFwKhc5+jV7kF3PJqBTbkBlR1Pa8aFTvh4rlo9bOcWEwchnRpfCZCrRPkvAERd71ViWU7fXX6/99f7q7T8x3TqH2YPmfny0m2QmesKFrYc2gwDRPMRg4X9mPXl11SHcG3m311/v/9QRH3vlOJb3/yquq6ZmXGJtU8ob9NEZHtzeOdjRJjtU6Qq/YIuPnlCmw5UPfNZaVLwNeb2T6vEwfYYKS5UmyDz3wS9voLO52vM2FEdwvTWeALVnnq3cIoCMB/PqnBO0vdqrq2p4vDnr8xCQkNOKdOTzTgnkvjFfFdOjY3Yfbl8fWu/reaOfzjcnVOkCuqiGDGCxUNmg3+4UoP07P2BAdPY3cZk3s8pMj2XMW+ZS6fgIISGkzDgtE92UXrNR4B3zQwkhFF4M0fXHhyYQ0ElY02GNXDioUPp6JfPc7KU+Oj5/VK8hu/ZJAd/7wyoc7dEx2bm/DRA6mYMlR9aeJDPxdwFpY1bB06VRXB0h0+pp+Zdbuq3gmERBw4obwjY8UK++6C0FmrTonYRpTDu7ET9oXrvPAGGndjv9zoxQPvVTE/w2wsaQkGvHlHCu6cFHfOlOmIblZ89GCaImeBTxpkx8cPpmJ4N8tZo/d4O4+7JsXhg/tS0DpdfUVdO44EcdPLjW+5nL+SbYZpZA8rrGbqaWeJEmetGOli6ZthXS2wMVoIQhERn2+ITbXwmt1+3PpaJV68OQnxdvWkdzkOmDHGiTG9bFj0kxe78oIoqoyAA9Ak0YDe7cwY19uKTi1Miv4ebdKNePHmZJysjGDLgQCOlYbhDYhIiefRrZUZ/bPMTGcixJKV2X488kF1TCZe5hWHse1QEP07sOlqsJk5jOxmrXORHxGLIDQIKGxmv1HRF4uQnPN6sIvWf9zpR6Urdu2LOflBzJpTgdduS1add3zzVANuuzhO9c9PZrIBk4dopxr7iw1ePPNFTUynxy1c52Em7ABwYT8bCbvOg1BFhjqCAOQeo1Y3qTEbOYxgmoaPfW9vQUkYM16owJGTVI9BNI63lrjw1Gc1MR8Ju3avH6eq2FVYDepsht1C6XhWVNQKsjj7qU7YDxaF4AvSAbvU9G5vZuazve94SLLNWmlNBDe8VI4dRyjLQzQgkBCB//u0Bm8vkeY8XBCArzaya30zGThJph8SZ0dpHVyKFHbqX2cDy5df6h50t0/E7a9VYkW2n24sUWeCYREPvV+FrzZJ+3wu3upjWgzMsiCWUJ5mKVPY8ykNz4LBjHpegyERy3ZIL7ihiIjZc6vw6VoP3VzinHj80c3gqhzpn82S6gi2MrR0Hd7VAp5s2pmRTRE7RexKID3RwKyVatVuP1w+NjP/BRF47stavLzIRTeZOCvltQJueLECO/PYrTWLtrIraEtw8OjZxkw3mhH5xWG4fco5PlacsJdUR1BSFaEnRWJYTqj6bgv7Ct0PVrjx+IJqRU6FIuTleFkYM18ox+GTbDODq3P8TGuHhnelc3ZWCCKw56hyAlLFCTuNkWUl7Gx281VuAVsPyWPgsnirD/e8XdnogTiEdth3PIRZcypwspL9ji8QErF+L7sakMFUQMcUJRnCKE/YydGNCb3bsRH2Nbv9MW8fqg+b9wdw88sVMe2fJ9TJTweiz0KVW75ngWVxZ1amSVXDm9SOkoJSxd11GkwjPU2TDUhLYDPQhUVh0rnYXxid+X2inPLyemXpdh/ueatK9jbaDbkBZp+B44A+7emcnRV7j4ZkDWIUK+z+oIiDJyhil5pebdm87LVe+dLwf+REeQQzXijHvuP0fOmNj9d48OiHsRkR21gCIREbc9m9EwM7UjqeFb6giENFylhfFCXsucdCiFDGVDPCvmlfQFHFa1XuqK/2pv0Begh0wsuLXHj+q1pFGUpt2Mcui9WXInamKOWcXVHCTm1u2hL2jQoUUF9QxL1vV8pSqU+wQxCAf31UjQ9WuBX32TbuCzDbaLRralSU7a/WUcoMFkXdcXJ0kx6LiUNbBv3rohiN2JVIOAL8++NqzF3upgdCgwRCIu5R8Oat0iUw9fDu2spEDwUzYaeI/U/sOUrnn1LTPtMInsF4+H2FIVR7lHuuIorAq9+58OwXtRCoG04z1HoF3PJqJTbuU/ZxC8tz9u6tKB3PCqXMYVGMsBeUhFHrpQN2qenYjM3ufdshdZxjL1znwcNzqxAMk7prYVGdNadCFZ01Ww+zez+6UMTOFCWcsytG2GkwDSNhb87mJd9xWD33c2W2H7e9VqmokZBE/cg/FcbMFypQUKIO+949R0PMqvS7tCRhZyrseSTsvwo7DaZhQlYz6c/XBUF99RK78oKY9WI5Smuo111t5BQEccOLFSipVs+9C4ZE7DvGZs1LdPBolmKgB4URuxVwpEwRu96EPVP63fv+EyFVjnHNKw5jxvMVyD8VpgdFJazfG8Btr1Wq8hhv+xF2a17nFhS1s+JQUUj2QUiKEPYaj4BjpbSYSk1qPA+7RfrKOSWZIdSX0+e01KGhfBb95MXf362EP6jOIxSWwUxbRk6ORDRjKXedhyKEnfrX2dAijc3LvV/l091cPgG3MfLpJhrG3OVuPPFJjWJGeDaEvcfYvSdt0knYWbJb5qNlZQh7Pp2va0nYtTC2NRAS8dDcKny+3ksPjsL431e1ePU7l6KmyTWEGo/AzL+gTQYJu56CVYrY9STsqdIX0HgDIo6WaONYRRCApz+vwRs/uOjhUQDhCDB7XjU+WePRzHfae4zN2teqiRE8DaBjGLEHZZ2PwSvhZSVjDja0bCL9rj2vOKy5gS/vLnXj5UUk7nISDIu4661K/LhTW6OA9xeyWfvMRg6ZyVQZzwqPX0ResXy6JruwHzwRQiBE/cMsaJok/YtdcEqbm7T5K93YTOYxsvHM57XYckB71z+/mF12qzWdszNFziNm2e80VR+zIy1R+n1cXrE2uxtEEXh1sQuDOyvTBvPtJW5sP9Jw4bOaODxxbSISHcrL1+47HsK3P2mz1iGPYWtlRhJF7Ky1beowuz6FfTedrzMj2Sn9i63lHvADhSHkFYfRTmGtQ0u2+/DWksYfFcyeW43Xbk9m4iVQH77Y4FV9odzZKKmKwO0T4bRJf9FJ2PWjbbJvzyliZyTqcTyMDN5rrc8j2HlEWc/rkZNh/PfTmpj8rK2HAnjtO+XVEmw5qO0jEFZjcNMTSdhZUlQRQXmtPP2Ysgr7yUr5vrgehV1qBBGqGuvZEE5UKGfj4vIJuC/GA1o+WOlWVP++IABlGh/zW8Tomcqg4jn2gatMc+NlFXZKw7MjLUH6l7qsOoKwxketK2UgiigCj86vjnkftCgCjy+oVlTLYkTje/+TFWxeGorYZdC4ozoUdkrDsyPOJv2tPlmpfQOVlHhlFJe9s9SNDRJ5ensDIu5/t0oR8/55Hoi3a7sBu4iRsKclUCO7XjRO3oidJs4xw2GVvjhH62l4AOje2iz7Z9i4L4B3lkp7Fl5QEsa/PqpWxDXv2VbbBianqti8N2YjB6uZA8GOA4XytHPLJuzegIjDxSTszISdgflLhcbrJdKTDOjdVl5hL6qI4NH51UyGAK3M9uODFW7Zr/uo7lZNP1csawgS7BS1syQisPUEkF3Y9xwNqtrAQX0Ru/S3usqt7Rt65UiHrGM5A6FoipylRemri13YdkjeI7OLB9iZ1IjIBcv3Js5OETtr5Kgl4+X7shSts4RFn6yWhb1LSxOuGuWQ9TP836c1OFTE9r0RBGD2vCqUVMl3zGI0AI9cngBOo5pU7RaY9eknOChiZ82uPB0JOxm/sI7YpV8VqzUq7BlJBrxwUxIMMq6JC9d58P02eeakV7kFPPBeFUIR+Yrphnez4J5L4zUp7oLIblNMqXj27DkaYj5gSZa7LIrU6sYaA4NxYi6/9oR9aBcLPrw/VdZUcE5BEHO+lndwTO7xEJ7+rFbWz3DNeQ48PTMJSU7tiROrDgQWG3zi99R6BRxlPLhLltmYecVhePxk/KI1fAH131OeAzq3MGFYVytG9bCgQzN5K7KrPQIelDlaPs03m73o1daMiQNtsn2GMb2sGNTRgu+3ebFoiw8HT4Q0MW7WGxAASL955DgSdjnIzguiDUMTHlmEndLwJOxKwmnjMKiTBcO7WjGks4XJlL66EgyLiprOWFgWVsT9unyEA5ePcKC0JoJN+wLYkBvAloMBRfTeNwQ3o0DHSRG7PMKeH8TkIewMYeQRdhpMo0nUZL/bNsOIoV0sGN7Nil5tzbKen/8VTRIMaJpsQLFChv90bWVS3PW5dLAdlw62IxyJLqDrc/3YmBtgNoM9FsRyLDChPFgXi1PErhNYVMUreZysxcShX5YZw7paMbyrBU1VNDe7Z1sziit9ivgs3VqZFXudjAagX5YZ/bLMuPdSoLgygvW5AWza78e2Q0FFi2cwLDJ7Dwj2HC8Lo8otMKsPYS7slS4h5vOtiTqILoPgxaewhTMz2YChXS0Y1sWKAR3MMKt0Uevd1oyl2+UX9vQkg2JG6taFpskGTB9ux/ThdgRDIrYfCWLjvgA25Pp1uwaZjSTscpGTH8SoHmyGLTEXdorW5cEf0n6qz8ADvdqZMayLFUO7WBTnm95QerVVRpTcvZV6R7uaTRyGdLZgSGcLHpgSj2OlYWzaF8D63AB25QWZRcyEjoW9QMPCTm1u8qDVhSs5jseQzhYM62rF4E4WJkcOrGnX1AinjYPbJ+897NJSOzPbWzUxolUTI64c5YA/KGLLwQA27ov+daqKMopE7Mlm6I1i1PKXI34lwCBNzqKThvulHS2aYu/S0gStd/BwHNCzjRkb9wVk/RxKPl9vDFYzh5HdrRj580z6IyfD2LjPj437A8jOC2rKNtbtpznecnGgMIRgWGRyHMJU2INhEQcKSdhlEXYGEbvTyqHWG/uf67ByGNwpGpUP7aKsdjRW9Gorr7DzPNC5pUkX17p9phHtM524fowTbl80ml+f68em/QHJjI54RptTkU4cZCMYFrG/MISebaTfIDMV9tM7FkKGh4rBfiqWkXObdCOGdY32lvdqp9x2NFb0lPmcvU26EXaL/gqvnDYOo3tZMbpXNJo/eCKE9XsD2Lg/gL3HYmdkxcKkiZCf7Lyg9oSd0vDy4QlIn4JzWnkADTufNJs49M8y/9JbnplsoJv2G7q1MsFokK+lUKtp+PrSsbkJHZubcON4J2q9AjbuC2DT/ujZfI2n4e8Yq42rj/rlZSWHUT+7ke2XosI5uahySS/spno+TRlJhl/Oygd0NFOP7V9gMXHo1Nwki7czoLzBNEog3s7jwn42XNjPBkEEco+FsHGfH+tzA/UedctqhjsNwpEXVsXjRi1+KeLP1DDw8D6XJaSBjxaBDesaPS/XSjsaK3q1M8sm7N1I2P8SngO6tzahe2sTbpkQh0qX8EvP/JaDQbh8wjk3CSw41+cgJA6w3AKOlYbRqom0ax+zlbWwLIxKFz1Usgm7R/prH3eGxSnJyWNol6iQD+pkRpyNzhIbLOxtzViwyiNLtiArk4S9PiTH8Zg40IaJA20QBGBXfjA6036fH0dOhmUUdorY5SYnP6gdYd99lM7X5RV26V/oBDsPjoueQw7/OSrvqoN2NFawKLo5E52am8DTfqzh0TwP9G1vRt/2Ztw5KQ4lVRFs3B/Axp+Na8IRwGZm85K4vBRcyS7sBSFMGiTt72Am7GT8Ii9Vbulf6KnD7LhhnFNVY0fVFgW2amLEMcbezt1aU7QeS9KTDLhsiB2XDbEjFBGxl2HQQxG7MiJ2yTeTrL5MNgm7rLh8guSFM20zjCTqEjNzrBOJDnbXOCvThAv72ejCS4TJwKF3OzPTdYCQl6OlYdRKnDlhErG7fSIKToXpjsrMqaoIWqdTwZqamTjQhnF9rPhqoxcfrvKgpFqa/rfurU2YOdb5yzQ2Qv14/CJVxSsAUQRy8kMY3s2ibmHfczQIgZ4n2SmuJGHXAhYThytHOTBtuAOLtngxf6UHhWWx2Tj3zTLjxgucGNDBQhdaY5TW0Ax8pZBTEFS/sFP/unIidkI7GA3AZUPsuHSQHT/u8uG9ZW7kNyAzxnHAsK4W3HhBHLW1aZgSev+VI+wSH02zEXaaOKeYiJ3QHjwPjO9rw/i+NqzZ48f7y9zIPX7ud47ngLG9bbh+rAMdm5Gga17Yq+n9Vwq5x0MIR6Kbc1UKuyACe49RxC4nBh7o096MHm1oLKjWGdXdilHdrdi8P4C5K9zYcTh4xkj/wn42zBzrlLyfllAOZTVUOKcUAiERB06EJMuQSf5WHy4KwRugA3Y5GNDBgokDbRjW1cJsAAahDAZ3tmBwZwty8oN4d5kbmw8EYDZyuGSQDTPGOJGeRLP49Ua3ViYM7GTBjsMB2TwHiF/JyQ9KJuycKEpr5Pf5ei+e/ryG7iJj0hIMWPR4GhPvX0L5HD4ZQrLTQO2IBNw+ERv2+fHDNp+sVsB6Z3QvK56dlSTJz5b8Laf+dXm4f0o8iTrxC1mZJhJ1AkDUinZ8Xxvm3JyMDMrcyIaU2ij5m04V8ey5dUIcxvSi/mOCIM6OgQfuuTSeLoRMVNQKKKqQ5kxEUmEvrxWoEpshKfE8np6ZhBvHO+liEARxTsb2tmL6cDtdCJmQqu1N0uK57DyK1qWmRZoR/bKiVqhDOllgJk9zgiDqwUPTEtA+04TXF7tQ7aHKeabCXhDEhP6xH9ksqbDvPkrCHisMPNAsxYgOzYzo0NyEDpkmdG5pQiqdmxIE0UimDLVj0iAbdhwOYtP+ALYfCuLwyRBNDJWYbFVG7FQ4V2cSHTxS4nk0STQgLcGAJgk8miYb0CzFiMwUA5omGcg6kyAIyTAZOAzqZMGgTtFRpy6fgIMnwjh4IoRDRSEcKgrjaEkYwTCpfazILw7D7RPhtMU20yqZsAdCIg6eoIlzKfE8WqYZ0SzFgIwkA5LieDitUfvNFmkGmAwcHFZKnxMEoSzibDz6ZZnRL+v3g61KayIoKo+gqCKCE+VhlNUIKK2OoKxGQFlNhNL59UAQo14qgzvHdm68ZMK+7+eReXrCbOIwuJMFY3pZ0TrdiDYZRtjMJNqaeAEF4HhZGEeKw8gvDsPlE2A2cejYzIhBnWgAUCwWuI25AazP9ePgiRAqXQIsJg5tmxrRvqkJbZsa0TbDiNZNjJS5kpkmCQY0STCgd7sz/3dRBE5WRnCsNAxvIOoo5w+KqHQJKKmOoLAsjMKyCJnS/Ex2gYqEPUdHafiMJANmjnViQn8b7BYScjVzelE6cjKEvOIw8k+FceRkNAUZiohn3dBd3N+GOybGIcFBqlNfthwI4OnPa3H8DA51BSVhrMz2//LPJgOH1ulRkW/b1Ij2mUa0yzCiWaoRPL16ioDjgGYpBjRL+eseeV8waue9bq8fu/KCyM4P6nIinhRaKdnkuXversT6vQHNP8BXj3Lg9ovjqBpdhZRUR5BfHEbeqTCOnAz98vcN9axOjuPx4t+S0bUlGarUlbeWuPDOUjcauwqZTRzaZhjRvmk0U9a+qQntmhrRNJkGsKiFao+Arzd5sWCVR1fpfJuZw7pnM2KaiZJM2M+fXYIaDd8cngf+fXWiJK0KROwXjCMnwzhSHBXv36bTY43VzGHe31OQlUnifi6+3OjFkwulHTdtt3C/E/q2GdEoPy2BBF+p1HoFzPnGhUU/eXXznT96IBWdWsRuzZBE2I+VhnHZf8s0fSP+cXkCpgylwQ5Kwu0TkXcqmkLPKw7/kk6vcrPdYDZPNeDz2WmUxfkLTlZGMOW/ZbJVWMfZ+J/P742/nuNnGJEcR0cpSmHRT148ubD2rEdgWuKBqfG4YoQjZj9PkjN2rZ+vj+1tJVGXEX9QRP6p6Pn34d+k0EuqlHFAd6I8gs/We3HN+Q66WWfhvWVuWdumXD4BOfnBP61VSc6o4LfLMKJ9ZlTs2zU1UnGkDEwaZEeCg8f971VB0HhmPic/hCtGxO7nSSPsBdptc7OYONw/JYHeOgaEI8DRkp/Pv09Fo/DDJ0MorowofnDGFxtJ2M9GKCJiRbZPkZ+tyi1gx+Hgn3zs0xIMvwh+u6a/ij4Vy0rLyO5W3H1JPOZ8XatxYY9tMEwRez25oK+Npr3FGEEACstPp8/D0XT6yTCOl4URUelOPdrSE0aLNCPd4D9weiiHmiiriaCsJoItB35fEJyRZED7TOPPkf2v5/gWOoaJGdec58D6vX5sP6xdXSmpjqCkKoL0GLntxXzVqfUKOFoa1uwNINe0xnG6lex0G1l+cRgFpWEEQ9o7Ryssj5Cwn4HiKu30NJ2qiuBUVQQbcn8VfJ4DmiYb0D7TFD3D/7k1r02GESa46JXIAAAgAElEQVQDCX5D+Ptl8bj62XKIGj5uzy4I4oKk2BRjx3zVOVoS1vTF79nGTG9ZPdm0P4A3v3ehoCQ6sEIvePw0elOPCCJQVBGdzLZ2z6//vnMLExY8kEoXqAF0bGbCkM4WbNyn3RbqglOxC4hjnlMuqdZulUO8nY/5TF890DbDiP2FIV2JOgBYqOPtjKTG67PVbGgXi6I+T2lNJFpAWBBEpUv56/bY3tpuLY5l907MI/ZyDY8JVOpkq3AE2HssiL3HQjhQGE1zF1dGYLNEh3Zc1N+G8X1t4GT6/BlJBvTvaPnT+aTWadWE0vBnon3TaNGZ3jZ6I7op4xhvV14Qry12YdcfbLUTHTy6tDShRxszBnQ0o3srs6LG93Zvre2dsqKFvcar3Yjd4xchiMoQ+IKSMLYcCGDzgQB2HA7Cd4ZpabVeoKQqgs37A/hotQePXZmAtk2NKCz7eV5zeQQOC4fJQ6Rv3bt0kE1Xwt4izUjCfhasZg4T+tvwxQb9DCDJSDKgayu2wrR4qw8LVnl+GcrTMs2IZTt9WJXjP+P/X+0RsGl/IHp09gPgtHHon2XBkC4WjOhmlb1oOEXjRcuxnLYX85VHy+eKoUjUsa5zC3l2jgcKQ1iV48fKHD+OltTvPGZ/YQhXP1cODvhdq5jTxuHigTbJi3rO62lFkpNnPixGLi4dRBMJ/4ppwxy6Evbx/dg/D8t2+HD4ZAiHT4awbGf9/7zbJ2L1bj9W7/bjKa4GPduaMba3FaN7ydMZpOXz9VhDIUU9WZHtZyrsx0rD+H6rD8t2+nCivHHHHKIIiGd4eTftC2Bkd2nThCZDNDPw/o9uzT8jJgOHSwbTAKO/on2mEb3ampGtE7OoCYyFvdYrYOuh2AmhIEZT+Lvygvjfl7Xol2XBRQNsOL+nlUkvvygCH6/2aFuMYxhcxVzYBY0fm325wYvrRzsknURV4xGwbKcfi7d6kXtM+mE/y3b4JRd2AJg+3I75K92ad3Aa0zuanSDO8TyMsOtC2Hu2MaNdU7Yx1OrdfsneM0EEth4KYOuhAJ76jMOoHlac18OKoV0sktlUf7nRi9zjIU0/J7G8djF/2qwaH8zg8gl46VsXHrsyttPnBAFYmePHR6vd2Hc8xHQwy/pcP/xBEVaJvePTEgwY08uGpTt8mn5Gpg2jaL0ujO5pQ3JcrSoqshvDZTKMn/5+G5t3zB8UsXS7D0u3+xBn4zF5iA1XjHQgPTF2nQ85BUE8/1Wt5t+HuBh2XMU8rNBDO9g3m72YtyI2KWVvQMTHazy45IlSPDy3CnuOhphPW/MGxLMW1MSaq87T9pjVrEwTeralWQd1iioMwGSNH1kkx/EY15ttNXxxZQS7jrDPhLh8Auav9GDiv0rxyPxqHChsfIS97VAQd79ZJauvACti2QYa84g9zqaPFOQri1worRZw16S4BkW6x0rD+GazF19v8kliH1pfvv3Jy8SCtmtLEwZ3tmDzfm0WwkylaL1eTBlqx9wVbs2afFw+3MHc5e+H7T5Zj0QjAn6J4vtlmTGhvw3n9bDW6/gyGBbx/o9uzFvu0YW7GwA0SVSwsGck6Wf4xMJ1HqzZ7ceN450Y39f2l0Ukpy1Ftx0KYvkuH46cVNbY3R1HgjhRHkHzVOnv38yxTk0Ku8PKMdkcaYn0JANGdLVizR6/5r6b3cJh2nD2G73FW5Rz1LX9cBDbDwfx5MIa9MuyoHtrE1qnG9GjjRmZyYYzZhuW7fThs/Vexbg1sqJZioKFvU2GvgrtS6oj+L9PazDn61r0bmdGt1ZmNEnkEW/no6Mly8PYeyzELNXdUEQx6n9828Vxkv+uvu3N6NPOjJ152iqcuqi/jdy+GsC04XZNCvv0EQ4kONhmMHccCeJ4mfK8OsIR4KcDAfz08ywLAw9kNTMhI8kAAx+t4i8si87d1ysdmsVOO2Ouwk2TDTAZON2kT07jDYjYuC+g6l7LRVt8uGVCHJNpUzdd6MStr1Zq6hmYOoxsWhvCoE4WtEgzorBMO+ZRdguH62Sw7VXLbICIEJ3LEYtzeC2Q5OSRlqDgiJ3noj2q++mGqY6ymghW5fgxhkGxz4AOFgzspJ0xs33bs29pOleEtCrHh9W7AzhUFILHLyLezqFzCxMuHmBH/w7KKvCbNsyOFzTkuX3N+eyj9Sq3gNU52st86IGOzWM7G0WSJ48c0NTLp+vYDYG4a2KcbPPrYx+tK6dobuO+AKY+WYbZ86rx404fjpaEUVYTQV5xGIu3+nDLqxW47bVKlCrI12HiQJvk7ZasSI3ncd1oJ/Pf++1PXt1lSrVCrDfakgj7wE4k7GplV14QB4vYZFs6tTBpwt8+OY7H+T2VUTT3xg8u3P1W5TnT2lsOBnDNc+WKyazF23lc0EcbhYd3TIyXbFDL2RAE4LN1+hnRqzWGdI6t858kwj6ggwUWExURqTZqX8tugbhzUjzzdqBYM3mwHUYFNIN8vMaDd5e6IdYxaKuoFXDLqxXIK1bG2bYcFeSxpkcbMyYOZL9BWZ7tQ0m1fgvP1ExKPI8OzVSQireaOSYjSglpWLLNh/JaNo3FzVIMuG60eovOeD7aiy03NR4Bby+p/9Akt0/E3W9VolYBroydW5jQrZV6rTkNPPCPy+Nl+d0faXyOupYZ3TP2WilZdcekgdTPq1ZCEREfrmJn1jJrrFO18w9GdLUiXQGf/e2l7gYPOiqujOC9Zcow55k2XL2bvGvOdyIrk/3GJCc/yMRTgpBIKwfFPjCQTNgHd7aQH7WK+Wqjl1kUZzFxuHdyvCqvkxKK5ooqIviykW1OC9d5UVQhfyp3XB8r82ryWNA63YhbJjhl+d3vLtO+Y6JWyco0SeIWKukbNGuck+6cSvEGRCxkWIwzppcVw7tZVHWNWqQZMaiT/J/55UW1ja6GDkVEvPadS/bvYjZyuERlXvY8B/zzygSYjexrRQ4WhbBpP/mUq5XpI6QJDCQV9gn9bGiTTlG7Wvl0rQfeALv2mdnTE+CwqqeQbupQu+ztenuPhbAyOza9yz/u8inCGnPqMAd4FdVTThlml8345z2K1lVLajyPiyUaQS2psPM88PfL4ukOqpRqj4AFq9gV5aQnGnDXJHU8L2YTh0kKiCznfF1b5yr4cyGK0Z8nN81SDBjcWR3Zm4wk+Z7ZIyfDNJBGxfxtQpxkHUGSH2YN6WzBxQOokE6tfLzGgxoPu4rpKUPt6Nte+XMQxvWun1uVFKzZ7Ud2fmzn7e/KC2KtAua2T1PBeF7u5xS8XP4Ab/zgktXFjWg4nVqYcOkg6epzmKxMD0xJiKlzDcEOl0/AfIZRO8cB/7k2UfH2v9Nlrt4WBODlRdKcib/0rUt2G9VhXS1ndP9SEtOG2TFQphqLvcdCWLObonU1YjZy+OdVCZJ5cgiCwEbYnTYOz92YRENrVMqnaz3M+tqBqJXnw9OVm5Lv1MKErjL3W3+1yYtjpdIMljlWGsZXm+SdYsZx0bNrpdIm3Yi7L5HvGVVCoSPRMO6+JA4dm0m3fgSDQfDhMJupUx2bmfDoFQl0V1WIPyji9cVsF5LxfW0Y30+ZRzjTZBYcb0DEW0ukvR9vLXExLZw8E5cMsstSaV6XiOvJGYmyzbbftD+ArYeoEl6NXNTfhitGSpvt4zgOfDDIzhN7Qn8brj6PrC3VyHdbvMxmyJ/mkcsTFDcLIc7G40KZNxwfrHSj0iVtBqXSJeCDlfJWXCc5eSZOg/Xl3snxMR8BWlcEAXjhK+244OmJzi3YBLcWiwV8KMR2sb7n0ngM6GChu6wyBBF4nvGCYrdweO6GJEW5fk0caJP1SKm8ll2nwoJVHpTJ7AA3TWHp+Av62DBdxpn2X270oqBEO771eiHJyeN/NyYx88VgXqHEc8AzsxIVXxhD/Jkdh4PMC3baNTVi9nRlHOFwnPyT5t743gV/kE2K3B8U8eYP8kbtPdqYJT2PrA9tM4x47Cr5nsVar4A3fqCzdbVh4IFnZiYxHZstS+lxvJ3H8zclacZ/WU/876taBEJsz14vHiBvlHSafllmWY8G8orDWLSFbVHbop+8sru/STWdq75r1gs3JTG3Y/0tLy9yMW09JWLDfZfFo28W2xZe2XqKOjQz4bErqZhObRRXRhrkItZYHpiSgIEd5T3CkbvF7eVFtczb0AQRePEbec90x/e1wWmTT1B5Hnh6ZiJapMm3qdtzNIRvN5PfutqYONCGy0ewXzd4uV9YNVt26pUFq93IP8U2iuP56BFOS5kW17QEA0bJaEW87VAQG3LlqYSWuwrbauYwcaB8UftDU+XdVAoC8OTCGhpGozK6tjThH5fLE7zKPgXkzknxijDSIOpOOBJdaFgTZ+Px4t+SkCiD+9dlQ+ySDZQ4F6IIvPStvFHzi1+7Yja6tiFMGybPXP5rz3fIXlexYLUHh4rIllVNJMfxeO7GJNnaNWUXdp4DnpqRSJPpVMauvCA+X88+NdiqiREv/i2ZaX2GgQcmD5GvxW3pDh/2F8q7sB8sCuH7bT7Zfn+rJkb0z2IbAFzQxybrEBoAKCwL400qmFMVJgOHZ2YlIT1RPk3jrVb5+0SjhSnJshamEPXn5UW1OFnJvh2qe2sTnp2VxCyCHtXDirQEeV7SYJj9cKCz8fr3LgRD8oXtLIvoBnWy4IlrE2V37/vPpzXMi1WJxnH/lHj0aSev3wVvsSgjDd4+04jHr5b/RSLqjjcg4t8fVcvyu4d2seCxKxKYPC9yGpJ8ts4ry+bpTJRURfDxGo9sv39kNyuTKKh7axNeuCkJRpmTiF9s8GLH4SAI9XDpYLvsRzeAAlLxv2VsbytmjHHS06Eith+WJyUPAJMG2fHwNGnFvXW6Ef07yLP7rvUKeFdhfttzV7hla7nieWDyEGkXzW6tTHjtthTZfS0Ky8Ky11UQ9X92lOJxoTgLrdsujsPQLlRMpyZe+rZWMkOSczF1WFTcJfv5Q+Xbfb+3zA2XT1l9y26fKEu742kuG2KXLJLu1sqE129PgcMqr6gLIvD4ghrZZ/UTdSclPjpZzmRQRspZccLOc8D/XS9vzyhRP3xBEbPnVSMUkWchmjrMjnsujY955C5nm1VRRQQL1ymzb/mLjR4UlsmzkUuJ53Fej9jXBSlF1AHggxVu5BRQCl4tmAzR0ddy1eGoQtiBaFvT8zcmwW6hA3e1cPBECK8ukq/I69rzHZg9PbYex3IORnl9sUu2jdK5CEeAV2S0DZ0W40FBfbPMihH1PUdDVAWvMh6aFo+ebcyK+ky8Ui9Wu6ZG/IuK6VTFR2s82LxfvkEmU4ba8Z9rEmOWqpVrjO2+4yEs2+lT9L1eleOXLars296Mdk1jk9Eb2d2KV25JVoSoe/wiHvmgCuEIrSVq4bIhdsnrPjQl7AAwupcVN1xAxXRqQRSBR+dXo6RKvpVpfD8bnr+x8X3u3VqZ0LG5POYjL35TK+swmLre65e+kS+ynBqDToVLBtnxvxuSZC+UO80Tn1SjqIJUXS30aGPGQ9OUORadV/rFu+XCOAzvRsV0aqHaI+CB96tkTSMP62rBu3enIDmu4Y/3NJnmwq/fG8COI+o4X80pCGJltl+W333xAFuDj+o4DrhlQhz+eVWCbNME/8inaz3/3959h1dRpm0Av2dO7+ekEGpCJ/RepUqLCAooTYoECDaUT2QVC66rsIJEEPdjlYVVrOjCLpZVBBWsLIiGJiAIBKSTnpN2+vfHAb9FQFImOWdm7t91cfmXuZL3zJl75n2f93nx2a4y3kBkIs4uIn165LdEyjbYBQFYMNkV0VO1qGL2n/Ah/Z+R3arTsoEOrz0Uh4YJFb9uHBYRQzrVfOOmYBCy2+L0vx+6IzJ1bDYIGNa14t0A9ToBCyY7kZYSPTOBezK9WPYet7bJhV4r4Pm0GMTaozc+RTkMpNUk4Pk0FtPJyfpvSvDhjsiuE9eN0WDNnNgKb5+8pbspIj2e399egszzfll9zr9k+bH+28g0ralo46BYu4hVD8QipYspasYv1x3EI6/kc11dRuaNtaNNki6qf0dRLoPZKEGLZ6awmE5OFr5TgD3HIjutHD44JgZTB1vLde2IgjTrtxVV6g3Jthp61cYiFJXW/NJL07racrfu7NhEj7cfjo+qG7IvEMLc1XnIKmCqy8WYPmbc2sMc9b+nKKdB7d/WiJkpNl5dMuELhDD373k4G+GWqKIA3D/ChmenXn/Wp3uyAfXjan7h7I3Pi5FdGJTl55xfHMSrn0Wmac3t19m5IAjApAEWrLw/FnFRNnW68J0C7leXkQ6N9Zg72iGL31WU2+DOvMmKfm2NvMpkItcdxOyVuVHRRWtwRyPeejgOLepd+61tTAT6POcUBvHGliJZf85rvyjG+fyaf4Ab2N50zSJJs0HA4lQXHhxlhybK7nRvbimO+FIVlV8thwZLorhYTvbBDgALpjgrVRRFkXH0rB+PvBId+3MT47V4bW4sxvW9crq9tkuDPm1q/qHx5Y/dsm8f6vGFsCICTWu0mvBe4t9qnajDWw/HYWCH6HsJ2LKnDMs/YLGcXOh1AtLTXFXaZcNgLwezQcDSNFdUNJWg8tl20INn1uZHxe+i0wh4+HY7ls10XVbZOvoGM8QavqSOn/fj/e0liviMN35fikOna/7c+NG9zL9uW9OIQFqKFWvmxCExCttS7830Yv4b+QgGeU+Qi8fHOdA6USer31mU62An1dJiwRRnjd+IqfL+/V0pXoiibT192xix/rF4DO1kgk4jYFTPmp+GX/6+GwGF3OSDEWpak+DSoG8bIxLjtXjlwTjcPcwWNfvT/9vJLD/mrMpDmZeHu8jF+L4WDO9mkt3vLYRCIVlfZas3FeGlj9hbWU4eGm3HHf0tUfU7HTrlq/FOcxlHvUhbnqO4z/fFu2Nq/ITGU9kBxNpFmPTR+aR/oSCAactyIl5ISuXXuakeL82Kjbr6DEW/sV8yY6i1Wk57ouqzdEMh1n8TXdPPkWgf+8IGZa6zvvhBIYI1/LpQP04TtaGeXxzEfStyGeoykuDSYFGqS5ahrohgB4CnJzvRuDaL6eQiFAIWrSvAxu/VWxW8KaMU+3/xKfJvO3LGjw93lPBCR/hglwdezsWxc34OhkwYdAKWzpBXsZwig91sCHems5lEXpUyCvcn38zHJyoMd38AEakgr0kvfVSk+rXk4rIQ7l2Rg/0nfPzCy8gT4x1IbqCT9d+gmCRMjNdi4Z3OqCyaoasLBoH5Kgz3d78qVvwpXlkFAby5tVi11/alUP+RoS4rd/S3VOoMAgZ7NbqhlQH33szOdHIM9w+2q2Pqtqg0hNWbilTxt772WRFy3erb11VcFsKsl3IZ6jLTpZkeD460K+JvUdz7bepgKwZ1YDGd3ML96bUFWPe18sN99SY3CkvUEXYlnhBWblTXjpX84iDuWZGDvWwVKyt1YjRYPM2lmBlfRU5cPzXJiSZ1WEwnJ5cK6l7ZrNy32bO5Abz7tbqKyjZsK8GJC+ooHMt1B3HXX7imLjdGfbjhmdOinDhUZLCb9AKWpsXAbuaCu9ys+LcbS9bX/HapmvDXj9zw+tRVUBYIhpvwKN3JLD9Sl2XjyBlWv8vN/AkONK+nU9TfpNjkqx+nwbNTWUwnR+98VYx5r+YpKgR/OulT7fa+L/eVYddR5U5NH/jFh9RlOTiVzX3qcjPpRgtSOpsU93cpOvZ6JBtw/wg7r14Z+nx3Ge5ZkauY9ejl77sRUvHur2UKbcbz7QEPZr6Yg7wiNn+Xm27NDZh9qzLzQfHvs1MGWjCkk4lXsQztPubF5PRs2Tf32H/Ch+9/9qj6szxw0ofvDitrDNZ+UYz/+VsuStn7XXbqxWqweJpyzxqRfa/48ijzhjB1aQ5+PsOiFjmyGAUsnOJCnzYG2f4NBcVBfHPAg69/LMP2n7xwlyr/Dc9uFtGtuR49WxrQp7XxspP05CwYBBavL4i6tshUPia9gDVz4tC0rnILrFUR7ABwOieASUuyVbPVSGlEEbhvuA1TB1kVEQwHTvqw87AHOw97sfuYFx4F1BPotQLaNdKhR7IBPZINSK6vg6CwN6JcdxDzXs3DD0e4nU2WgScAz051YXBHZW+JVk2wA8DOw17c+9ccnoUsYwPaGfHHiQ5FtQ/2B8Kny+3N9GLvcR/2HffK4sCQGJuI5Po6tGygQ4cmenRuqodBp9xzlPef8OEPr+ThfB6L5OTqzkFWPHCL8puYqSrYAeDNrcWKLeRRi/D6mAstG+gU+zcWlgTx82k/Dp/24fAZPzLP+fBLVgAFxTX/VGo2CEispUVSvBaNamvRor4WLRvoEO/QqOaa++e3JUj/ZyG8fq6ny1WPZAP+ck+MYtfVVR3sAPD46+o8fERJ9FoBs2+1YXw/i6r+bndpECezAjidE0BWQQDZhUGczwsg1x1EYWkQ7pIg3KUhuEuDv1uFL4qAxSBCIwIuq4hYu4hYmwYxdhFxNhExNhH147VoWEsr61Ouqqq4LISn1+bjs11l/NLJWP04Dd6YG6ea3iaqDHaPL4TUpTk4dJrFdHLXvYUBf5rkUNXbY0UUlYauCHSzQeDAlMP+X3x4bE0e96fLnNkQLpZTUzdSVQY7EG7vOXFJdkSmNkladrOIR8faua2RJBEMAq9sLsLfPnEjwNuDvANOABanujBQZeeHqDbYAeCHn724Z0UOv7wKcWN7Ix4d61D11DFVzcksP554PZ8nsynEtCFW3DdcfSd+qjrYgXCTifR/sZhOKWwmEQ+NtmNEd769UwXe0kPAW1uL8dJHbkVsPaTwMd4v3KWOYjkG+1U8+UY+PtrJYjol6d7CgHlj7UiM5yl/9PuOnvXjqbfyceAXvqUrRVItLV57KFZR22IZ7BXk9YUw7YUcHDzJL7aS6LUCUgdbMXWwBXotC8bociWeEFZ94sZbW4u5HKcgZoOA1+fGoVGCeh/qGewXncsLYHJ6NnLd/IYrTYt6Orz9SBwHgn617aAHC94pYLMZpQWaAKRPd6F/O6Oqx4FVRhfVdoWbnmi5a0pxOjTRcxDoMhfyAwx1BZo+1Kr6UGew/0anJnrMGcVjXpVEI4bPXCb6bzd1Mal2/VWp+rQx4O6bbBwIBvuVxvW1sKJaQQZ2MKFuDKdh6HIGncDvuYI0TNBi4RSX4g4dYrBL6LFxDrRO1HEgFGBCPzMHga5qVC9eG0pgMQpYmuaCxchUZ7D/Dr1WwJIZLsWcH61m+45zpwNd3X42oZE9QQAWTHEiqRa3tTLYyyHBqcGSaS7oNHwKlLN3vyrmINBV/XDEw0GQuZkpNvRtw2I5BnsFtG+sx9zbWEwnZ6dzAjh61s+BoCvszeQbu5z1a2vEzJusHAgGe8Xd3tuMkT25FidnZ3K4rYmudCGf14VcNa6txYIpTg4Eg73y5o21o00Si+nkKsgeTHQVrKCWJ5tJxPNpLh4/zGCvGp1GwPNpMYhjMZ0sb97J9aV/KPtwRynO842vRoRCQGGJ9B0hW9Tnw7rsAutisRzPgPh9HJ1yirOLSJ8Rg7TlOfAF+AYoFz2SDUhwSbuPfdtBD556Kx+iAHRqqsfNXU0Y2MHE7TYS23PMi80ZZfh8TxniHSLemCttW+AhnUzYddTLgZaRu4bZ0Lu1gQNxvRca9oqvmA3bSrDgnQIOhEysuDcGPZKluxGEQsDEJdk4dOrywiuDTkC/tkbc2N6IG1oZOE1YCYEg8P3PHny5z4Mv95Xh3G9avv55qhNDO0nXVKagOIiUJy/Ay2NaZeHG9kYsme7iQPCNXXqjeplx4Bcf/rWthIMR5ZrU0Uoa6gCwKaP0ilAHAI8vhM0ZpdicUQq9VkDnZnr0b2tEv7YGxDvY+e5act1BbP/Jg28PePDNgTIUlV47ZFd86MbA9ibJznNwWEQM62LCe//hd1kO3+WnJ7NYjm/s1cgfANJezMHeTE7jRbM/TXJieDfp3vA8vhDGLcrGyazyb5+7tMbftbke3Zob0LGJHka9et/mS70h7M30YschL7Yf9ODwGR8qcgdK6WLC/SNsqC3R8krmeT/G/jkLQd4Fo5bdHF6GqR/HB2QGew28aUx8LhsXClhAFY0aJmix7tF4iBLUO2YXBvHmliJ8sKMUBcVVK+LSaQS0TtKhewsDOjTRoXWiXtFr84UlQew+5kXGES92HfXi4EmfJGeft2ukxwO32NBRgpP7HluTj00ZpfzSRCFRBJbfFYNeLbmuzmCvIftP+DBjeQ68fg5htFk8zYVBHarekWrNp0VYubGo2j5jUQASa2nRJkmHNkl6tErSoWkdLQw6+YV9IAgcOePDT6d82Hfch91HvTh+wY/qusOIIvDMZCdSOldtVub4eT/GPpslyQMHSWvWCBtSB7MJDYO9hr2/vQRPv81iumiS3ECHt/5Q9Qrqv3zgxprPimr+LUUA6sRo0KSODg0Twv9tVFuLujEauKyR33Lp9YdwOieAExf8OH7Oj8zzfhw568exs/4af8jVaQS8NjcWLepVbevas/8owPpvuNYeTQZ1NGJxKovlGOwRsmhdAdZ9zZtCtHh5Viy6Nq/aFO2eY15MX56DaPt26HUC6rg0qH3xXy2nCJdVhMMswm4J/9dmFuAwi9CIAkwGAZrrPAt4fSF4/YC7NIgSTwju0iAKS4LIKwoizx1EVkEQOe4AzucHcTrHj5zC6Hq17dREj1WzY6v0M3LdQdy2MKta9stTxTWrq8OaObGqrkepClbFS2DuaAd+Pu3H7mMspou0gR2MVQ71UAhYvL4Q0fjI6/WFcOKCHycuVLz/vc10ecKXeIKKmH7OOOrFfw560LMK67AxNhH33mzDonWcfYs0uzncWY6hXnlspSbF05EGWDLdJXkjFKoYg07AgyOrfmjPRzuvvqVN7tylwcv+KWlNeeVGd5V/xu29zWiVyG50EQ0kEVg01Yl6sbyXMtijQIxNRPp0F/Q6PmVGSupgK+rEVPFzRa0AAAwdSURBVO2GEAwCqzcVcTBlZt9xH344UrUZM0EAHh3rgMivcMTcP8KO7smsgGewR5FWiTo8Ps7BgYiA+nEa3DnQUuWfszmjtEL71Cl6rP2iWJLv8Jg+Fg5mBKR0NmHKQI49gz0KDe9mwvi+vDhr2uPjHZLMlry+pZiDKVNf/liGs7lV7ysxa4SNy2o1rEU9HZ68gy9FDPYoNme0HZ2b6jkQNWRYVxO6Na/69N3eTK8i19bVIhgE1kmwZc1sEPDoGIZMTXFYwsVyBi5jMtijmUYEnpvuqvJ6L5XvpvDQaLskP4v7mOVvw7YSSfbS92ljwBAJD5yhawSQCCxO5b2SwS4TTku4mI5PodVr4gALnJaqX8YlnhA+31PGAZW5wpIgvtgrzed4/y02SVoS07XNvtVe5e2pxGCvUckNdHhiPKf0qkvTulpMHiBNPcOWPWUo87JXkxK8t12avu91YzRIG2rjgFaTYV1NmDSA9UgMdplevHf058UrNZNewOJU6bYXfriD0/BKsfOQ54qz3CtrRopVkvoNulzLBjrM50sPg13OHhzJ6SapzRvrQMMEaRonns8PIOMIuwYqRTAE/HuHNG/togAsvNOJWDtvlVJxWUWkz2DPDwa73AdZBJ6b5kJdFohIYng3k6TnrG/8vpTncSvMh99JNwMTYxOxKNXF9XYJaC4Wy9XmdkIGuxKw/7E06sZo8IjEW5E2Z7BoTmlOZQewJ1O6WZhOTfS472aut1fVgyPt6NyMs5cMdgVpXk+H+RO4rlRZggA8Md4Bs0G6h6MTF/zcu65QUk3HX3LnICs6NmEoVdaI7iZMYL0Rg12JUjqbMOlGXtyVcUt3s+R9pDf9wLd1pfp0Vxl8AenWWC49WGp416yw1ok6PMZ22wx2JZt9Kw86qKhaDg3mjLJL/nM3ZZRycBXKXRrEzsPSFkU2TNBiLFtGV0iMTcSSGS7otVyGZLAredAFHk1YUY+Pd8BqkvbGcPSsH8fP88AXJdtxyCP5z5w13IZaDn53y0OrARZPcyHByfFisKuA3SxiaVoMTCymu65WiTr0bi39DMfmXXxbV7rPdkm/1GLUC5iRYuXglsNDox3oxLoEBruaNK2rxR8nOiEw23/X1EHVcxOtjps+RZdzeQEcPCl9ceSI7ia4rLx9/p6RPc0Y28fMgWCwq8/gjkZMGcin/2uxmgT0a2uU/OeeuMBpeLX46kfpH+D0WgGDOho5uNfQJkmHeWPtHAgGu3rNGmHDDa1YTHc1XZoaoK2G5bmvfvRwcFXi62r6rLs043f2amLt4c5yOg2nIhnsav4QLratbBCv5WD8RrN61TMmUp0ARtHvp1M+5LqDkv/cRgn8vv6WTiNgyTQX4llcyGAnwGYS8fwMl6TNV5Qgzi79DSKnMIi9mewNrxahELC1Gh7k+F290tzb7GjfmMVyDHb6VZM6WjzFYrrLVMc0/KYM9oZXm493Sr8DgtfQ5Ub3MuP23iyWY7DTFQZ2MCJ1MIvpLskvlnYKNRgCNmzjEa1qs/uYV/Lq+OqY3perdo30kp/hQAx2RbnnZhv6tGFhDgBknpO2cv3tL4px7Byr4dVo2YZCSX/esXM8YwAA4uwi0qe7qmV2jRjsyvlQBGDBZBeSarE4Z+fPXoQkmvIsKg3h75uKeIGp1A9HvJJWyP94nMGu0whInxHD8+oZ7FQeVpOA59NYTHc+L4DvDktzM3710yIUlnD6VM2e31AoycEwXl8IX+zjzop5Y+1o21DHC4vBTuXVKEGLZyazmG7lxqq/Ze/J9OKNLXxbV7uTWX6s/qTq18G7X5eofo19TB8zRvZksRyDnSqsfzsjpg9VdzHdnmNerP2iuNL//6nsAOauzkOAL+sE4JXNRVXqY3DotA8vfeRW9Rh2aKzH3NEslmOwU6XdM8xWLW1V5WTpe4XYsqfiN+ODJ31IXZbNCmb6VTAEzHs1H5/vrvj1dPSsH/etyIXHp969brUcGixhsVxUE0KhEHdjykCJJ4TJ6dmq7m8uisCMoVZMH2K77k3FHwDe3FqElR8XwevnJU5XufkJwJjeZtw33F6uI4E3Z5RiwTsFKC5T7/Wk1wpYPTsWrZO4rs5gJ0mcuODH5PRsVd9YAKBerAYTB1iQ0tkEh+XySaesggA2ZZThH18V43ROgBcNXZfdLGJMbzNSupjQuPblO1ECQeC7Qx68ubUY23/i+QJPTXRiRHcTLxoGO0npqx/LMGdVHviphd/gGyVoEe/QwOML4UJ+gGFOVeK0iEispYXFKKC4LIQjZ3wo8fDLBgDj+1rwh9t5YhuDnarFqk+K8PLHbg4EEdWIzk31eGlWLDSsypLHSw+HQH7SUqwY0I5nQRNR9UtwabAo1cVQZ7BTdXt6svOK9UAiIinpdQLSp7sQY2NUMNip2pkN4c50NhM/QiKqHvPHO9AqkRXwDHaqMYnxWiyY4oTIY16JSGJ39LdgWFdWwDPYqcb1bm3APTfbOBBEJJkuzfR4cCQr4BnsFDHThlgxqAOL6Yio6urEaLB4mgsi04HBTpH11CQnmtRhMR0RVZ5RHy6Wc1oYDQx2ijiTXsDStBjYzfxIiahy5k9wILkBi+UY7BQ16sdpsPBOJ6fQiKjCJt0YbtNMDHaKMr1aGjBrOIvpiKj8ujU3YPatLJZjsFPUunOQFUM68cmbiK6vbowGi6dx2yyDnaLeH+9woFldrpUR0bUZ9eFGV6zNYbATv7BEJHOCED6GtXk9vgAw2Ek26sVqsGgqi+mI6EpTBloxuCP7XzDYSXa6Jxsw+xYWxRDR/+uRbMCsESyyZbCTbE260YKULiymI6LwTN6zU1ksx2An2XtyggMtuJZGpGpmAxtZMdhJMQy6cDGdg60iiVTpUrFc07psPc1gJ8WoE6PB4lQe7kCkRqmDrRjIw6IY7KQ8XZvrMYfHMRKpyg2teLwzg50UbUJ/C27uymI6IjVoEK8NnyHBYjkGOynbE+MdaMlTnIgULVws54LNxFs9g50UT68TkD7DBZeVlwCREgkC8MxkJxrXZrEcg51Uo7YrXEyn1XAsiJRm+lAr+rdjsRyDnVSnczM95oxiMR2RkvRpY8DdN7FYjsFOqjWurwUjurOYjkgJkmppsWCyCwKL5RjspG6PjXOgdSKL6YjkzGIUsGymC1YTU53BTqqn1wpYMsOFGBsvCSI5EgRgwRQnkmqxWI7BTnRRglOD56a5oNPwaZ9Ibmam2NC3DYvliMFOv9GxiR5zb2MxHZGc9GtrxMybrBwIYrDT1d3e24yRPc0cCCIZaJigxYIpTg4EMdjp980ba0ebJBbTEUUzm0nEspkumA1cPiMGO12HThPuTBdr5yVCFJU374vFconxLJYjBjuVU7xDg/TpLKYjikZ3DbOhd2sDB4IY7FQx7Rrp8cgYFtMRRZMB7YyYMZTFcsRgp0oa1cuM225gMR1RNGhcW4unJ7NYjhjsVEXzxjpYKU8UYWZDuPaFxXLEYKeqXygCMH+Cg9N/RBEiCMBTE9lZjspxrYRCoRCHgSris11l+NPb+Sjx8NIhqilzRtkxcYCFA0EMdqoeJ7P8mPv3PBw54+dgEFWz+2+xYeogzpYRg52qmdcfwqpPivD650XwBzgeRFLTaoBHWd9CDHaqaUfP+vHM2nzsO+7jYBBJJMGpwbNTnWjfWM/BIAY7Rcanu8qw8mM3Ms9zep6o0jdlAbi1hxn/M9IGm4n1zcRgpwgLBoGPvy/F658X4ehZBjxRRXRvYcB9I2xonchzGojBTlFo11Ev1n1dgq17y+D18zIjuhqzQcDgjiaM6WNGywYMdGKwkwyUeELYdtCDL/eV4dsDHhQUBzkopN6brgAk1dKiSzM9erU0oGeyAXodG84Qg51k7Ph5P3466UPmeT/O5QWQ6w7Cwzd6UhCNIMBsFKDTAE6riNouDWo7Nagbq0HTujp2jiMGOxEREZUPSy6JiIgY7ERERMRgJyIiIgY7ERERMdiJiIgY7ERERMRgJyIiIgY7ERERMdiJiIiIwU5ERMRgJyIiIgY7ERERMdiJiIiIwU5EREQMdiIiIgY7ERERMdiJiIiIwU5EREQMdiIiIgY7ERERMdiJiIiIwU5EREQMdiIiImKwExERMdiJiIiIwU5ERESR8X9W9lMpdEUlmwAAAABJRU5ErkJggg==;" parent="ggLD2dLzZbivhXyKgasr-2" vertex="1">
          <mxGeometry x="365" y="170" width="60" height="60" as="geometry" />
        </mxCell>
        <mxCell id="0jjN4F04IyJgkX9IHYN--8" value="Service&lt;br&gt;&amp;nbsp;Account" style="sketch=0;html=1;dashed=0;whitespace=wrap;fillColor=#2875E2;strokeColor=#ffffff;points=[[0.005,0.63,0],[0.1,0.2,0],[0.9,0.2,0],[0.5,0,0],[0.995,0.63,0],[0.72,0.99,0],[0.5,1,0],[0.28,0.99,0]];verticalLabelPosition=bottom;align=center;verticalAlign=top;shape=mxgraph.kubernetes.icon;prIcon=sa;shadow=0;fillStyle=auto;strokeWidth=2;fontColor=#000000;" parent="ggLD2dLzZbivhXyKgasr-2" vertex="1">
          <mxGeometry x="597" y="360" width="50" height="48" as="geometry" />
        </mxCell>
        <mxCell id="0jjN4F04IyJgkX9IHYN--7" value="DB Secret" style="sketch=0;html=1;dashed=0;whitespace=wrap;fillColor=#2875E2;strokeColor=#ffffff;points=[[0.005,0.63,0],[0.1,0.2,0],[0.9,0.2,0],[0.5,0,0],[0.995,0.63,0],[0.72,0.99,0],[0.5,1,0],[0.28,0.99,0]];verticalLabelPosition=bottom;align=center;verticalAlign=top;shape=mxgraph.kubernetes.icon;prIcon=secret;shadow=0;fillStyle=auto;strokeWidth=2;fontColor=#000000;" parent="ggLD2dLzZbivhXyKgasr-2" vertex="1">
          <mxGeometry x="672" y="360" width="50" height="48" as="geometry" />
        </mxCell>
        <mxCell id="0jjN4F04IyJgkX9IHYN--9" value="external&amp;nbsp;&lt;br&gt;secrets" style="sketch=0;html=1;dashed=0;whitespace=wrap;fillColor=#2875E2;strokeColor=#ffffff;points=[[0.005,0.63,0],[0.1,0.2,0],[0.9,0.2,0],[0.5,0,0],[0.995,0.63,0],[0.72,0.99,0],[0.5,1,0],[0.28,0.99,0]];verticalLabelPosition=bottom;align=center;verticalAlign=top;shape=mxgraph.kubernetes.icon;prIcon=crd;shadow=0;fillStyle=auto;strokeWidth=2;fontColor=#000000;" parent="ggLD2dLzZbivhXyKgasr-2" vertex="1">
          <mxGeometry x="747" y="360" width="50" height="48" as="geometry" />
        </mxCell>
        <mxCell id="0jjN4F04IyJgkX9IHYN--19" value="" style="edgeStyle=orthogonalEdgeStyle;rounded=0;orthogonalLoop=1;jettySize=auto;html=1;strokeWidth=3;fontColor=#000000;fillColor=#d5e8d4;strokeColor=#82b366;" parent="ggLD2dLzZbivhXyKgasr-2" source="0jjN4F04IyJgkX9IHYN--8" target="0jjN4F04IyJgkX9IHYN--7" edge="1">
          <mxGeometry relative="1" as="geometry" />
        </mxCell>
        <mxCell id="0jjN4F04IyJgkX9IHYN--11" style="edgeStyle=orthogonalEdgeStyle;rounded=0;orthogonalLoop=1;jettySize=auto;html=1;strokeWidth=3;fontColor=#000000;fillColor=#d5e8d4;strokeColor=#82b366;" parent="ggLD2dLzZbivhXyKgasr-2" source="0jjN4F04IyJgkX9IHYN--7" target="0jjN4F04IyJgkX9IHYN--9" edge="1">
          <mxGeometry relative="1" as="geometry" />
        </mxCell>
        <mxCell id="8dEJFX5Qo3AcuuHQP9cE-0" style="edgeStyle=orthogonalEdgeStyle;rounded=0;orthogonalLoop=1;jettySize=auto;html=1;strokeWidth=3;fontColor=#000000;fillColor=#d5e8d4;strokeColor=#82b366;" parent="ggLD2dLzZbivhXyKgasr-2" source="9g2idVIRXb9hJdvCYZv4-6" target="0jjN4F04IyJgkX9IHYN--8" edge="1">
          <mxGeometry relative="1" as="geometry">
            <Array as="points">
              <mxPoint x="600" y="450" />
              <mxPoint x="622" y="450" />
            </Array>
          </mxGeometry>
        </mxCell>
        <mxCell id="9g2idVIRXb9hJdvCYZv4-6" value="App &lt;br&gt;Container" style="sketch=0;outlineConnect=0;fontColor=#232F3E;gradientColor=none;fillColor=#D45B07;strokeColor=none;dashed=0;verticalLabelPosition=bottom;verticalAlign=top;align=center;html=1;fontSize=12;fontStyle=0;aspect=fixed;pointerEvents=1;shape=mxgraph.aws4.container_1;" parent="ggLD2dLzZbivhXyKgasr-2" vertex="1">
          <mxGeometry x="570" y="465" width="48" height="31" as="geometry" />
        </mxCell>
        <mxCell id="DtJrAWG_DkLpeZoSvWTt-1" value="Otel&amp;nbsp;&lt;br&gt;Sidecar" style="sketch=0;outlineConnect=0;fontColor=#232F3E;gradientColor=none;fillColor=#D45B07;strokeColor=none;dashed=0;verticalLabelPosition=bottom;verticalAlign=top;align=center;html=1;fontSize=12;fontStyle=0;aspect=fixed;pointerEvents=1;shape=mxgraph.aws4.container_1;" parent="ggLD2dLzZbivhXyKgasr-2" vertex="1">
          <mxGeometry x="570" y="569.75" width="48" height="31" as="geometry" />
        </mxCell>
        <mxCell id="JQdYd_Ilo_G8GBKgJyek-5" style="edgeStyle=orthogonalEdgeStyle;rounded=0;orthogonalLoop=1;jettySize=auto;html=1;entryX=0.005;entryY=0.63;entryDx=0;entryDy=0;entryPerimeter=0;strokeWidth=3;fillColor=#d5e8d4;strokeColor=#82b366;" parent="ggLD2dLzZbivhXyKgasr-2" source="JQdYd_Ilo_G8GBKgJyek-0" target="0jjN4F04IyJgkX9IHYN--8" edge="1">
          <mxGeometry relative="1" as="geometry" />
        </mxCell>
        <mxCell id="JQdYd_Ilo_G8GBKgJyek-0" value="AWS Fargate" style="outlineConnect=0;fontColor=#232F3E;gradientColor=#F78E04;gradientDirection=north;fillColor=#D05C17;strokeColor=#ffffff;dashed=0;verticalLabelPosition=bottom;verticalAlign=top;align=center;html=1;fontSize=12;fontStyle=0;aspect=fixed;shape=mxgraph.aws4.resourceIcon;resIcon=mxgraph.aws4.fargate;" parent="ggLD2dLzZbivhXyKgasr-2" vertex="1">
          <mxGeometry x="470" y="399.75" width="60" height="60" as="geometry" />
        </mxCell>
        <mxCell id="JQdYd_Ilo_G8GBKgJyek-2" value="Managed&lt;br&gt;Node Group" style="sketch=0;points=[[0,0,0],[0.25,0,0],[0.5,0,0],[0.75,0,0],[1,0,0],[0,1,0],[0.25,1,0],[0.5,1,0],[0.75,1,0],[1,1,0],[0,0.25,0],[0,0.5,0],[0,0.75,0],[1,0.25,0],[1,0.5,0],[1,0.75,0]];outlineConnect=0;fontColor=#232F3E;gradientColor=#F78E04;gradientDirection=north;fillColor=#D05C17;strokeColor=#ffffff;dashed=0;verticalLabelPosition=bottom;verticalAlign=top;align=center;html=1;fontSize=12;fontStyle=0;aspect=fixed;shape=mxgraph.aws4.resourceIcon;resIcon=mxgraph.aws4.ec2;shadow=0;fillStyle=auto;strokeWidth=2;" parent="ggLD2dLzZbivhXyKgasr-2" vertex="1">
          <mxGeometry x="470" y="509.75" width="60" height="60" as="geometry" />
        </mxCell>
        <mxCell id="5uYTFXoTfXSBKqiMPW2P-0" style="edgeStyle=orthogonalEdgeStyle;rounded=0;orthogonalLoop=1;jettySize=auto;html=1;strokeWidth=3;fontColor=#000000;fillColor=#d5e8d4;strokeColor=#82b366;" parent="ggLD2dLzZbivhXyKgasr-2" source="JQdYd_Ilo_G8GBKgJyek-2" target="DtJrAWG_DkLpeZoSvWTt-1" edge="1">
          <mxGeometry relative="1" as="geometry">
            <mxPoint x="500" y="568.75" as="sourcePoint" />
            <mxPoint x="560" y="590" as="targetPoint" />
            <Array as="points">
              <mxPoint x="500" y="590" />
            </Array>
          </mxGeometry>
        </mxCell>
        <mxCell id="9g2idVIRXb9hJdvCYZv4-1" style="edgeStyle=orthogonalEdgeStyle;rounded=0;orthogonalLoop=1;jettySize=auto;html=1;strokeWidth=3;fontColor=#000000;fillColor=#d5e8d4;strokeColor=#82b366;" parent="ggLD2dLzZbivhXyKgasr-2" source="JQdYd_Ilo_G8GBKgJyek-2" target="9g2idVIRXb9hJdvCYZv4-6" edge="1">
          <mxGeometry relative="1" as="geometry">
            <mxPoint x="500" y="508.75" as="sourcePoint" />
            <Array as="points">
              <mxPoint x="500" y="481" />
            </Array>
          </mxGeometry>
        </mxCell>
        <mxCell id="ggLD2dLzZbivhXyKgasr-55" value="Dev" style="outlineConnect=0;fillColor=#009900;strokeColor=#009900;dashed=0;verticalLabelPosition=bottom;verticalAlign=top;align=center;html=1;fontSize=12;fontStyle=0;aspect=fixed;pointerEvents=1;shape=mxgraph.aws4.user;fontColor=#009900;" parent="ggLD2dLzZbivhXyKgasr-1" vertex="1">
          <mxGeometry x="64.99999999999999" y="95" width="30" height="30" as="geometry" />
        </mxCell>
        <mxCell id="ggLD2dLzZbivhXyKgasr-56" value="" style="edgeStyle=orthogonalEdgeStyle;rounded=0;orthogonalLoop=1;jettySize=auto;html=1;strokeWidth=3;fontColor=#97D077;fillColor=#d5e8d4;strokeColor=#82b366;" parent="ggLD2dLzZbivhXyKgasr-1" source="ggLD2dLzZbivhXyKgasr-57" target="ggLD2dLzZbivhXyKgasr-22" edge="1">
          <mxGeometry relative="1" as="geometry" />
        </mxCell>
        <mxCell id="ggLD2dLzZbivhXyKgasr-57" value="Test" style="outlineConnect=0;fillColor=#82B366;strokeColor=#82B366;dashed=0;verticalLabelPosition=bottom;verticalAlign=top;align=center;html=1;fontSize=12;fontStyle=0;aspect=fixed;pointerEvents=1;shape=mxgraph.aws4.user;fontColor=#009900;" parent="ggLD2dLzZbivhXyKgasr-1" vertex="1">
          <mxGeometry x="65.0000000000001" y="604.5" width="30" height="30" as="geometry" />
        </mxCell>
        <mxCell id="ggLD2dLzZbivhXyKgasr-58" value="" style="edgeStyle=orthogonalEdgeStyle;rounded=0;orthogonalLoop=1;jettySize=auto;html=1;strokeWidth=3;fontColor=#97D077;fillColor=#d5e8d4;strokeColor=#82b366;" parent="ggLD2dLzZbivhXyKgasr-1" source="ggLD2dLzZbivhXyKgasr-59" target="ggLD2dLzZbivhXyKgasr-2" edge="1">
          <mxGeometry relative="1" as="geometry" />
        </mxCell>
        <mxCell id="dmBqD1Em2rF2oyGfy5Pq-3" value="" style="edgeStyle=orthogonalEdgeStyle;rounded=0;orthogonalLoop=1;jettySize=auto;html=1;" edge="1" parent="ggLD2dLzZbivhXyKgasr-1" source="ggLD2dLzZbivhXyKgasr-59" target="dmBqD1Em2rF2oyGfy5Pq-2">
          <mxGeometry relative="1" as="geometry" />
        </mxCell>
        <mxCell id="dmBqD1Em2rF2oyGfy5Pq-4" value="" style="edgeStyle=orthogonalEdgeStyle;rounded=0;orthogonalLoop=1;jettySize=auto;html=1;" edge="1" parent="ggLD2dLzZbivhXyKgasr-1" source="ggLD2dLzZbivhXyKgasr-59" target="dmBqD1Em2rF2oyGfy5Pq-2">
          <mxGeometry relative="1" as="geometry" />
        </mxCell>
        <mxCell id="dmBqD1Em2rF2oyGfy5Pq-5" value="" style="edgeStyle=orthogonalEdgeStyle;rounded=0;orthogonalLoop=1;jettySize=auto;html=1;" edge="1" parent="ggLD2dLzZbivhXyKgasr-1" source="ggLD2dLzZbivhXyKgasr-59" target="dmBqD1Em2rF2oyGfy5Pq-2">
          <mxGeometry relative="1" as="geometry" />
        </mxCell>
        <mxCell id="ggLD2dLzZbivhXyKgasr-59" value="CDK" style="sketch=0;points=[[0,0,0],[0.25,0,0],[0.5,0,0],[0.75,0,0],[1,0,0],[0,1,0],[0.25,1,0],[0.5,1,0],[0.75,1,0],[1,1,0],[0,0.25,0],[0,0.5,0],[0,0.75,0],[1,0.25,0],[1,0.5,0],[1,0.75,0]];outlineConnect=0;fontColor=#232F3E;gradientColor=#4D72F3;gradientDirection=north;fillColor=#3334B9;strokeColor=#ffffff;dashed=0;verticalLabelPosition=bottom;verticalAlign=top;align=center;html=1;fontSize=12;fontStyle=0;aspect=fixed;shape=mxgraph.aws4.resourceIcon;resIcon=mxgraph.aws4.cloud_development_kit;" parent="ggLD2dLzZbivhXyKgasr-1" vertex="1">
          <mxGeometry x="50" y="390" width="60" height="60" as="geometry" />
        </mxCell>
        <mxCell id="0jjN4F04IyJgkX9IHYN--6" style="edgeStyle=orthogonalEdgeStyle;rounded=0;orthogonalLoop=1;jettySize=auto;html=1;strokeWidth=3;fontColor=#000000;fillColor=#d5e8d4;strokeColor=#82b366;" parent="ggLD2dLzZbivhXyKgasr-1" source="0jjN4F04IyJgkX9IHYN--3" target="SatvpjFlcfAXrUAFCSuR-3" edge="1">
          <mxGeometry relative="1" as="geometry">
            <mxPoint x="1040" y="330" as="targetPoint" />
            <Array as="points">
              <mxPoint x="660" y="330" />
            </Array>
          </mxGeometry>
        </mxCell>
        <mxCell id="SatvpjFlcfAXrUAFCSuR-0" value="X-Ray Traces" style="sketch=0;points=[[0,0,0],[0.25,0,0],[0.5,0,0],[0.75,0,0],[1,0,0],[0,1,0],[0.25,1,0],[0.5,1,0],[0.75,1,0],[1,1,0],[0,0.25,0],[0,0.5,0],[0,0.75,0],[1,0.25,0],[1,0.5,0],[1,0.75,0]];outlineConnect=0;fontColor=#232F3E;gradientColor=#4D72F3;gradientDirection=north;fillColor=#3334B9;strokeColor=#ffffff;dashed=0;verticalLabelPosition=bottom;verticalAlign=top;align=center;html=1;fontSize=12;fontStyle=0;aspect=fixed;shape=mxgraph.aws4.resourceIcon;resIcon=mxgraph.aws4.xray;" parent="ggLD2dLzZbivhXyKgasr-1" vertex="1">
          <mxGeometry x="1030" y="639.75" width="60" height="60" as="geometry" />
        </mxCell>
        <mxCell id="SatvpjFlcfAXrUAFCSuR-1" value="CloudWatch Logs" style="sketch=0;points=[[0,0,0],[0.25,0,0],[0.5,0,0],[0.75,0,0],[1,0,0],[0,1,0],[0.25,1,0],[0.5,1,0],[0.75,1,0],[1,1,0],[0,0.25,0],[0,0.5,0],[0,0.75,0],[1,0.25,0],[1,0.5,0],[1,0.75,0]];points=[[0,0,0],[0.25,0,0],[0.5,0,0],[0.75,0,0],[1,0,0],[0,1,0],[0.25,1,0],[0.5,1,0],[0.75,1,0],[1,1,0],[0,0.25,0],[0,0.5,0],[0,0.75,0],[1,0.25,0],[1,0.5,0],[1,0.75,0]];outlineConnect=0;fontColor=#232F3E;gradientColor=#F34482;gradientDirection=north;fillColor=#BC1356;strokeColor=#ffffff;dashed=0;verticalLabelPosition=bottom;verticalAlign=top;align=center;html=1;fontSize=12;fontStyle=0;aspect=fixed;shape=mxgraph.aws4.resourceIcon;resIcon=mxgraph.aws4.cloudwatch_2;" parent="ggLD2dLzZbivhXyKgasr-1" vertex="1">
          <mxGeometry x="1030" y="548.75" width="60" height="60" as="geometry" />
        </mxCell>
        <mxCell id="SatvpjFlcfAXrUAFCSuR-2" value="SecretManager" style="sketch=0;points=[[0,0,0],[0.25,0,0],[0.5,0,0],[0.75,0,0],[1,0,0],[0,1,0],[0.25,1,0],[0.5,1,0],[0.75,1,0],[1,1,0],[0,0.25,0],[0,0.5,0],[0,0.75,0],[1,0.25,0],[1,0.5,0],[1,0.75,0]];outlineConnect=0;fontColor=#232F3E;gradientColor=#F54749;gradientDirection=north;fillColor=#C7131F;strokeColor=#ffffff;dashed=0;verticalLabelPosition=bottom;verticalAlign=top;align=center;html=1;fontSize=12;fontStyle=0;aspect=fixed;shape=mxgraph.aws4.resourceIcon;resIcon=mxgraph.aws4.secrets_manager;" parent="ggLD2dLzZbivhXyKgasr-1" vertex="1">
          <mxGeometry x="1030" y="470" width="60" height="60" as="geometry" />
        </mxCell>
        <mxCell id="SatvpjFlcfAXrUAFCSuR-3" value="IAM" style="sketch=0;points=[[0,0,0],[0.25,0,0],[0.5,0,0],[0.75,0,0],[1,0,0],[0,1,0],[0.25,1,0],[0.5,1,0],[0.75,1,0],[1,1,0],[0,0.25,0],[0,0.5,0],[0,0.75,0],[1,0.25,0],[1,0.5,0],[1,0.75,0]];outlineConnect=0;fontColor=#232F3E;gradientColor=#F54749;gradientDirection=north;fillColor=#C7131F;strokeColor=#ffffff;dashed=0;verticalLabelPosition=bottom;verticalAlign=top;align=center;html=1;fontSize=12;fontStyle=0;aspect=fixed;shape=mxgraph.aws4.resourceIcon;resIcon=mxgraph.aws4.identity_and_access_management;shadow=0;fillStyle=auto;strokeWidth=2;" parent="ggLD2dLzZbivhXyKgasr-1" vertex="1">
          <mxGeometry x="1030" y="300" width="60" height="60" as="geometry" />
        </mxCell>
        <mxCell id="SatvpjFlcfAXrUAFCSuR-4" value="EventBrifge" style="sketch=0;points=[[0,0,0],[0.25,0,0],[0.5,0,0],[0.75,0,0],[1,0,0],[0,1,0],[0.25,1,0],[0.5,1,0],[0.75,1,0],[1,1,0],[0,0.25,0],[0,0.5,0],[0,0.75,0],[1,0.25,0],[1,0.5,0],[1,0.75,0]];outlineConnect=0;fontColor=#232F3E;gradientColor=#FF4F8B;gradientDirection=north;fillColor=#BC1356;strokeColor=#ffffff;dashed=0;verticalLabelPosition=bottom;verticalAlign=top;align=center;html=1;fontSize=12;fontStyle=0;aspect=fixed;shape=mxgraph.aws4.resourceIcon;resIcon=mxgraph.aws4.eventbridge;" parent="ggLD2dLzZbivhXyKgasr-1" vertex="1">
          <mxGeometry x="1030" y="385" width="60" height="60" as="geometry" />
        </mxCell>
        <mxCell id="DtJrAWG_DkLpeZoSvWTt-0" value="" style="edgeStyle=orthogonalEdgeStyle;rounded=0;orthogonalLoop=1;jettySize=auto;html=1;strokeWidth=3;fontColor=#000000;fillColor=#d5e8d4;strokeColor=#82b366;" parent="ggLD2dLzZbivhXyKgasr-1" source="DtJrAWG_DkLpeZoSvWTt-1" target="DtJrAWG_DkLpeZoSvWTt-2" edge="1">
          <mxGeometry relative="1" as="geometry">
            <Array as="points">
              <mxPoint x="822" y="630" />
              <mxPoint x="822" y="630" />
            </Array>
          </mxGeometry>
        </mxCell>
        <mxCell id="DtJrAWG_DkLpeZoSvWTt-2" value="OTel / Traces" style="sketch=0;points=[[0,0,0],[0.25,0,0],[0.5,0,0],[0.75,0,0],[1,0,0],[0,1,0],[0.25,1,0],[0.5,1,0],[0.75,1,0],[1,1,0],[0,0.25,0],[0,0.5,0],[0,0.75,0],[1,0.25,0],[1,0.5,0],[1,0.75,0]];points=[[0,0,0],[0.25,0,0],[0.5,0,0],[0.75,0,0],[1,0,0],[0,1,0],[0.25,1,0],[0.5,1,0],[0.75,1,0],[1,1,0],[0,0.25,0],[0,0.5,0],[0,0.75,0],[1,0.25,0],[1,0.5,0],[1,0.75,0]];outlineConnect=0;fontColor=#232F3E;gradientColor=#F34482;gradientDirection=north;fillColor=#BC1356;strokeColor=#ffffff;dashed=0;verticalLabelPosition=bottom;verticalAlign=top;align=center;html=1;fontSize=12;fontStyle=0;aspect=fixed;shape=mxgraph.aws4.resourceIcon;resIcon=mxgraph.aws4.distro_for_opentelemetry;" parent="ggLD2dLzZbivhXyKgasr-1" vertex="1">
          <mxGeometry x="865" y="595" width="60" height="60" as="geometry" />
        </mxCell>
        <mxCell id="BfQ4EMnU3saP_VX2e6Rz-0" style="edgeStyle=orthogonalEdgeStyle;rounded=0;orthogonalLoop=1;jettySize=auto;html=1;strokeWidth=3;fontColor=#000000;fillColor=#d5e8d4;strokeColor=#82b366;" parent="ggLD2dLzZbivhXyKgasr-1" edge="1">
          <mxGeometry relative="1" as="geometry">
            <mxPoint x="925" y="650" as="sourcePoint" />
            <mxPoint x="1030" y="650" as="targetPoint" />
            <Array as="points">
              <mxPoint x="950" y="650" />
              <mxPoint x="950" y="650" />
            </Array>
          </mxGeometry>
        </mxCell>
        <mxCell id="Y-w3CHCwbypN9vcxB-V6-1" value="" style="edgeStyle=orthogonalEdgeStyle;rounded=0;orthogonalLoop=1;jettySize=auto;html=1;strokeWidth=3;fontColor=#000000;fillColor=#d5e8d4;strokeColor=#82b366;" parent="ggLD2dLzZbivhXyKgasr-1" edge="1">
          <mxGeometry relative="1" as="geometry">
            <mxPoint x="808" y="519.5" as="sourcePoint" />
          </mxGeometry>
        </mxCell>
        <mxCell id="9g2idVIRXb9hJdvCYZv4-0" value="Database" style="sketch=0;points=[[0,0,0],[0.25,0,0],[0.5,0,0],[0.75,0,0],[1,0,0],[0,1,0],[0.25,1,0],[0.5,1,0],[0.75,1,0],[1,1,0],[0,0.25,0],[0,0.5,0],[0,0.75,0],[1,0.25,0],[1,0.5,0],[1,0.75,0]];outlineConnect=0;fontColor=#232F3E;gradientColor=#4D72F3;gradientDirection=north;fillColor=#3334B9;strokeColor=#ffffff;dashed=0;verticalLabelPosition=bottom;verticalAlign=top;align=center;html=1;fontSize=12;fontStyle=0;aspect=fixed;shape=mxgraph.aws4.resourceIcon;resIcon=mxgraph.aws4.rds;" parent="ggLD2dLzZbivhXyKgasr-1" vertex="1">
          <mxGeometry x="865" y="490.5" width="60" height="60" as="geometry" />
        </mxCell>
        <mxCell id="9g2idVIRXb9hJdvCYZv4-2" style="edgeStyle=orthogonalEdgeStyle;rounded=0;orthogonalLoop=1;jettySize=auto;html=1;entryX=1;entryY=0.5;entryDx=0;entryDy=0;entryPerimeter=0;strokeWidth=3;fontColor=#000000;fillColor=#d5e8d4;strokeColor=#82b366;" parent="ggLD2dLzZbivhXyKgasr-1" target="9g2idVIRXb9hJdvCYZv4-0" edge="1">
          <mxGeometry relative="1" as="geometry">
            <mxPoint x="1030" y="520" as="sourcePoint" />
            <Array as="points">
              <mxPoint x="990" y="520" />
              <mxPoint x="990" y="520" />
            </Array>
          </mxGeometry>
        </mxCell>
        <mxCell id="9g2idVIRXb9hJdvCYZv4-3" value="" style="edgeStyle=orthogonalEdgeStyle;rounded=0;orthogonalLoop=1;jettySize=auto;html=1;strokeWidth=3;fontColor=#000000;fillColor=#d5e8d4;strokeColor=#82b366;" parent="ggLD2dLzZbivhXyKgasr-1" source="9g2idVIRXb9hJdvCYZv4-6" target="9g2idVIRXb9hJdvCYZv4-0" edge="1">
          <mxGeometry relative="1" as="geometry" />
        </mxCell>
        <mxCell id="9g2idVIRXb9hJdvCYZv4-4" style="edgeStyle=orthogonalEdgeStyle;rounded=0;orthogonalLoop=1;jettySize=auto;html=1;strokeWidth=3;fontColor=#000000;fillColor=#d5e8d4;strokeColor=#82b366;" parent="ggLD2dLzZbivhXyKgasr-1" source="9g2idVIRXb9hJdvCYZv4-6" target="SatvpjFlcfAXrUAFCSuR-4" edge="1">
          <mxGeometry relative="1" as="geometry">
            <mxPoint x="1030" y="410" as="targetPoint" />
            <Array as="points">
              <mxPoint x="740" y="390" />
            </Array>
          </mxGeometry>
        </mxCell>
        <mxCell id="TeuoH-b4oZNj4MRh0wMz-0" style="edgeStyle=orthogonalEdgeStyle;rounded=0;orthogonalLoop=1;jettySize=auto;html=1;entryX=0;entryY=0.5;entryDx=0;entryDy=0;entryPerimeter=0;strokeWidth=3;fontColor=#000000;fillColor=#d5e8d4;strokeColor=#82b366;" parent="ggLD2dLzZbivhXyKgasr-1" source="JQdYd_Ilo_G8GBKgJyek-2" edge="1">
          <mxGeometry relative="1" as="geometry">
            <mxPoint x="690" y="578.75" as="sourcePoint" />
            <mxPoint x="1030" y="578.75" as="targetPoint" />
          </mxGeometry>
        </mxCell>
        <mxCell id="d8RvqD1lp-5YD73mpKnh-0" style="edgeStyle=orthogonalEdgeStyle;rounded=0;orthogonalLoop=1;jettySize=auto;html=1;entryX=0;entryY=0.25;entryDx=0;entryDy=0;entryPerimeter=0;strokeWidth=3;fontColor=#000000;fillColor=#d5e8d4;strokeColor=#82b366;" parent="ggLD2dLzZbivhXyKgasr-1" source="0jjN4F04IyJgkX9IHYN--9" target="SatvpjFlcfAXrUAFCSuR-2" edge="1">
          <mxGeometry relative="1" as="geometry" />
        </mxCell>
        <mxCell id="dmBqD1Em2rF2oyGfy5Pq-0" style="edgeStyle=orthogonalEdgeStyle;rounded=0;orthogonalLoop=1;jettySize=auto;html=1;strokeWidth=3;fillColor=#d5e8d4;strokeColor=#82b366;" edge="1" parent="ggLD2dLzZbivhXyKgasr-1" source="dmBqD1Em2rF2oyGfy5Pq-2" target="ggLD2dLzZbivhXyKgasr-59">
          <mxGeometry relative="1" as="geometry">
            <mxPoint x="80" y="390" as="targetPoint" />
          </mxGeometry>
        </mxCell>
        <mxCell id="dmBqD1Em2rF2oyGfy5Pq-1" value="&lt;font style=&quot;font-size: 15px;&quot;&gt;Infrastructure Update&lt;/font&gt;" style="edgeLabel;html=1;align=center;verticalAlign=middle;resizable=0;points=[];fontColor=#82B366;" vertex="1" connectable="0" parent="dmBqD1Em2rF2oyGfy5Pq-0">
          <mxGeometry x="0.0508" y="-4" relative="1" as="geometry">
            <mxPoint as="offset" />
          </mxGeometry>
        </mxCell>
        <mxCell id="dmBqD1Em2rF2oyGfy5Pq-2" value="Platform Team" style="outlineConnect=0;fillColor=#009900;strokeColor=#009900;dashed=0;verticalLabelPosition=bottom;verticalAlign=top;align=center;html=1;fontSize=12;fontStyle=0;aspect=fixed;pointerEvents=1;shape=mxgraph.aws4.user;fontColor=#009900;" vertex="1" parent="ggLD2dLzZbivhXyKgasr-1">
          <mxGeometry x="64.99999999999999" y="270" width="30" height="30" as="geometry" />
        </mxCell>
        <mxCell id="5jXUh2tmvFi0-91Zc6kM-0" value="&lt;font style=&quot;font-size: 15px;&quot;&gt;Source&lt;br&gt;Update&lt;/font&gt;" style="edgeStyle=orthogonalEdgeStyle;rounded=0;orthogonalLoop=1;jettySize=auto;html=1;strokeWidth=3;fontColor=#97D077;fillColor=#d5e8d4;strokeColor=#82b366;entryX=0;entryY=0.5;entryDx=0;entryDy=0;entryPerimeter=0;" edge="1" parent="ggLD2dLzZbivhXyKgasr-1" source="ggLD2dLzZbivhXyKgasr-55" target="ggLD2dLzZbivhXyKgasr-51">
          <mxGeometry relative="1" as="geometry">
            <mxPoint x="94" y="110" as="sourcePoint" />
            <mxPoint x="199" y="110" as="targetPoint" />
          </mxGeometry>
        </mxCell>
      </root>
    </mxGraphModel>
  </diagram>
</mxfile>
